<svg width="70" height="79" fill="none" xmlns="http://www.w3.org/2000/svg"><path d="M33.92 23.216l-.049 1 .048.002.049-.003-.049-.998zm9.292 1.91l.606-.796-.605.796zm-18.586 0l-.606-.796.606.796zm16.822-7.875l.98-.193-.121-.62-.613-.156-.246.969zM39.8 21.188l-.745-.666.745.666zm-13.41-3.937l-.246-.97-.613.156-.122.62.98.194zm1.647 3.937l.745-.666-.745.666zM15.022 18.77a1 1 0 101.448-1.378l-1.448 1.378zm-5.105-8.265a1 1 0 10-1.448 1.379l1.448-1.379zm23.12-3.38a1 1 0 102 0h-2zm2-6.125a1 1 0 10-2 0h2zM10.7 37.547a1 1 0 00-.284-1.98l.284 1.98zm-9.842-.609a1 1 0 10.284 1.98l-.284-1.98zM53.53 17.392a1 1 0 001.448 1.378l-1.448-1.378zm8.002-5.508a1 1 0 00-1.45-1.379l1.45 1.379zm-1.948 23.683a1 1 0 00-.284 1.98l.284-1.98zm9.274 3.35a1 1 0 00.284-1.979l-.284 1.98zm-41.25-10.316a1 1 0 100 2v-2zm.054 2a1 1 0 100-2v2zm6.236-2a1 1 0 100 2v-2zm.054 2a1 1 0 100-2v2zm5.795-2a1 1 0 100 2v-2zm.054 2a1 1 0 100-2v2zm-9.387 3.74a1 1 0 000 2v-2zm.053 2a1 1 0 100-2v2zm6.755-2a1 1 0 000 2v-2zm.053 2a1 1 0 100-2v2zm-3.323 3.167a1 1 0 100 2v-2zm.053 2a1 1 0 100-2v2zm-.086-18.292l.055.999h.012a7.015 7.015 0 01.24-.01 25.676 25.676 0 013.13.115c1.932.194 4.008.655 5.25 1.601l1.212-1.591c-1.718-1.309-4.289-1.802-6.263-2a27.642 27.642 0 00-3.606-.116l-.06.003h-.022l-.001.001.053.998zm8.688 2.705c1.385 1.055 2.032 2.64 2.062 4.559.03 1.938-.577 4.152-1.64 6.266-1.061 2.11-2.542 4.053-4.182 5.456-1.653 1.416-3.374 2.206-4.928 2.206v2c2.21 0 4.378-1.102 6.229-2.686 1.863-1.596 3.501-3.759 4.667-6.077 1.163-2.314 1.89-4.85 1.853-7.196-.037-2.366-.858-4.602-2.85-6.12l-1.211 1.592zm-8.688 18.487c-1.554 0-3.274-.79-4.927-2.206-1.64-1.403-3.121-3.347-4.182-5.456-1.063-2.114-1.67-4.328-1.64-6.266.03-1.92.677-3.504 2.062-4.559L24.02 24.33c-1.991 1.517-2.813 3.753-2.85 6.119-.036 2.347.69 4.882 1.853 7.196 1.166 2.318 2.804 4.481 4.668 6.077 1.85 1.584 4.018 2.686 6.228 2.686v-2zm-8.687-18.487c1.242-.946 3.319-1.407 5.25-1.6a25.68 25.68 0 013.37-.107h.011l.002.001.054-.998.054-.999h-.007l-.017-.001a9.558 9.558 0 00-.28-.01 27.642 27.642 0 00-3.386.124c-1.973.197-4.544.69-6.263 1.999l1.212 1.591zm8.687-2.704l.73-.684-.002-.002-.012-.013a8.96 8.96 0 01-.255-.295c-.17-.206-.397-.496-.622-.831-.484-.721-.831-1.465-.838-2.006l-2 .026c.015 1.168.667 2.334 1.177 3.094a12.47 12.47 0 001.083 1.384l.007.007.002.002v.001l.73-.683zm-1-3.831c-.008-.653.244-1.467.607-2.137a3.5 3.5 0 01.502-.727.747.747 0 01.123-.11c.015-.01-.07.05-.232.05v-2a1.56 1.56 0 00-.81.243 2.66 2.66 0 00-.526.434c-.3.314-.58.721-.816 1.158-.466.861-.861 2.016-.847 3.114l2-.025zm1-2.925c-.164 0-.25-.06-.235-.05a.75.75 0 01.123.111c.145.152.326.404.505.734.364.675.615 1.49.607 2.13l2 .025c.013-1.088-.382-2.242-.847-3.104a5.511 5.511 0 00-.814-1.162 2.661 2.661 0 00-.525-.437 1.559 1.559 0 00-.814-.247v2zm1 2.925c-.007.53-.353 1.272-.839 1.999a10.776 10.776 0 01-.826 1.076l-.054.06-.012.013a.035.035 0 01-.002.003l.733.68a255.508 255.508 0 00.734.68v-.001l.003-.003.006-.007a9.748 9.748 0 00.34-.394c.2-.244.469-.59.74-.995.509-.76 1.162-1.927 1.177-3.086l-2-.025zm1 .013a171.93 171.93 0 01.726.687v.001l.002-.002.015-.016.074-.073a8.393 8.393 0 011.409-1.085c.942-.574 2.032-.95 3.057-.69l.492-1.94c-1.799-.455-3.473.242-4.59.921a10.391 10.391 0 00-1.866 1.462l-.03.032-.01.01a.09.09 0 00-.004.003v.002h-.002l.727.688zm4.548-1.954c.063.32.003.776-.253 1.352-.251.564-.657 1.164-1.158 1.725l1.49 1.333c.606-.677 1.14-1.449 1.495-2.245.35-.786.56-1.68.388-2.552l-1.962.387zm-1.411 3.077c-.587.656-1.775 1.112-3.022 1.387a15.1 15.1 0 01-2.128.307l-.03.001h-.005l.048 1 .05.998h.018l.042-.003.153-.01a17.084 17.084 0 002.282-.339c1.286-.284 3.04-.842 4.082-2.008l-1.49-1.333zm-8.136-1.11c.014 1.158.668 2.324 1.176 3.085a12.783 12.783 0 001.06 1.366l.02.023.007.007.002.003h.001l.733-.68a255.508 255.508 0 01.734-.68l-.002-.002-.013-.013a9.467 9.467 0 01-.256-.299c-.17-.208-.398-.5-.623-.837-.486-.727-.833-1.47-.84-1.999l-2 .025zm1-.013c.727-.687.726-.687.726-.688l-.002-.002-.003-.003-.01-.01-.03-.032a9.393 9.393 0 00-.494-.459 10.39 10.39 0 00-1.373-1.003c-1.116-.679-2.79-1.376-4.589-.92l.492 1.938c1.024-.26 2.114.117 3.057.69a8.393 8.393 0 011.483 1.159l.015.016.002.002v-.001l.726-.687zm-6.51-2.341c-.172.872.038 1.766.388 2.552.354.796.89 1.568 1.494 2.245l1.491-1.333c-.501-.56-.907-1.16-1.158-1.725-.256-.576-.316-1.032-.253-1.352l-1.962-.387zm1.882 4.797c1.043 1.166 2.797 1.724 4.082 2.007a17.083 17.083 0 002.435.35l.043.002.013.001h.005l.05-.998.048-1h-.006l-.029-.001a13.513 13.513 0 01-.591-.053 15.1 15.1 0 01-1.537-.254c-1.247-.275-2.435-.731-3.022-1.387l-1.49 1.333zM16.47 17.392l-6.553-6.887-1.448 1.379 6.553 6.886 1.448-1.378zM35.037 7.125V1h-2v6.125h2zm-24.62 28.442l-9.56 1.371.284 1.98 9.558-1.371-.284-1.98zm44.56-16.797l6.553-6.886-1.448-1.379-6.553 6.887 1.448 1.378zM59.3 37.547l9.558 1.37.284-1.979-9.558-1.371-.284 1.98zM27.609 30.6h.053v-2h-.053v2zm6.29 0h.053v-2h-.054v2zm5.848 0h.054v-2h-.054v2zm-9.333 5.74h.053v-2h-.053v2zm6.807 0h.054v-2h-.053v2zm-3.27 5.167h.054v-2h-.053v2zM13.59 60.24l.999-.023-1 .023zm5.192-4.99l.021-1-.021 1zm4.966 4.99l-1-.023 1 .023zm-10.723 6.725l.693.721-.693-.721zM10.429 77.92h-1a1 1 0 001 1v-1zM24.65 66.965l-.735.677.735-.677zm3.952-8.894l1-.023-1 .023zm5.192-4.99l.021-1-.02 1zm4.967 4.99l1 .023-1-.023zm-4.967 4.772l.021 1-.02-1zm-6.208 1.953l.692.72-.692-.72zM24.765 77.92h-1a1 1 0 001 1v-1zm17.835 0v1a1 1 0 001-1h-1zm-2.484-13.124l-.693.72.693-.72zm3.387-4.556l1-.023-1 .023zm5.192-4.99l.022-1-.022 1zm4.967 4.99l1 .023-1-.023zm-4.967 4.773l.022 1-.022-1zm-5.757 1.952l.693.721-.693-.721zM56.823 77.92v1a1 1 0 001-1h-1zm-2.258-10.955l.736-.677-.736.677zm-29.114 1.03l.932.363-.932-.363zm16.694-.148l-.935.355.935-.355zm-27.556-7.63c-.05-2.146 1.833-4.017 4.171-3.967l.043-2c-3.396-.072-6.291 2.649-6.213 6.013l1.999-.046zm4.171-3.967c2.291.05 4.037 1.861 3.989 3.967l2 .046c.075-3.286-2.626-5.941-5.946-6.012l-.043 2zm3.989 3.967c-.048 2.065-1.746 3.748-3.989 3.796l.043 2c3.242-.07 5.871-2.545 5.945-5.75l-2-.046zm-3.989 3.796c-2.291.049-4.122-1.689-4.171-3.796l-2 .046c.076 3.284 2.895 5.82 6.214 5.75l-.043-2zm.022 1l.061-.999h-.02l-.04-.002a8.92 8.92 0 00-.62.002c-.402.014-.96.059-1.597.178-1.258.236-2.91.78-4.234 2.052l1.386 1.442c.934-.898 2.16-1.33 3.216-1.528a8.969 8.969 0 011.676-.15 4.234 4.234 0 01.113.003h-.002l.06-.998zm-6.45 1.23c-1.664 1.6-2.388 3.45-2.694 5.437-.298 1.93-.21 4.083-.21 6.24h2c0-2.29-.08-4.204.186-5.935.258-1.673.833-3.078 2.104-4.299l-1.386-1.442zM10.429 78.92h16.48v-2H10.43v2zm14.958-12.632c-1.272-1.382-2.992-1.929-4.299-2.147a10.903 10.903 0 00-2.187-.138 5.873 5.873 0 00-.19.012l-.013.001h-.007l.09.996.092.996h-.002.003a1.805 1.805 0 01.12-.007 8.887 8.887 0 011.765.112c1.1.184 2.314.613 3.157 1.53l1.471-1.355zm4.215-8.24c-.05-2.146 1.834-4.017 4.172-3.967l.042-2c-3.396-.072-6.29 2.649-6.213 6.013l2-.046zm4.172-3.967c2.29.049 4.037 1.861 3.988 3.967l2 .046c.076-3.286-2.625-5.942-5.946-6.013l-.042 2zm3.988 3.967c-.046 1.987-1.617 3.616-3.731 3.783l.156 1.993c3.07-.24 5.503-2.65 5.575-5.73l-2-.046zm-3.731 3.783c-.085.006-.17.01-.257.012l.042 2a6.44 6.44 0 00.371-.019l-.156-1.993zm-.257.012a3.968 3.968 0 01-.309-.004l-.098 1.998c.149.007.299.01.45.006l-.043-2zm-.309-.004c-2.147-.106-3.816-1.78-3.863-3.791l-2 .046c.073 3.134 2.646 5.589 5.765 5.743l.098-1.998zm.33 1.004l.062-.998h-.015l-.027-.002a5.905 5.905 0 00-.413-.005l.028 2a5.875 5.875 0 01.305.004s.001 0 0 0h-.001l.061-.999zm-.393-1.005a13.24 13.24 0 00-2.821.36c-1.195.292-2.604.835-3.687 1.877l1.386 1.442c.724-.697 1.747-1.125 2.774-1.375a11.168 11.168 0 012.376-.304l-.028-2zM24.765 78.92H42.6v-2H24.765v2zm16.044-14.845c-1.034-.995-2.503-1.546-3.735-1.853-1.248-.31-2.416-.409-2.99-.394l.05 2c.372-.01 1.36.062 2.457.335 1.111.276 2.174.72 2.832 1.354l1.386-1.442zm-6.726-2.247a7.715 7.715 0 00-.344.016l-.023.002a.271.271 0 00-.01.001h-.002l.091.996.092.996h-.003.009l.045-.003c.043-.003.11-.006.197-.009l-.052-2zm10.42-1.611c-.05-2.146 1.833-4.017 4.171-3.967l.043-2c-3.396-.072-6.292 2.649-6.214 6.013l2-.046zm4.171-3.967c2.29.05 4.037 1.861 3.988 3.967l2 .046c.076-3.286-2.625-5.941-5.945-6.012l-.043 2zm3.988 3.967c-.046 1.988-1.617 3.617-3.731 3.783l.157 1.994c3.07-.241 5.502-2.651 5.574-5.73l-2-.047zM48.931 64a5.39 5.39 0 01-.257.013l.043 2a6.45 6.45 0 00.37-.02L48.932 64zm-.257.013c-.104.002-.207 0-.308-.005l-.1 1.998c.15.007.3.01.45.006l-.042-2zm-.308-.005c-2.148-.106-3.817-1.779-3.864-3.791l-1.999.046c.073 3.135 2.645 5.589 5.764 5.743l.099-1.998zm.33 1.005l.061-.999h-.014l-.028-.002a5.905 5.905 0 00-.413-.005l.028 2c.106-.001.187 0 .239.001l.056.002h.01s.001 0 0 0h-.001l.061-.997zm-.394-1.006c-1.012.014-3.957.22-6.056 2.237l1.385 1.442c1.517-1.458 3.78-1.666 4.7-1.679l-.029-2zm-7.96 14.913h16.48v-2h-16.48v2zm17.48-1c0-2.159.088-4.302-.163-6.218-.257-1.963-.879-3.807-2.358-5.414l-1.472 1.354c1.117 1.213 1.625 2.624 1.847 4.32.229 1.745.147 3.67.147 5.958h2zm-2.521-11.632c-1.053-1.144-2.411-1.713-3.576-1.999a10.69 10.69 0 00-2.742-.292l.052 2a8.693 8.693 0 012.214.235c.94.23 1.886.657 2.58 1.41l1.472-1.354zm-6.318-2.29a7.718 7.718 0 00-.377.019h-.002l.091.996.092.995h-.002a.495.495 0 01.053-.003c.043-.003.11-.006.197-.008l-.052-2zm-22.09.077a9.792 9.792 0 00-2.374 3.558l1.864.725a7.796 7.796 0 011.896-2.841l-1.385-1.442zm-2.374 3.558c-.681 1.75-.857 3.592-.875 5.339-.008.875.023 1.743.055 2.57.032.836.066 1.624.066 2.378h2c0-.802-.036-1.635-.068-2.456a50.596 50.596 0 01-.053-2.472c.017-1.644.184-3.21.739-4.634l-1.864-.725zm1.772-.18a8.628 8.628 0 00-.904-1.165l-1.471 1.354c.267.29.497.589.695.896l1.68-1.085zm15.954-1.21c-.331.32-.628.65-.892.993l1.584 1.222c.202-.263.432-.52.694-.772l-1.386-1.442zM43.6 77.92c0-.775.045-1.582.097-2.43.05-.84.109-1.723.128-2.605.038-1.763-.074-3.625-.746-5.393l-1.87.71c.537 1.412.653 2.97.617 4.64-.019.833-.073 1.67-.126 2.526-.051.846-.1 1.709-.1 2.552h2zm-.52-10.428a9.213 9.213 0 00-2.27-3.417l-1.387 1.442a7.216 7.216 0 011.787 2.685l1.87-.71z" fill="#8C0F28"/></svg>