<svg width="91" height="79" fill="none" xmlns="http://www.w3.org/2000/svg"><path d="M83.137 7.807A23.431 23.431 0 0075.54 2.77a23.583 23.583 0 00-17.928 0 23.43 23.43 0 00-7.599 5.038L45.5 12.284l-4.513-4.477a23.52 23.52 0 00-16.563-6.805A23.52 23.52 0 007.86 7.807 23.14 23.14 0 001 24.237a23.14 23.14 0 006.86 16.428l4.514 4.477L45.499 78l33.125-32.858 4.513-4.477a23.216 23.216 0 005.08-7.537 23.066 23.066 0 000-17.783 23.217 23.217 0 00-5.08-7.538v0z" stroke="#8C0F28" stroke-width="2" stroke-linecap="round" stroke-linejoin="round"/><path d="M46 31.229l-.046.998.046.003.046-.002-.046-1zM57.626 33.5l-.587.81.587-.81zm-23.252 0l.587.81-.587-.81zm21.044-9.37l.98-.203-.129-.62-.616-.15-.235.973zm-2.06 4.685l-.728-.685.728.685zM36.582 24.13l-.235-.973-.616.15-.129.62.98.203zm2.06 4.685l.729-.685-.729.685zm-1.47 10.508a1 1 0 102 0h-2zm2-.498a1 1 0 00-2 0h2zm5.828.498a1 1 0 002 0h-2zm2-.498a1 1 0 00-2 0h2zm6.4.498a1 1 0 002 0h-2zm2-.498a1 1 0 00-2 0h2zm-6.2 6.438a1 1 0 002 0h-2zm2-.498a1 1 0 00-2 0h2zm-10.663.498a1 1 0 002 0h-2zm2-.498a1 1 0 00-2 0h2zM45 51.452a1 1 0 002 0h-2zm2-.497a1 1 0 00-2 0h2zm-1-19.726l.052.998h.003a1.485 1.485 0 00.075-.003l.244-.008a34.071 34.071 0 013.955.138c2.427.23 5.093.785 6.71 1.956l1.174-1.62c-2.087-1.511-5.234-2.093-7.694-2.327a36.05 36.05 0 00-4.47-.138 7.967 7.967 0 00-.072.003l-.02.002h-.008l.051.998zm11.04 3.081c1.803 1.306 2.62 3.252 2.659 5.56.038 2.334-.73 4.992-2.07 7.526-1.336 2.527-3.204 4.862-5.282 6.554-2.09 1.701-4.304 2.686-6.347 2.686v2c2.666 0 5.316-1.267 7.61-3.135 2.305-1.877 4.338-4.429 5.788-7.17 1.445-2.736 2.346-5.729 2.3-8.494-.045-2.791-1.064-5.393-3.485-7.147l-1.174 1.62zM46 56.636c-2.043 0-4.258-.985-6.347-2.686-2.078-1.692-3.946-4.027-5.282-6.554-1.34-2.534-2.108-5.192-2.07-7.526.038-2.308.856-4.254 2.66-5.56l-1.174-1.62c-2.42 1.754-3.44 4.356-3.485 7.147-.046 2.765.855 5.758 2.3 8.494 1.45 2.741 3.483 5.293 5.789 7.17 2.294 1.868 4.943 3.135 7.609 3.135v-2zM34.96 34.31c1.618-1.171 4.285-1.726 6.71-1.956a34.071 34.071 0 014.2-.13 11.006 11.006 0 01.075.003h.003L46 31.23l.051-1h-.028l-.073-.004a31.42 31.42 0 00-1.25-.02 36.05 36.05 0 00-3.219.158c-2.46.234-5.606.816-7.694 2.327l1.174 1.62zM46 31.228l.712-.702c0 .001 0 0 0 0l-.003-.002a6.319 6.319 0 01-.084-.09 12.765 12.765 0 01-1.048-1.29c-.61-.865-1.07-1.783-1.079-2.472l-2 .027c.019 1.346.811 2.7 1.445 3.598a14.775 14.775 0 001.308 1.596l.026.026.007.008.003.002v.001l.713-.7zm-1.502-4.556c-.01-.808.315-1.802.779-2.616.227-.4.463-.712.66-.908a1.11 1.11 0 01.203-.167c.041-.024-.012.019-.14.019v-2a1.73 1.73 0 00-.864.251c-.225.13-.429.3-.608.479-.36.356-.699.826-.99 1.336-.573 1.008-1.057 2.356-1.04 3.633l2-.027zM46 23c-.13 0-.185-.045-.143-.02.034.02.104.07.203.17.198.198.434.512.662.914.465.82.79 1.815.78 2.608l2 .026c.016-1.264-.468-2.612-1.04-3.62-.29-.512-.629-.983-.987-1.342a3.062 3.062 0 00-.607-.482A1.726 1.726 0 0046 21v2zm1.502 3.672c-.01.675-.466 1.591-1.08 2.463a13.11 13.11 0 01-1.118 1.375l-.017.017-.003.003.716.698a205.68 205.68 0 00.717.698l.002-.003.008-.008.025-.026.088-.094a15.093 15.093 0 001.218-1.51c.632-.897 1.426-2.253 1.444-3.587l-2-.026zm1 .013l.709.705-.001.001.004-.003.02-.021.097-.09a10.741 10.741 0 011.805-1.323c1.2-.695 2.65-1.19 4.048-.852l.469-1.945c-2.134-.514-4.143.27-5.518 1.066a12.734 12.734 0 00-2.158 1.582 7.86 7.86 0 00-.179.17l-.003.003-.002.002.709.705zm5.937-2.352c.087.419.002.993-.327 1.696-.324.691-.844 1.422-1.483 2.1l1.458 1.37c.745-.792 1.402-1.694 1.836-2.623.43-.916.682-1.949.475-2.95l-1.959.407zm-1.81 3.797c-.788.84-2.348 1.397-3.92 1.726a20.084 20.084 0 01-2.746.373h-.01l.047 1 .047.998h.021a5.678 5.678 0 00.238-.016 22.067 22.067 0 002.814-.397c1.597-.335 3.716-.985 4.967-2.314l-1.458-1.37zM42.5 26.698c.017 1.334.81 2.69 1.442 3.587a15.093 15.093 0 001.34 1.638l.002.003h.001L46 31.23a257.82 257.82 0 01.716-.698l-.003-.004-.016-.017a11.664 11.664 0 01-.327-.363 13.109 13.109 0 01-.793-1.012c-.613-.872-1.07-1.788-1.079-2.463l-2 .026zm1-.013l.709-.705h-.001l-.002-.002-.003-.004-.011-.01a4.992 4.992 0 00-.168-.16 12.72 12.72 0 00-2.158-1.582c-1.375-.796-3.384-1.58-5.518-1.064l.47 1.944c1.397-.337 2.847.157 4.047.851a10.741 10.741 0 011.805 1.323l.096.09.021.022a.19.19 0 01.004.003s-.001-.001.709-.706zm-7.897-2.758c-.207 1 .046 2.033.475 2.95.434.928 1.091 1.83 1.836 2.623l1.458-1.37c-.64-.68-1.16-1.41-1.483-2.101-.329-.703-.414-1.277-.327-1.696l-1.959-.406zm2.311 5.573c1.25 1.33 3.37 1.979 4.967 2.314a22.068 22.068 0 003.052.412l.015.001h.006L46 31.23l.046-1h-.01a5.993 5.993 0 01-.196-.013 20.084 20.084 0 01-2.55-.36c-1.57-.33-3.13-.887-3.92-1.726l-1.457 1.37zm1.26 9.823v-.498h-2v.498h2zm7.827 0v-.498h-2v.498h2zm8.4 0v-.498h-2v.498h2zm-4.2 5.94v-.498h-2v.498h2zm-8.663 0v-.498h-2v.498h2zM47 51.453v-.498h-2v.497h2z" fill="#8C0F28"/></svg>