<svg width="72" height="78" fill="none" xmlns="http://www.w3.org/2000/svg"><path d="M51.03 75.766l-.62.784a1 1 0 00.571.215l.049-1zm19.97 0l.182.983a1 1 0 00.494-1.72l-.676.737zM60.016 64.322l.925-.38-.925.38zm-1.597-7.695l-.973.231.01.046.016.044.947-.321zM39.447 36.699l.722-.692-.722.692zm-3.794 0l.654.756-.654-.756zm-.6 3.551l-.755.656.756-.656zm9.438 12.109a1 1 0 001.494-1.33l-1.494 1.33zm-5.574-7.768l.747-.665-.004-.004-.743.669zm-3.264.79l-.73-.685.73.684zm3.864 9.366a1 1 0 101.457-1.37l-1.457 1.37zm-7.459-5.026l-.753-.658.753.658zm-.6 3.552l-.99.131.043.33.232.237.716-.698zm4.477 6.025a1 1 0 101.432-1.396l-1.432 1.396zm-3.707-5.236l.716-.698-.716.698zm-2.367 1.184l-.84-.542.84.542zm0 2.762l-.764.645.764-.645zM41.444 71.03l-.72.695.108.112.137.074.475-.88zm6.19 2.368l.493-.87-.492.87zm3.396-37.094l-.55.835.028.019.03.017.492-.87zm-3.794 1.578l-.756-.655.756.656zm-2.197 4.197l-.687.726.687-.726zm5.99 33.687l-.048.999h.012l.035.002.134.006.51.023a344.617 344.617 0 007.758.259c2.242.048 4.622.072 6.708.036 2.063-.036 3.91-.132 5.044-.342l-.364-1.966c-.95.175-2.642.272-4.715.308-2.049.036-4.4.012-6.63-.036a345.455 345.455 0 01-8.218-.28l-.132-.006-.033-.001h-.011l-.05.998zm20.647-.737c-.98-.9-2.023-1.715-3.046-2.504-1.033-.797-2.042-1.564-3.006-2.398-1.913-1.655-3.592-3.527-4.682-6.185l-1.85.76c1.25 3.05 3.175 5.165 5.223 6.938 1.017.88 2.079 1.686 3.093 2.469 1.025.79 2.006 1.559 2.916 2.394l1.352-1.474zM60.941 63.942c-.527-1.284-.669-2.364-.797-3.55-.129-1.188-.245-2.51-.778-4.086l-1.894.642c.451 1.334.551 2.438.683 3.659.133 1.223.297 2.536.936 4.095l1.85-.76zM40.17 36.007c-.583-.608-1.55-.89-2.405-.93-.889-.041-1.954.162-2.766.866l1.31 1.512c.302-.262.8-.406 1.363-.38.597.027.97.228 1.054.316l1.444-1.384zm-5.171-.064c-.771.668-1.15 1.638-1.262 2.489-.058.435-.052.878.026 1.289.075.398.232.834.536 1.185l1.51-1.311c.005.005-.046-.06-.081-.247a2.107 2.107 0 01-.008-.653c.069-.52.29-.981.588-1.24l-1.31-1.512zm-.7 4.963c.605.697 1.575 1.787 2.391 2.7l1.049 1.17.318.354.087.096.023.026.006.006.001.002.744-.669.743-.67-.002-.001a7.97 7.97 0 00-.028-.031l-.087-.096a719.162 719.162 0 01-1.363-1.521 281.317 281.317 0 01-2.371-2.677l-1.51 1.31zm3.872 4.35l6.321 7.103 1.494-1.33-6.321-7.103-1.494 1.33zm.747-.665l.067-.998h-.013l-.027-.002a6.362 6.362 0 00-.41-.01c-.263 0-.626.01-1.025.054a6.174 6.174 0 00-1.293.274c-.43.147-.915.385-1.293.787l1.46 1.368c.068-.073.214-.172.479-.262.256-.087.559-.145.868-.18a7.277 7.277 0 011.106-.034h.013l.067-.997zm-3.994.105c-.365.39-.57.869-.69 1.292a5.994 5.994 0 00-.202 1.254 8.885 8.885 0 00.028 1.4v.007l.001.003v.001l.994-.116.993-.117v.001a4.251 4.251 0 00-.007-.07 6.867 6.867 0 01-.013-.986c.019-.293.06-.582.13-.83.072-.254.159-.4.225-.47l-1.459-1.369zm-.598 4.526l5.192 5.525 1.457-1.37-5.192-5.525-1.457 1.37zm.729-.685l-.111-.994h-.005l-.007.002a1.983 1.983 0 00-.11.014c-.07.01-.17.024-.29.045-.24.041-.57.108-.932.208-.663.183-1.672.54-2.294 1.251l1.506 1.316c.201-.23.69-.466 1.32-.64a7.886 7.886 0 011.021-.206l.012-.002h.002-.001l-.111-.994zm-3.75.526c-.371.426-.578.945-.7 1.41a6.73 6.73 0 00-.193 1.379 9.95 9.95 0 00.055 1.539l.001.008v.005l.992-.131.991-.132v-.001l-.002-.014a7.063 7.063 0 01-.029-.325 7.978 7.978 0 01-.01-.86c.015-.335.055-.671.13-.964.08-.3.18-.492.272-.598l-1.506-1.316zm-.561 4.908l.769.789 1.432-1.396-.769-.79-1.432 1.397zm.769.789l4.423 4.538 1.432-1.396-4.423-4.538-1.432 1.396zm.716-.698a233.007 233.007 0 00-.175-.985h-.001l-.003.001-.007.001-.022.004a5.412 5.412 0 00-.32.071c-.203.05-.482.126-.785.235a5.37 5.37 0 00-.97.454c-.317.194-.672.47-.924.86l1.68 1.085c.027-.042.107-.129.286-.238a3.39 3.39 0 01.605-.28 5.84 5.84 0 01.803-.222c.005 0 .008-.001.009-.002h-.001l-.175-.984zm-3.207.642c-.308.477-.649 1.083-.707 1.79-.064.769.214 1.484.783 2.159l1.529-1.29c-.313-.37-.329-.581-.319-.705.016-.185.116-.438.395-.87l-1.681-1.084zm.076 3.949c3.998 4.74 7.61 8.904 11.627 13.072l1.44-1.389c-3.97-4.12-7.549-8.243-11.538-12.973l-1.53 1.29zM40.969 71.91c1.246.671 2.33.97 3.307 1.248.975.277 1.854.536 2.866 1.11l.985-1.741c-1.236-.7-2.316-1.012-3.304-1.293-.987-.28-1.874-.53-2.904-1.085l-.95 1.76zm6.173 2.357c.65.369 1.46.932 2.128 1.42a45.896 45.896 0 011.12.846l.015.013.004.003.62-.784.62-.785-.001-.001a40.687 40.687 0 00-1.197-.906c-.679-.497-1.566-1.117-2.324-1.546l-.985 1.74zm12.25-17.873c-.132-.551-.471-1.156-.869-1.744a23.822 23.822 0 00-1.587-2.04c-1.26-1.476-2.916-3.203-4.698-4.98l-1.412 1.417c1.77 1.764 3.381 3.446 4.59 4.862.604.708 1.095 1.335 1.45 1.86.372.55.537.906.58 1.088l1.946-.463zm-7.86-8.055l.997.079v-.009l.003-.025a86.46 86.46 0 00.117-1.757 99.36 99.36 0 00.156-3.993c.025-1.467.007-2.991-.111-4.214-.06-.606-.146-1.18-.28-1.648a3.264 3.264 0 00-.275-.691 1.654 1.654 0 00-.617-.649l-.984 1.742c-.136-.077-.17-.162-.145-.118.02.034.056.116.098.265.085.298.158.733.212 1.292.107 1.108.127 2.543.102 3.987a97.384 97.384 0 01-.234 5.184l-.026.353-.007.092-.002.023v.007l.996.08zm.048-12.871c-.982-.647-2.027-.512-2.89-.086-.825.407-1.578 1.116-2.21 1.844l1.51 1.31c.567-.652 1.113-1.127 1.586-1.361.435-.215.687-.18.904-.037l1.1-1.67zm.658 12.163c-2.12-2.114-4.438-4.318-6.512-6.28l-1.374 1.453c2.073 1.962 4.374 4.15 6.474 6.243l1.412-1.416zm-6.512-6.28c-2.426-2.295-4.492-4.234-5.557-5.345l-1.444 1.384c1.11 1.157 3.229 3.146 5.627 5.414l1.374-1.453zm.754-4.125c-.707.816-1.305 1.976-1.709 2.865a23.673 23.673 0 00-.626 1.518l-.036.099-.01.027-.002.008-.001.002v.001l.943.332.943.331.002-.004a17.395 17.395 0 01.608-1.486c.39-.86.891-1.797 1.399-2.382l-1.51-1.31zM15 10.064l-.047.999.047.002.047-.002-.047-1zm11.073 2.23l-.599.802.599-.801zm-22.145 0l.598.802-.598-.801zM23.97 3.093l.98-.197-.124-.621-.615-.153-.241.97zm-1.962 4.601l.739.674-.74-.674zM6.03 3.092l-.241-.97-.615.152-.124.62.98.198zm1.962 4.601l.74-.673-.74.673zm-.511 8.832a1 1 0 100 2v-2zm.064 2a1 1 0 100-2v2zm7.43-2a1 1 0 000 2v-2zm.064 2a1 1 0 100-2v2zm6.905-2a1 1 0 100 2v-2zm.064 2a1 1 0 000-2v2zm-11.185 4.71a1 1 0 100 2v-2zm.064 2a1 1 0 100-2v2zm8.047-2a1 1 0 100 2v-2zm.064 2a1 1 0 100-2v2zm-3.96 4.038a1 1 0 100 2v-2zm.064 2a1 1 0 100-2v2zM15 10.063l.053 1h.003l.013-.002c.013 0 .032 0 .058-.002l.232-.008a31.418 31.418 0 013.757.135c2.307.227 4.83.77 6.358 1.91l1.197-1.602c-2.001-1.495-5.014-2.068-7.36-2.298a33.38 33.38 0 00-4.267-.135 10.694 10.694 0 00-.09.004h-.007l.053.999zm10.474 3.033c1.706 1.274 2.488 3.18 2.525 5.454.036 2.296-.696 4.908-1.971 7.395-1.273 2.482-3.05 4.772-5.025 6.43C19.016 34.044 16.92 35 15 35v2c2.564 0 5.101-1.256 7.289-3.093 2.2-1.847 4.138-4.356 5.518-7.05 1.378-2.687 2.235-5.625 2.191-8.338-.043-2.735-1.01-5.294-3.327-7.025l-1.197 1.602zM15 35c-1.92 0-4.016-.956-6.003-2.624-1.974-1.659-3.752-3.949-5.025-6.43-1.275-2.488-2.007-5.1-1.97-7.396.036-2.273.818-4.18 2.524-5.454l-1.197-1.602c-2.317 1.73-3.284 4.29-3.327 7.025-.044 2.713.813 5.651 2.19 8.339 1.381 2.693 3.32 5.202 5.52 7.05C9.898 35.743 12.435 37 15 37v-2zM4.526 13.096c1.527-1.14 4.05-1.683 6.358-1.91a31.417 31.417 0 013.99-.127l.057.003h.016l.053-.998.053-.999h-.008l-.02-.001a10.694 10.694 0 00-.328-.012 33.38 33.38 0 00-4.007.144c-2.347.23-5.36.803-7.36 2.298l1.196 1.602zM15 10.064l.723-.691-.003-.003-.015-.016a10.998 10.998 0 01-.31-.351 12.64 12.64 0 01-.751-.985c-.58-.847-1.018-1.75-1.027-2.43l-2 .027c.018 1.319.771 2.648 1.376 3.532a14.502 14.502 0 001.249 1.57l.024.026.008.008.002.002v.001h.001l.723-.69zm-1.383-4.476c-.01-.795.301-1.773.742-2.571.216-.393.44-.697.626-.887a.968.968 0 01.184-.158C15.204 1.95 15.14 2 15 2V0c-.35 0-.647.13-.859.256-.219.131-.416.3-.588.477-.344.353-.668.815-.945 1.317-.547.99-1.007 2.314-.99 3.565l2-.027zM15 2c-.143 0-.208-.05-.172-.03.027.017.09.064.184.16.187.193.41.5.628.895.442.804.752 1.782.742 2.564l2 .025c.016-1.239-.444-2.561-.99-3.553a6.274 6.274 0 00-.943-1.322 2.976 2.976 0 00-.587-.48A1.676 1.676 0 0015 0v2zm1.383 3.589c-.009.666-.445 1.567-1.027 2.42a12.776 12.776 0 01-1.08 1.364l-.002.004.726.687.726.687.001-.001.003-.003.007-.007a7.56 7.56 0 00.109-.12 14.782 14.782 0 001.162-1.485c.603-.883 1.358-2.214 1.374-3.52l-2-.026zm1 .013l.72.694h-.001l.003-.003.02-.02.09-.088a10.188 10.188 0 011.711-1.293c1.14-.68 2.5-1.154 3.802-.83l.483-1.94c-2.061-.514-3.995.268-5.309 1.052a12.174 12.174 0 00-2.188 1.681 4.419 4.419 0 00-.035.036l-.01.01-.004.004-.002.002.72.695zm5.607-2.313c.083.415 0 .981-.313 1.671-.307.679-.802 1.394-1.408 2.06l1.478 1.347c.711-.78 1.338-1.669 1.752-2.58.409-.902.648-1.914.451-2.892l-1.96.394zm-1.721 3.73c-.742.814-2.212 1.358-3.705 1.68a18.53 18.53 0 01-2.612.366l.048.999.048.999h.006l.014-.002a4.48 4.48 0 00.229-.015 20.503 20.503 0 002.69-.392c1.526-.33 3.56-.97 4.76-2.287l-1.478-1.348zm-9.651-1.405c.016 1.307.771 2.638 1.374 3.522a14.782 14.782 0 001.247 1.578l.024.026a.232.232 0 00.007.007l.002.003h.001v.001l.727-.687.726-.688-.002-.003-.016-.016a8.272 8.272 0 01-.31-.355c-.207-.246-.48-.593-.754-.993-.582-.853-1.018-1.754-1.027-2.42l-2 .025zm1-.012l.72-.695h-.001l-.002-.002-.003-.003-.01-.011a4.233 4.233 0 00-.161-.157 12.174 12.174 0 00-2.063-1.56C9.784 2.39 7.85 1.608 5.788 2.121l.483 1.941c1.303-.324 2.663.15 3.802.83a10.188 10.188 0 011.802 1.381 1.894 1.894 0 01.024.024l-.001-.001.72-.694zM5.05 2.895c-.197.978.042 1.99.451 2.891.414.912 1.04 1.8 1.752 2.581l1.478-1.348c-.606-.665-1.1-1.38-1.409-2.059-.312-.69-.395-1.256-.311-1.671L5.05 2.895zm2.203 5.472c1.2 1.316 3.234 1.958 4.76 2.288a20.498 20.498 0 002.919.407h.02l.048-.998a363.649 363.649 0 01.048-1h-.001a3.523 3.523 0 01-.193-.012 18.53 18.53 0 01-2.418-.352c-1.493-.323-2.963-.867-3.705-1.68L7.253 8.367zm.228 10.158h.064v-2H7.48v2zm7.494 0h.064v-2h-.064v2zm6.969 0h.064v-2h-.064v2zm-11.12 6.71h.063v-2h-.064v2zm8.11 0h.064v-2h-.064v2zm-3.896 6.038h.064v-2h-.063v2z" fill="#8C0F28"/></svg>