<svg width="89" height="79" fill="none" xmlns="http://www.w3.org/2000/svg"><path d="M70.407 10.184a1 1 0 00-.797-1.834l.797 1.834zM60.21 25.371a1 1 0 002 .06l-2-.06zm1-16.104l-.993-.118.993.118zm8.065-7.7l.343.94-.343-.94zm9.532 0l.983-.181a1 1 0 00-.776-.797l-.207.978zm0 8.8l-.956-.295.956.295zm-7.332 8.8l-.16-.987.16.987zM9.85 16.362a1 1 0 10.797 1.835l-.797-1.834zM20.048 1.176a1 1 0 10-2-.058l2 .058zm-1 16.104l-.993-.118.993.118zm-8.065 7.7l-.343-.939.343.94zm-9.532 0l-.983.182a1 1 0 00.776.797l.207-.978zm0-8.8l-.955-.295.955.296zm7.332-8.8l.16.988-.16-.988zM79.57 54.184a1 1 0 10-.798 1.834l.798-1.834zm7.4 17.08a1 1 0 001.999-.058l-2 .058zm1-16.163l-.994.119.993-.119zm-8.066-7.7l-.343.94.343-.94zm-9.531 0l-.207-.978a1 1 0 00-.777.797l.984.181zm0 8.8l-.956.296.956-.296zm7.331 8.8l.16-.987-.16.987zM69.61 8.351c-1.975.858-5.009 3.228-7.094 7.38l1.787.897c1.886-3.755 4.581-5.782 6.104-6.444L69.61 8.35zm-7.094 7.38c-1.273 2.534-2.19 5.727-2.306 9.64l2 .06c.106-3.626.953-6.533 2.093-8.803l-1.787-.897zm.893.449l.851-.526v-.001a.533.533 0 01-.022-.036 17.585 17.585 0 01-.34-.6 20.249 20.249 0 01-.796-1.634c-.583-1.358-1.033-2.873-.9-3.997l-1.985-.237c-.202 1.689.448 3.63 1.048 5.024a22.289 22.289 0 001.26 2.475l.024.04a.538.538 0 00.009.015v.002l.851-.525zm-1.206-6.794c.44-3.685 3.325-5.387 7.415-6.88L68.932.628c-4.09 1.492-8.123 3.556-8.715 8.52l1.986.238zm7.415-6.88c1.53-.558 3.727-.579 5.653-.42a31.38 31.38 0 013.27.447l.047.01.01.002a.055.055 0 00.002 0l.207-.978.206-.978a.514.514 0 00-.022-.005 10.3 10.3 0 00-.265-.052 33.388 33.388 0 00-3.292-.44c-1.966-.161-4.536-.182-6.502.536l.686 1.878zm9.189-.939l-.984.18v.003l.002.01.008.042a21.312 21.312 0 01.126.816c.077.552.17 1.322.231 2.189.126 1.77.11 3.812-.339 5.265l1.911.59c.566-1.83.551-4.189.423-5.997a34.97 34.97 0 00-.382-3.207 4.701 4.701 0 00-.01-.052l-.002-.014v-.005l-.984.18zm-.956 8.505c-.66 2.133-1.35 4.017-2.366 5.452-.985 1.392-2.266 2.348-4.17 2.656l.32 1.974c2.51-.406 4.235-1.713 5.482-3.474 1.216-1.719 1.983-3.877 2.645-6.017l-1.91-.591zm-6.536 8.108c-1.315.213-3.077-.39-4.663-1.197a21.389 21.389 0 01-2.603-1.575l-.035-.025-.008-.006h-.001l-.596.803-.595.803.002.001.004.003.013.01a6.88 6.88 0 00.214.152 23.371 23.371 0 002.699 1.617c1.617.822 3.888 1.712 5.889 1.389l-.32-1.975zm-60.666.017c1.974-.859 5.008-3.23 7.093-7.381l-1.787-.898c-1.886 3.756-4.581 5.782-6.104 6.445l.797 1.834zm7.093-7.381c1.273-2.534 2.19-5.728 2.306-9.64l-2-.06c-.106 3.626-.953 6.532-2.093 8.802l1.787.898zm-.893-.449l-.851.526.004.007a5.349 5.349 0 01.091.153 20.253 20.253 0 011.062 2.11c.584 1.358 1.034 2.874.9 3.998l1.986.237c.202-1.689-.448-3.63-1.048-5.024a22.242 22.242 0 00-1.26-2.476l-.024-.04-.007-.011a.065.065 0 01-.002-.004v-.001l-.851.525zm1.206 6.794c-.44 3.684-3.325 5.387-7.415 6.88l.686 1.878c4.09-1.492 8.123-3.557 8.715-8.521l-1.986-.237zm-7.415 6.88c-1.53.558-3.727.578-5.653.42a31.354 31.354 0 01-3.27-.448l-.047-.01-.01-.001h-.002l-.207.978-.206.978h.002l.004.002.016.003.056.011a28.58 28.58 0 00.967.172c.64.103 1.53.226 2.534.309 1.966.16 4.536.181 6.502-.536l-.686-1.879zm-9.189.939l.984-.181v-.002l-.002-.01a8.912 8.912 0 01-.037-.212 32.909 32.909 0 01-.328-2.834c-.126-1.772-.11-3.813.339-5.266l-1.911-.59c-.566 1.83-.551 4.188-.423 5.996a34.9 34.9 0 00.391 3.26l.003.013v.006l.984-.18zm.956-8.505c.66-2.133 1.35-4.018 2.366-5.453.985-1.391 2.266-2.347 4.17-2.655l-.32-1.975c-2.51.407-4.235 1.714-5.482 3.475-1.216 1.718-1.983 3.876-2.645 6.017l1.91.59zm6.536-8.109c1.315-.212 3.077.391 4.663 1.197a21.34 21.34 0 012.638 1.601c.004.003.006.005.008.005l.001.002.596-.804.595-.803-.002-.002-.004-.002a3.501 3.501 0 01-.058-.043l-.169-.12a23.359 23.359 0 00-2.699-1.617c-1.617-.821-3.888-1.712-5.889-1.388l.32 1.974zm69.83 47.652c1.522.663 4.217 2.689 6.103 6.445l1.787-.898c-2.085-4.152-5.12-6.522-7.093-7.38l-.798 1.833zm6.103 6.445c1.14 2.27 1.987 5.176 2.094 8.801l1.999-.058c-.115-3.914-1.033-7.107-2.306-9.641l-1.787.898zm.894-.45l.85.526.001-.001.003-.004a6.46 6.46 0 00.007-.011l.024-.04.087-.147a22.289 22.289 0 001.172-2.329c.6-1.395 1.25-3.335 1.048-5.024l-1.986.237c.135 1.124-.315 2.64-.9 3.997a20.249 20.249 0 01-1.135 2.234l-.017.03a.533.533 0 01-.004.006l-.001.001.85.526zm3.192-7.03c-.592-4.965-4.624-7.029-8.715-8.521l-.686 1.879c4.09 1.492 6.976 3.194 7.415 6.879l1.986-.237zm-8.715-8.521c-1.966-.717-4.536-.697-6.502-.536a33.455 33.455 0 00-3.5.48l-.057.012a2.45 2.45 0 00-.016.003l-.004.001h-.002l.207.98.206.978h.002l.01-.003.047-.01.186-.035a31.457 31.457 0 013.085-.412c1.926-.158 4.121-.138 5.652.42l.686-1.878zm-9.874.94l-.984-.181v.001l-.001.004-.003.015-.009.051-.032.19a34.914 34.914 0 00-.35 3.016c-.128 1.81-.143 4.168.423 5.999l1.91-.591c-.448-1.453-.463-3.494-.338-5.265a32.853 32.853 0 01.357-3.005l.008-.042.002-.01v-.002l-.983-.18zm-.956 9.095c.662 2.14 1.429 4.299 2.645 6.017 1.247 1.761 2.972 3.068 5.483 3.475l.32-1.975c-1.905-.308-3.185-1.264-4.17-2.656-1.016-1.434-1.708-3.32-2.367-5.452l-1.91.59zm8.128 9.492c2 .323 4.271-.567 5.889-1.389a23.382 23.382 0 002.913-1.77l.013-.009.004-.003.001-.001-.595-.803-.596-.803h-.001l-.008.006-.035.025a18.904 18.904 0 01-.698.475c-.476.308-1.143.713-1.904 1.1-1.587.807-3.349 1.41-4.664 1.197l-.32 1.975zM36 45.3l-.046 1H36l.046-.002L36 45.3zm14.236 2.782l-.587.81.587-.81zm-28.472 0l.587.81-.587-.81zm17.3-8.345l-1-.013 1 .013zm8.469-3.13l.979-.202-.129-.62-.616-.15-.234.973zm-2.523 5.738l-.729-.685.729.685zm-20.543-5.737l-.234-.972-.616.148-.129.62.98.204zm2.523 5.737l.729-.685-.729.685zm-1.575 12.867a1 1 0 102 0h-2zm2-.61a1 1 0 10-2 0h2zm7.585.61a1 1 0 102 0h-2zm2-.61a1 1 0 10-2 0h2zm8.286.61a1 1 0 102 0h-2zm2-.61a1 1 0 10-2 0h2zm-7.143 7.883a1 1 0 102 0h-2zm2-.61a1 1 0 00-2 0h2zm-12.607.61a1 1 0 102 0h-2zm2-.61a1 1 0 00-2 0h2zM35 70.064a1 1 0 102 0h-2zm2-.61a1 1 0 00-2 0h2zM36 45.3l.052.999h.004l.018-.001.076-.003a36.8 36.8 0 011.432-.022c.959.004 2.282.043 3.74.181 2.975.283 6.294.965 8.327 2.438l1.174-1.62c-2.503-1.813-6.302-2.522-9.311-2.809a43.945 43.945 0 00-5.113-.178 24.37 24.37 0 00-.441.016h-.009l.051 1zm13.65 3.592c2.277 1.65 3.3 4.105 3.348 6.986.048 2.906-.907 6.199-2.56 9.324-1.648 3.119-3.955 6.002-6.525 8.095-2.58 2.102-5.342 3.34-7.913 3.34v2c3.195 0 6.39-1.52 9.176-3.79 2.797-2.277 5.269-5.377 7.03-8.71 1.76-3.327 2.847-6.955 2.792-10.292-.055-3.364-1.28-6.476-4.175-8.573l-1.174 1.62zM36 76.636c-2.571 0-5.332-1.237-7.913-3.34-2.57-2.092-4.877-4.975-6.526-8.094-1.651-3.125-2.607-6.418-2.56-9.324.048-2.88 1.072-5.337 3.35-6.986l-1.174-1.62c-2.895 2.097-4.12 5.21-4.175 8.573-.055 3.337 1.033 6.965 2.791 10.292 1.762 3.333 4.234 6.433 7.03 8.71 2.787 2.27 5.982 3.79 9.177 3.79v-2zM22.35 48.892c2.034-1.473 5.353-2.155 8.328-2.438a41.917 41.917 0 014.87-.17l.302.01.076.004h.022L36 45.3l.051-.998h-.009l-.024-.002a38.698 38.698 0 00-1.609-.027 43.945 43.945 0 00-3.92.19c-3.01.287-6.809.996-9.312 2.809l1.174 1.62zM36 45.3l.712-.702-.004-.004a15.853 15.853 0 01-1.41-1.717c-.75-1.063-1.349-2.236-1.361-3.154l-2 .028c.021 1.574.954 3.183 1.727 4.279a17.838 17.838 0 001.58 1.928.555.555 0 01.039.04l.003.003h.001v.001L36 45.3zm-2.063-5.576c-.014-1.042.402-2.299.982-3.318.286-.502.586-.9.846-1.16.13-.128.23-.203.294-.24.07-.04.044-.006-.059-.006v-2c-.373 0-.699.134-.946.277a3.516 3.516 0 00-.699.551c-.421.419-.825.976-1.174 1.589-.69 1.212-1.264 2.823-1.244 4.334l2-.027zM36 35c-.105 0-.133-.035-.062.006.063.037.163.112.294.243.26.26.561.663.848 1.168.581 1.025.997 2.283.983 3.307l2 .026c.02-1.495-.556-3.106-1.244-4.32-.348-.614-.751-1.173-1.172-1.594a3.524 3.524 0 00-.698-.556A1.89 1.89 0 0036 33v2zm2.063 4.724c-.012.9-.609 2.072-1.361 3.142a16.268 16.268 0 01-1.413 1.731l-.004.005.715.698.716.699.001-.002.003-.002a1.535 1.535 0 01.038-.04l.106-.114a18.251 18.251 0 001.473-1.825c.771-1.096 1.706-2.706 1.726-4.266l-2-.026zm1 .013l.71.705h-.001l.005-.005.028-.027a11.703 11.703 0 01.608-.536c.426-.35 1.034-.805 1.764-1.227 1.489-.862 3.327-1.5 5.121-1.067l.47-1.944c-2.531-.61-4.928.316-6.593 1.28a15.377 15.377 0 00-2.602 1.908 9.369 9.369 0 00-.2.19l-.013.012-.004.004-.001.001c-.001.001-.001.001.708.706zm7.49-2.926c.12.578-.003 1.333-.417 2.218-.408.873-1.06 1.786-1.855 2.63l1.457 1.37c.901-.957 1.69-2.043 2.21-3.153.514-1.098.804-2.311.564-3.471l-1.959.406zm-2.272 4.849c-1.018 1.082-2.99 1.776-4.918 2.18a24.86 24.86 0 01-3.348.458l-.048.003h-.013l.046 1 .046.998h.008a2.982 2.982 0 00.078-.005c.053-.003.13-.007.226-.014a26.815 26.815 0 003.416-.482c1.953-.41 4.485-1.195 5.964-2.768l-1.457-1.37zm-12.344-1.91c.02 1.56.954 3.17 1.726 4.266a18.251 18.251 0 001.579 1.938l.03.032.008.009.003.002v.001h.001L36 45.3l.716-.698-.005-.005a16.268 16.268 0 01-1.413-1.731c-.752-1.07-1.35-2.242-1.361-3.142l-2 .026zm1-.013l.709-.705-.002-.002-.004-.004a.883.883 0 00-.056-.055 13.611 13.611 0 00-.727-.642c-.487-.4-1.185-.923-2.032-1.413-1.665-.964-4.062-1.89-6.592-1.28l.469 1.944c1.794-.433 3.632.205 5.12 1.067a13.367 13.367 0 012.251 1.649 6.988 6.988 0 01.15.141l.005.005.709-.705zm-9.449-3.332c-.24 1.16.05 2.373.564 3.471.52 1.11 1.309 2.196 2.21 3.154l1.457-1.37c-.794-.845-1.447-1.758-1.855-2.631-.414-.885-.538-1.64-.418-2.218l-1.958-.406zm2.774 6.625c1.479 1.573 4.01 2.358 5.964 2.767a26.82 26.82 0 003.725.502h.002L36 45.3l.046-.999h-.012l-.049-.003-.197-.013a24.858 24.858 0 01-3.152-.445c-1.927-.405-3.9-1.098-4.917-2.18l-1.457 1.37zm1.153 12.182v-.61h-2v.61h2zm9.585 0v-.61h-2v.61h2zm10.286 0v-.61h-2v.61h2zm-5.143 7.273v-.61h-2v.61h2zm-10.607 0v-.61h-2v.61h2zM37 70.064v-.61h-2v.61h2z" fill="#8C0F28"/></svg>