<svg width="79" height="79" fill="none" xmlns="http://www.w3.org/2000/svg"><path d="M39.064 32.131l-.046.999.046.002.047-.002-.047-.999zm9.307 1.834l-.59.807.59-.807zm-18.614 0l.59.807-.59-.807zM46.604 26.4l.98-.202-.128-.62-.616-.15-.236.972zm-1.65 3.782l-.73-.682.73.682zM31.525 26.4l-.236-.972-.615.15-.128.62.98.202zm1.65 3.782l.731-.682-.731.682zm-1.376 8.482a1 1 0 102 0h-2zm2-.402a1 1 0 00-2 0h2zm4.266.402a1 1 0 102 0h-2zm2-.402a1 1 0 10-2 0h2zm4.725.402a1 1 0 002 0h-2zm2-.402a1 1 0 10-2 0h2zm-5.362 5.197a1 1 0 102 0h-2zm2-.402a1 1 0 00-2 0h2zm-8.935.401a1 1 0 102 0h-2zm2-.401a1 1 0 00-2 0h2zm1.572 5.398a1 1 0 102 0h-2zm2-.402a1 1 0 00-2 0h2zm-1-15.923l.052.999h.002l.011-.001.048-.002.193-.006a26.836 26.836 0 013.14.11c1.939.186 4.024.63 5.272 1.541l1.18-1.615c-1.72-1.255-4.287-1.727-6.26-1.917a28.832 28.832 0 00-3.606-.111l-.06.002-.017.001h-.006l.051.999zm8.718 2.641c1.383 1.01 2.02 2.518 2.05 4.337.03 1.845-.574 3.96-1.636 5.985-1.059 2.02-2.539 3.884-4.18 5.231-1.652 1.357-3.381 2.123-4.952 2.123v2c2.2 0 4.365-1.053 6.221-2.577 1.868-1.534 3.512-3.615 4.682-5.848 1.168-2.227 1.9-4.675 1.864-6.946-.038-2.297-.87-4.46-2.87-5.92l-1.18 1.615zm-8.718 17.676c-1.57 0-3.299-.766-4.951-2.123-1.641-1.347-3.122-3.21-4.18-5.23-1.063-2.026-1.666-4.141-1.636-5.986.03-1.82.667-3.327 2.05-4.337l-1.18-1.615c-1.999 1.46-2.832 3.623-2.87 5.92-.036 2.272.697 4.719 1.864 6.946 1.171 2.233 2.815 4.314 4.682 5.848 1.857 1.524 4.022 2.577 6.221 2.577v-2zm-8.717-17.676c1.247-.91 3.333-1.355 5.271-1.541a26.833 26.833 0 013.334-.104l.047.002a1.396 1.396 0 00.013 0l.052-.998.052-.999h-.024l-.06-.003a25.456 25.456 0 00-1.01-.016c-.662.003-1.579.03-2.595.127-1.973.19-4.541.662-6.26 1.917l1.18 1.615zm8.717-2.641l.715-.7v.001s.001 0 0 0l-.001-.002a10.08 10.08 0 01-.887-1.09c-.487-.694-.823-1.394-.83-1.89l-2 .027c.016 1.148.681 2.282 1.191 3.01a12.092 12.092 0 00.993 1.233l.073.078.021.022.007.007.002.002.001.001.715-.699zm-1.002-3.68c-.008-.61.238-1.379.598-2.018.177-.312.356-.548.498-.69a.728.728 0 01.122-.105c.015-.009-.064.044-.216.044v-2a1.58 1.58 0 00-.795.23 2.647 2.647 0 00-.527.418 5.286 5.286 0 00-.823 1.12c-.47.832-.872 1.953-.857 3.027l2-.027zm1.002-2.77c-.154 0-.234-.053-.218-.044a.76.76 0 01.122.106c.143.144.322.382.5.697.361.644.607 1.414.599 2.01l2 .027c.014-1.065-.389-2.186-.856-3.018a5.336 5.336 0 00-.822-1.124 2.648 2.648 0 00-.526-.42 1.576 1.576 0 00-.799-.233v2zm1.003 2.77c-.006.483-.341 1.182-.83 1.882a10.4 10.4 0 01-.892 1.103l.72.695.718.696.001-.002.002-.002a.26.26 0 00.007-.007l.02-.022a8.517 8.517 0 00.32-.357c.202-.235.472-.568.745-.96.508-.727 1.174-1.863 1.189-3l-2-.026zm1 .013a171.873 171.873 0 01.712.702h-.001v.001l.002-.002a1.977 1.977 0 01.089-.085 8.394 8.394 0 011.41-1.042c.943-.55 2.046-.92 3.089-.666l.472-1.943c-1.785-.434-3.45.229-4.569.882a10.386 10.386 0 00-1.87 1.405 4.03 4.03 0 00-.044.043l-.002.002.712.703zm4.558-1.862c.058.285.005.706-.249 1.253-.248.536-.652 1.109-1.153 1.646l1.463 1.364c.607-.651 1.146-1.397 1.504-2.168.353-.76.57-1.636.394-2.498l-1.96.403zM44.224 29.5c-.586.628-1.778 1.069-3.032 1.334a15.783 15.783 0 01-2.138.295l-.03.002h-.005l.046.999.047.999h.006a.487.487 0 00.055-.003l.152-.01a17.736 17.736 0 002.28-.325c1.283-.272 3.036-.805 4.082-1.927L44.223 29.5zm-8.161-1.024c.015 1.137.681 2.273 1.189 3a12.324 12.324 0 001.064 1.317l.021.022a.26.26 0 00.006.007l.003.002v.001l.72-.695a343.771 343.771 0 01.718-.695l-.002-.002a4.522 4.522 0 01-.065-.07 10.377 10.377 0 01-.825-1.03c-.488-.701-.823-1.4-.83-1.883l-2 .026zm1-.013l.712-.703-.002-.002-.003-.003-.01-.01a4.03 4.03 0 00-.14-.132 10.386 10.386 0 00-1.762-1.303c-1.118-.653-2.784-1.316-4.569-.882l.473 1.943c1.043-.253 2.145.116 3.088.666a8.394 8.394 0 011.5 1.127l.002.002-.001-.001.712-.702zm-6.517-2.265c-.177.861.04 1.738.393 2.498.358.771.897 1.517 1.505 2.168l1.462-1.364c-.5-.537-.904-1.11-1.153-1.646-.253-.547-.306-.968-.248-1.253l-1.959-.403zm1.898 4.666c1.046 1.122 2.799 1.655 4.081 1.927a17.736 17.736 0 002.488.338h.005l.047-.999.047-.999h-.006l-.03-.002a14.002 14.002 0 01-.594-.051 16.12 16.12 0 01-1.543-.244c-1.255-.265-2.447-.706-3.033-1.334l-1.462 1.364zm1.355 7.8v-.402h-2v.402h2zm6.266 0v-.402h-2v.402h2zm6.725 0v-.402h-2v.402h2zm-3.362 4.794v-.401h-2v.401h2zm-6.935 0v-.401h-2v.401h2zm3.572 4.997v-.402h-2v.402h2zM40.5 1a1 1 0 10-2 0h2zm-2 15.4a1 1 0 102 0h-2zm2 46.2a1 1 0 10-2 0h2zm-2 15.4a1 1 0 102 0h-2zM12.988 11.573a1 1 0 00-1.415 1.415l1.415-1.415zm9.48 12.31a1 1 0 001.415-1.414l-1.414 1.414zm34.063 31.234a1 1 0 00-1.414 1.414l1.414-1.414zm9.481 12.31a1 1 0 001.415-1.415l-1.415 1.415zM1 38.5a1 1 0 100 2v-2zm15.4 2a1 1 0 100-2v2zm46.2-2a1 1 0 100 2v-2zm15.4 2a1 1 0 100-2v2zM11.573 66.012a1 1 0 001.415 1.415l-1.415-1.415zm12.31-9.48a1 1 0 00-1.414-1.415l1.414 1.414zm31.234-34.063a1 1 0 001.414 1.414l-1.414-1.414zm12.31-9.481a1 1 0 00-1.415-1.415l1.415 1.415zM38.5 1v15.4h2V1h-2zm0 61.6V78h2V62.6h-2zM11.573 12.988L22.47 23.883l1.414-1.414-10.895-10.896-1.415 1.415zM55.117 56.53l10.895 10.896 1.415-1.415L56.53 55.117l-1.414 1.414zM1 40.5h15.4v-2H1v2zm61.6 0H78v-2H62.6v2zM12.988 67.427L23.883 56.53l-1.414-1.414-10.896 10.895 1.415 1.415zM56.53 23.883l10.896-10.895-1.415-1.415L55.117 22.47l1.414 1.414z" fill="#8C0F28"/></svg>