<svg width="76" height="79" fill="none" xmlns="http://www.w3.org/2000/svg"><path d="M66 61.196l-.046.999.046.002.046-.002-.046-.999zm7.118 1.39l-.587.81.587-.81zm-14.236 0l.587.81-.587-.81zm12.884-5.736l.98-.203-.13-.62-.615-.15-.235.973zm-1.261 2.868l-.729-.685.729.685zM60.234 56.85l-.235-.972-.616.148-.129.62.98.204zm1.261 2.868l.729-.685-.729.685zm-1.288 6.434a1 1 0 002 0h-2zm2-.305a1 1 0 10-2 0h2zm2.793.305a1 1 0 002 0h-2zm2-.305a1 1 0 10-2 0h2zm3.143.305a1 1 0 002 0h-2zm2-.305a1 1 0 00-2 0h2zm-4.572 3.941a1 1 0 102 0h-2zm2-.304a1 1 0 10-2 0h2zm-7.303.304a1 1 0 102 0h-2zm2-.304a1 1 0 00-2 0h2zM65 73.578a1 1 0 102 0h-2zm2-.305a1 1 0 10-2 0h2zm-1-12.077l.052.999a.17.17 0 00.008 0l.035-.002.145-.005a20.482 20.482 0 012.374.083c1.479.14 3.018.474 3.917 1.126l1.174-1.62c-1.37-.992-3.389-1.353-4.902-1.497a22.473 22.473 0 00-2.835-.084l-.014.001h-.005l.051.999zm6.531 2.2c.985.714 1.447 1.778 1.468 3.097.022 1.346-.422 2.908-1.222 4.42-.796 1.506-1.908 2.894-3.136 3.894-1.24 1.009-2.511 1.557-3.641 1.557v2c1.753 0 3.46-.83 4.904-2.007 1.455-1.185 2.732-2.789 3.641-4.51.906-1.713 1.483-3.61 1.454-5.387-.03-1.802-.692-3.522-2.294-4.683l-1.174 1.62zM66 76.365c-1.13 0-2.402-.548-3.64-1.557-1.229-1-2.341-2.388-3.137-3.894-.8-1.512-1.244-3.075-1.222-4.42.022-1.32.483-2.383 1.468-3.096l-1.174-1.62c-1.602 1.16-2.264 2.88-2.294 4.683-.03 1.777.548 3.674 1.454 5.388.909 1.72 2.186 3.324 3.641 4.51 1.445 1.176 3.15 2.006 4.904 2.006v-2zm-6.531-12.967c.899-.652 2.438-.985 3.917-1.126a20.486 20.486 0 012.519-.078l.035.001h.009l.051-.998.052-.999h-.02a9.325 9.325 0 00-.218-.008 22.47 22.47 0 00-2.617.091c-1.513.144-3.533.505-4.902 1.497l1.174 1.62zM66 61.196l.712-.702a7.43 7.43 0 01-.654-.798c-.37-.523-.586-1-.59-1.295l-2 .027c.013.952.563 1.865.956 2.421a9.42 9.42 0 00.838 1.022l.017.018.006.006.002.002v.001l.713-.702zm-.532-2.795c-.005-.403.163-.944.426-1.405.127-.223.251-.383.341-.472.045-.045.061-.052.045-.042-.009.005-.11.064-.28.064v-2a1.45 1.45 0 00-.724.206 2.253 2.253 0 00-.45.353 4.25 4.25 0 00-.67.902c-.373.654-.7 1.548-.688 2.42l2-.026zM66 56.546a.561.561 0 01-.284-.066c-.016-.01 0-.002.046.044.09.09.215.252.343.477.264.465.432 1.006.427 1.4l2 .026c.01-.865-.317-1.759-.687-2.413a4.285 4.285 0 00-.668-.904 2.258 2.258 0 00-.45-.355 1.442 1.442 0 00-.727-.21v2zm.532 1.855c-.004.286-.219.762-.59 1.29a7.614 7.614 0 01-.65.798l-.007.008-.001.001.716.698c.715.699.716.699.716.698l.003-.003a.222.222 0 01.005-.005l.017-.018.058-.062a9.609 9.609 0 00.778-.964c.39-.555.942-1.47.954-2.414l-2-.027zm1 .013l.709.706h-.001l-.001.001.01-.01.053-.05a6.182 6.182 0 011.037-.76c.7-.404 1.48-.651 2.193-.48L72 55.879c-1.45-.35-2.787.186-3.664.693a8.187 8.187 0 00-1.476 1.1l-.026.025-.008.009-.003.003-.001.001.709.705zm3.255-1.361c.03.144.01.406-.172.795-.176.378-.468.791-.839 1.185l1.458 1.37c.477-.507.906-1.093 1.193-1.707.282-.603.469-1.324.319-2.05l-1.959.407zm-1.01 1.98c-.394.419-1.24.743-2.198.943a11.904 11.904 0 01-1.622.22l-.004.001.047.999.046.999h.015l.035-.003.12-.008a13.92 13.92 0 001.774-.25c.983-.206 2.389-.622 3.243-1.53l-1.457-1.37zm-6.309-.605c.013.944.564 1.859.954 2.414a9.658 9.658 0 00.837 1.026l.017.018a.222.222 0 01.007.007l.001.001.716-.698c.715-.699.716-.699.716-.698l-.009-.01a5.137 5.137 0 01-.187-.207 7.614 7.614 0 01-.462-.59c-.371-.528-.586-1.004-.59-1.29l-2 .026zm1-.014l.71-.705h-.001l-.001-.002-.003-.002-.008-.009-.026-.025a7.408 7.408 0 00-.393-.347 8.194 8.194 0 00-1.083-.753c-.877-.507-2.215-1.043-3.664-.693l.47 1.944c.712-.172 1.492.075 2.192.48a6.19 6.19 0 011.09.809l.01.01-.001-.001.708-.706zm-5.214-1.767c-.15.725.037 1.446.32 2.049.287.614.715 1.2 1.193 1.707l1.457-1.37c-.37-.394-.663-.807-.84-1.185-.181-.389-.201-.651-.171-.795l-1.959-.406zm1.513 3.756c.854.91 2.26 1.325 3.243 1.53a13.926 13.926 0 001.894.26l.034.001h.015c0 .001.001.001.047-.998l.046-.999c.001 0 0 0 0 0h-.003a2.09 2.09 0 01-.112-.007 11.899 11.899 0 01-1.51-.213c-.957-.201-1.804-.525-2.197-.944l-1.457 1.37zm1.44 5.749v-.305h-2v.305h2zm4.793 0v-.305h-2v.305h2zm5.143 0v-.305h-2v.305h2zm-2.572 3.636v-.304h-2v.304h2zm-5.303 0v-.304h-2v.304h2zM67 73.578v-.305h-2v.305h2zM10 61.196l-.046.999.046.002.046-.002-.046-.999zm7.118 1.39l-.587.81.587-.81zm-14.236 0l.587.81-.587-.81zm12.884-5.736l.98-.203-.13-.62-.615-.15-.235.973zm-1.261 2.868l-.729-.685.729.685zM4.234 56.85l-.235-.972-.616.148-.129.62.98.204zm1.261 2.868l.729-.685-.729.685zm-1.288 6.434a1 1 0 002 0h-2zm2-.305a1 1 0 10-2 0h2zM9 66.152a1 1 0 002 0H9zm2-.305a1 1 0 10-2 0h2zm3.143.305a1 1 0 002 0h-2zm2-.305a1 1 0 00-2 0h2zm-4.572 3.941a1 1 0 102 0h-2zm2-.304a1 1 0 10-2 0h2zm-7.303.304a1 1 0 102 0h-2zm2-.304a1 1 0 10-2 0h2zM9 73.578a1 1 0 102 0H9zm2-.305a1 1 0 10-2 0h2zm-1-12.077l.052.999a.17.17 0 00.008 0l.035-.002.145-.005a20.482 20.482 0 012.374.083c1.479.14 3.018.474 3.917 1.126l1.174-1.62c-1.37-.992-3.389-1.353-4.902-1.497a22.473 22.473 0 00-2.835-.084l-.014.001H9.95l.051.999zm6.531 2.2c.985.714 1.447 1.778 1.468 3.097.022 1.346-.422 2.908-1.222 4.42-.796 1.506-1.908 2.894-3.136 3.894-1.24 1.009-2.511 1.557-3.641 1.557v2c1.753 0 3.46-.83 4.904-2.007 1.455-1.185 2.732-2.789 3.641-4.51.906-1.713 1.483-3.61 1.454-5.387-.03-1.802-.692-3.522-2.294-4.683l-1.174 1.62zM10 76.365c-1.13 0-2.402-.548-3.64-1.557-1.229-1-2.341-2.388-3.137-3.894-.8-1.512-1.244-3.075-1.222-4.42.021-1.32.483-2.383 1.468-3.096l-1.174-1.62C.693 62.937.031 64.657.001 66.46c-.03 1.777.548 3.674 1.454 5.388.909 1.72 2.186 3.324 3.641 4.51 1.444 1.176 3.15 2.006 4.904 2.006v-2zM3.469 63.397c.899-.652 2.438-.985 3.917-1.126a20.484 20.484 0 012.519-.078l.035.001h.009l.051-.998.052-.999h-.02a9.287 9.287 0 00-.218-.008 22.471 22.471 0 00-2.617.091c-1.513.144-3.533.505-4.902 1.497l1.174 1.62zM10 61.196a257.23 257.23 0 01.712-.702 7.43 7.43 0 01-.654-.798c-.37-.523-.586-1-.59-1.295l-2 .027c.013.952.563 1.865.955 2.421a9.417 9.417 0 00.862 1.046l.002.002v.001l.713-.702zm-.532-2.795c-.005-.403.164-.944.426-1.405.127-.223.252-.383.341-.472.045-.045.061-.052.045-.042-.009.005-.11.064-.28.064v-2a1.45 1.45 0 00-.724.206 2.255 2.255 0 00-.45.353c-.252.25-.48.568-.67.902-.373.654-.7 1.548-.687 2.42l2-.026zM10 56.546a.561.561 0 01-.284-.066c-.016-.01 0-.002.046.044.09.09.215.252.343.477.264.465.432 1.006.427 1.4l2 .026c.01-.865-.317-1.759-.687-2.413a4.285 4.285 0 00-.668-.904 2.258 2.258 0 00-.45-.355 1.442 1.442 0 00-.727-.21v2zm.532 1.855c-.004.286-.219.762-.59 1.29a7.622 7.622 0 01-.65.798l-.007.008-.001.001.716.698c.715.699.716.699.716.698l.003-.003a.222.222 0 01.005-.005l.017-.018.058-.062a9.609 9.609 0 00.778-.964c.39-.555.942-1.47.954-2.414l-2-.027zm1 .013a171.864 171.864 0 01.708.706l-.001.001.01-.01.053-.05a6.182 6.182 0 011.037-.76c.7-.404 1.48-.651 2.193-.48L16 55.879c-1.45-.35-2.787.186-3.664.693a8.187 8.187 0 00-1.476 1.1l-.026.025-.008.009-.003.003-.001.001.709.705zm3.255-1.361c.03.144.01.406-.172.795-.176.378-.468.791-.839 1.185l1.457 1.37c.478-.507.907-1.093 1.194-1.707.282-.603.469-1.324.319-2.05l-1.959.407zm-1.01 1.98c-.394.419-1.24.743-2.198.943a11.904 11.904 0 01-1.622.22l-.004.001.047.999.046.999h.015l.035-.003.12-.008a13.92 13.92 0 001.774-.25c.983-.206 2.389-.622 3.243-1.53l-1.457-1.37zm-6.308-.605c.012.944.563 1.859.953 2.414a9.63 9.63 0 00.837 1.026l.017.018.005.005.002.002.001.001.716-.698c.715-.699.716-.699.716-.698l-.009-.01a5.137 5.137 0 01-.187-.207 7.614 7.614 0 01-.462-.59c-.371-.528-.586-1.004-.59-1.29l-2 .026zm1-.014c.709-.704.709-.705.708-.705l-.001-.002-.003-.002a4.503 4.503 0 00-.12-.115 8.184 8.184 0 00-1.39-1.019c-.877-.507-2.215-1.043-3.664-.693l.47 1.944c.712-.172 1.492.075 2.192.48a6.187 6.187 0 011.09.809l.01.01-.001-.001.708-.706zm-5.215-1.767c-.15.725.037 1.446.32 2.049.287.614.715 1.2 1.193 1.707l1.457-1.37c-.37-.394-.663-.807-.84-1.185-.181-.389-.201-.651-.171-.795l-1.959-.406zm1.513 3.756c.854.91 2.26 1.325 3.243 1.53a13.924 13.924 0 001.894.26l.034.001h.015c0 .001.001.001.047-.998l.046-.999c.001 0 0 0 0 0h-.003a2.09 2.09 0 01-.112-.007 11.899 11.899 0 01-1.51-.213c-.957-.201-1.804-.525-2.197-.944l-1.457 1.37zm1.44 5.749v-.305h-2v.305h2zm4.793 0v-.305H9v.305h2zm5.143 0v-.305h-2v.305h2zm-2.572 3.636v-.304h-2v.304h2zm-5.303 0v-.304h-2v.304h2zM11 73.578v-.305H9v.305h2zM38 61.65l-.046 1 .046.001.046-.002L38 61.65zm7.118 1.39l-.587.81.587-.81zm-14.236 0l.587.81-.587-.81zm12.884-5.736l.98-.203-.13-.62-.615-.15-.235.973zm-1.261 2.868l-.729-.685.729.685zm-10.271-2.868l-.235-.972-.616.148-.128.62.979.204zm1.261 2.868l.729-.685-.729.685zm-1.288 6.434a1 1 0 002 0h-2zm2-.305a1 1 0 10-2 0h2zm2.793.305a1 1 0 002 0h-2zm2-.305a1 1 0 10-2 0h2zm3.143.305a1 1 0 002 0h-2zm2-.305a1 1 0 00-2 0h2zm-4.572 3.941a1 1 0 102 0h-2zm2-.304a1 1 0 10-2 0h2zm-7.303.304a1 1 0 102 0h-2zm2-.304a1 1 0 00-2 0h2zM37 74.032a1 1 0 102 0h-2zm2-.305a1 1 0 10-2 0h2zM38 61.65l.052.999a.17.17 0 00.008 0l.035-.002.145-.005a20.482 20.482 0 012.374.083c1.479.14 3.018.474 3.917 1.126l1.174-1.62c-1.37-.992-3.389-1.353-4.902-1.497a22.473 22.473 0 00-2.835-.084l-.014.001h-.005l.051 1zm6.531 2.2c.985.714 1.447 1.778 1.468 3.097.022 1.346-.422 2.908-1.222 4.42-.796 1.506-1.908 2.894-3.136 3.894C40.4 76.27 39.13 76.818 38 76.818v2c1.753 0 3.46-.83 4.904-2.006 1.455-1.186 2.732-2.79 3.641-4.51.906-1.714 1.483-3.611 1.454-5.388-.03-1.802-.692-3.522-2.294-4.683l-1.174 1.62zM38 76.819c-1.13 0-2.402-.548-3.64-1.557-1.229-1-2.341-2.388-3.137-3.894-.8-1.512-1.244-3.074-1.222-4.42.021-1.32.483-2.383 1.468-3.096l-1.174-1.62c-1.602 1.16-2.264 2.88-2.294 4.683-.03 1.777.548 3.674 1.454 5.388.909 1.72 2.186 3.324 3.641 4.51 1.445 1.176 3.15 2.006 4.904 2.006v-2zm-6.531-12.967c.899-.651 2.438-.985 3.917-1.126a20.486 20.486 0 012.519-.078l.035.001h.009L38 61.65l.051-.998h-.006l-.013-.002a9.325 9.325 0 00-.218-.007 22.47 22.47 0 00-2.617.091c-1.513.144-3.533.505-4.902 1.497l1.174 1.62zM38 61.65a257.228 257.228 0 01.712-.703l.001.001-.001-.001a7.43 7.43 0 01-.654-.798c-.37-.523-.586-1-.59-1.295l-2 .027c.013.952.563 1.865.955 2.421a9.42 9.42 0 00.839 1.023l.017.017.006.006.002.002v.001L38 61.65zm-.532-2.796c-.005-.403.163-.943.426-1.404.127-.224.252-.384.341-.473.045-.045.061-.052.045-.042-.009.005-.11.064-.28.064v-2a1.45 1.45 0 00-.724.206 2.253 2.253 0 00-.45.353 4.25 4.25 0 00-.67.902c-.373.654-.7 1.548-.688 2.421l2-.027zM38 57a.561.561 0 01-.284-.066c-.016-.009 0-.002.046.044.09.09.215.252.343.477.264.465.432 1.006.427 1.4l2 .027c.01-.866-.317-1.76-.687-2.413a4.285 4.285 0 00-.668-.904 2.258 2.258 0 00-.45-.356A1.442 1.442 0 0038 55v2zm.532 1.855c-.004.286-.219.762-.59 1.29a7.614 7.614 0 01-.65.798l-.007.008-.002.002.001-.001.716.698.716.699v-.002c.001 0 .002 0 .003-.002a.222.222 0 01.005-.005l.017-.018.058-.062a9.609 9.609 0 00.779-.964c.39-.555.941-1.47.953-2.414l-2-.027zm1 .014l.709.705h-.001l-.001.001.01-.01.053-.05a6.182 6.182 0 011.037-.76c.7-.404 1.48-.651 2.193-.479L44 56.332c-1.45-.35-2.787.186-3.664.693a8.187 8.187 0 00-1.476 1.1l-.025.026-.009.008-.003.003-.001.001.709.706zm3.255-1.362c.03.144.01.406-.172.795-.176.378-.468.791-.839 1.185l1.457 1.37c.478-.507.907-1.093 1.194-1.707.282-.603.469-1.324.319-2.05l-1.959.407zm-1.01 1.98c-.394.42-1.24.743-2.198.944a11.904 11.904 0 01-1.622.22h-.004l.047 1 .046.998h.015l.035-.003.12-.008a13.92 13.92 0 001.774-.25c.983-.206 2.389-.621 3.244-1.53l-1.458-1.37zm-6.309-.605c.013.944.564 1.859.954 2.414a9.658 9.658 0 00.837 1.026l.017.018a.222.222 0 01.008.008L38 61.65a256.909 256.909 0 01.716-.698l-.009-.01a5.137 5.137 0 01-.187-.207 7.63 7.63 0 01-.462-.59c-.371-.528-.586-1.004-.59-1.29l-2 .027zm1-.014l.71-.705h-.001l-.001-.001-.003-.003-.009-.008-.025-.026a7.408 7.408 0 00-.393-.347 8.194 8.194 0 00-1.083-.753c-.877-.507-2.215-1.043-3.664-.693l.47 1.944c.712-.172 1.492.075 2.192.48a6.19 6.19 0 011.09.809l.01.01h-.001v-.001l.708-.706zm-5.214-1.767c-.15.725.037 1.446.32 2.049.286.614.715 1.2 1.192 1.707l1.458-1.37c-.37-.394-.663-.807-.84-1.185-.181-.389-.201-.651-.171-.795l-1.959-.406zm1.512 3.756c.855.91 2.261 1.325 3.244 1.53a13.926 13.926 0 001.894.26l.034.001h.01l.004.001h.001L38 61.65l.046-.999c.001 0 0 0 0 0h-.003a2.09 2.09 0 01-.112-.007 11.899 11.899 0 01-1.51-.213c-.957-.201-1.804-.525-2.197-.944l-1.457 1.37zm1.441 5.75V66.3h-2v.305h2zm4.793 0V66.3h-2v.305h2zm5.143 0V66.3h-2v.305h2zm-2.572 3.635v-.304h-2v.304h2zm-5.303 0v-.304h-2v.304h2zM39 74.032v-.305h-2v.305h2zM30.686 8.624l1-.021-1 .021zm7.455-7.622l.023-1-.023 1zm7.132 7.622l1 .022-1-.022zm-7.132 7.292l.023 1-.023-1zm-8.914 2.982l.715.7-.715-.7zm-4.052 28.437h-1a1 1 0 001 1v-1zm25.608 0v1a1 1 0 001-1h-1zm-3.566-28.437l-.715.7.715-.7zM26.16 23.787l.94.343-.94-.343zm23.97-.227l-.942.336.942-.336zM31.685 8.603c-.08-3.662 2.909-6.682 6.433-6.601l.046-2c-4.709-.107-8.582 3.888-8.478 8.644l2-.043zm6.433-6.601c3.456.078 6.233 3.013 6.155 6.6l2 .044c.1-4.649-3.509-8.54-8.11-8.644l-.045 2zm6.155 6.6c-.074 3.377-2.57 6.026-5.765 6.293l.167 1.993c4.248-.355 7.502-3.876 7.597-8.242l-2-.043zm-5.765 6.293a5.531 5.531 0 01-.39.02l.046 2c.172-.003.342-.013.511-.027l-.166-1.993zm-.39.02a6.197 6.197 0 01-.469-.006l-.105 1.997c.205.01.412.014.62.01l-.046-2zm-.469-.006c-3.242-.17-5.89-2.884-5.964-6.306l-2 .043c.097 4.44 3.542 8.033 7.86 8.26l.104-1.997zm.492 1.007l.066-.998H38.2l-.011-.001-.036-.002a10.21 10.21 0 00-.57-.007l.029 2a8.313 8.313 0 01.445.005h.02-.001l.065-.997zm-.559-1.008c-.743.01-2.272.1-3.968.54-1.686.436-3.627 1.243-5.102 2.751l1.43 1.399c1.12-1.147 2.671-1.825 4.174-2.215a15.467 15.467 0 013.496-.476l-.03-2zM25.175 48.335h25.608v-2H25.175v2zM47.932 18.2c-1.401-1.433-3.424-2.253-5.174-2.717-1.762-.466-3.407-.611-4.194-.59l.055 2c.571-.016 2.024.1 3.627.524 1.615.427 3.227 1.129 4.256 2.182l1.43-1.399zm-9.368-3.307a10.08 10.08 0 00-.474.024l-.03.003a.447.447 0 01-.014.001h-.002l.097.996.097.995h-.001.001l.015-.001.07-.006a8.13 8.13 0 01.296-.013l-.055-1.999zM28.512 18.2a14.529 14.529 0 00-3.29 5.244l1.877.687a12.526 12.526 0 012.843-4.532l-1.43-1.399zm-3.29 5.244c-.493 1.344-.784 3.236-.96 5.316-.18 2.101-.247 4.477-.26 6.833-.012 2.358.031 4.71.078 6.763.046 2.064.095 3.807.095 4.98h2c0-1.203-.05-2.986-.096-5.025-.046-2.05-.09-4.378-.077-6.707.012-2.331.08-4.648.252-6.674.174-2.048.45-3.718.845-4.799l-1.878-.687zm26.561 23.892c0-1.213.067-2.99.141-5.081.075-2.08.156-4.454.183-6.827.027-2.37 0-4.757-.146-6.866-.143-2.087-.407-3.986-.89-5.337l-1.883.672c.385 1.079.637 2.748.778 4.802.14 2.032.168 4.359.141 6.707a279.615 279.615 0 01-.181 6.778c-.074 2.07-.143 3.894-.143 5.152h2zm-.712-24.111a13.64 13.64 0 00-3.139-5.025l-1.43 1.399a11.64 11.64 0 012.686 4.298l1.883-.672z" fill="#8C0F28"/></svg>