<svg width="88" height="97" fill="none" xmlns="http://www.w3.org/2000/svg"><path d="M70.267 46.16c4.698 17.705-8.773 25.314-22.48 31.97-8.208 3.987-16.483 7.722-24.298 3.017-7.584-4.567-7.41-11.918-8.212-20.736-1.39-15.26-.17-28.533 15.805-36.541a13.816 13.816 0 013.942-.59s-5.535-10.196-.941-14.8c6.53 1.052 10.48 5.962 10.48 5.962.78-2.112 2.135-4.28 4.38-6.271 10.042 7.103 7.818 16.01 5.939 20.226.13-.2.272-.406.424-.618 2.727-3.799 8.942-9.235 20.495-4.33-.558 2.42-2.126 4.626-3.98 6.499 0 0 7.881.53 11.762 6.69-4.32 7.594-15.205 5.614-15.205 5.614.86 1.362 1.567 2.694 1.89 3.907z" fill="snow"/><path d="M63.453 15.48a1 1 0 10-1.739-.99l1.739.99zm6.814 30.68l.967-.257-.967.256zm-22.48 31.97l.437.9-.436-.9zM23.49 81.147l.516-.857-.516.857zM15.277 60.41l-.996.09.996-.09zm15.805-36.54l-.294-.956-.08.024-.074.038.448.894zm13.605 1.897l-.495.869.495-.87zM48.943 8.17l.577-.817a1 1 0 00-1.241.069l.664.748zm-4.38 6.271l.938.346-.938-.346zM34.083 8.48l.159-.988a1 1 0 00-.867.281l.708.707zm.941 14.798l.01 1-.01-1zm40.777.17l.974.225a1 1 0 00-.583-1.146l-.39.92zm7.782 13.19l.87.493.295-.52-.319-.507-.846.533zm-15.205 5.613l-.846.533.846-.533zM54.444 31.317l.96-1.69-1.738-.988-.96 1.689 1.738.989zm.96-1.69l.771-1.354-1.738-.989-.77 1.355 1.738.989zm.771-1.354l7.278-12.793-1.739-.99-7.277 12.794 1.738.99zm13.126 18.143c1.138 4.291 1.162 7.914.392 11.033-.77 3.118-2.348 5.793-4.504 8.167-4.346 4.784-10.966 8.277-17.838 11.615l.873 1.799c6.834-3.319 13.803-6.959 18.445-12.07 2.338-2.573 4.103-5.536 4.966-9.032.863-3.496.809-7.463-.401-12.025l-1.933.513zM47.35 77.23c-4.118 2-8.132 3.873-12.063 4.688-3.892.806-7.643.562-11.283-1.63l-1.032 1.714c4.175 2.514 8.47 2.755 12.72 1.874 4.213-.873 8.441-2.86 12.531-4.847l-.873-1.8zm-23.345 3.06c-3.543-2.133-5.257-4.885-6.204-8.192-.97-3.392-1.119-7.285-1.528-11.778l-1.992.181c.394 4.326.559 8.518 1.598 12.147 1.063 3.715 3.053 6.922 7.094 9.355l1.032-1.713zm-7.732-19.97c-.692-7.603-.715-14.559 1.341-20.576 2.037-5.96 6.146-11.085 13.916-14.98l-.896-1.788c-8.205 4.113-12.694 9.629-14.912 16.121-2.2 6.437-2.138 13.747-1.44 21.404l1.99-.181zm27.92-33.684l8.887 5.056.99-1.739-8.889-5.056-.989 1.739zm4.172-17.649c4.808 3.4 6.6 7.16 7.026 10.506.433 3.39-.522 6.478-1.422 8.497l1.826.814c.98-2.197 2.077-5.671 1.58-9.564-.502-3.938-2.62-8.183-7.855-11.886l-1.155 1.633zM53.97 27.99c-.112.25-.223.485-.33.699l1.792.889c.118-.238.24-.496.364-.774l-1.826-.814zm-.33.699c-.251.507-.478.905-.64 1.174a10.708 10.708 0 01-.235.372l-.01.016-.002.002h.001l.822.57.821.57v-.001l.001-.001.002-.003a.325.325 0 00.006-.009l.019-.027a9.106 9.106 0 00.289-.457c.186-.31.44-.755.718-1.317l-1.791-.89zm-8.952-2.922l.921-.388c0 .001 0 0 0 0l-.002-.006a4.809 4.809 0 01-.074-.195 11.859 11.859 0 01-.212-.642 16.443 16.443 0 01-.52-2.37c-.286-1.986-.31-4.64.7-7.378l-1.876-.692c-1.16 3.141-1.121 6.15-.803 8.356.16 1.105.39 2.019.583 2.66a13.9 13.9 0 00.35 1.017l.007.017.003.005v.003c.001 0 .001.001.923-.387zm.814-10.979c.724-1.96 1.986-3.989 4.105-5.87L48.28 7.424c-2.37 2.103-3.819 4.41-4.655 6.673l1.877.692zm-.938-.346l.778-.627v-.001l-.002-.002a4.995 4.995 0 00-.016-.02l-.042-.05a15.215 15.215 0 00-.728-.788 20.216 20.216 0 00-2.18-1.897c-1.889-1.423-4.658-3.004-8.131-3.564l-.318 1.975c3.056.492 5.526 1.891 7.245 3.186.858.646 1.52 1.26 1.964 1.708a13.132 13.132 0 01.619.669l.027.032a.554.554 0 01.005.007l.779-.628zM31.377 24.826a12.814 12.814 0 013.657-.547l-.02-2a14.828 14.828 0 00-4.226.635l.589 1.912zm3.657-.547c2.444-.023 4.738.563 6.437 1.167.846.301 1.534.603 2.009.828a15.434 15.434 0 01.675.341l.031.018.007.003.494-.87.494-.869-.002-.001a.062.062 0 00-.005-.002l-.013-.008-.046-.025a17.21 17.21 0 00-.778-.393 23.62 23.62 0 00-2.196-.906c-1.831-.652-4.368-1.31-7.126-1.283l.019 2zm-1.66-16.505c-1.362 1.367-1.939 3.119-2.079 4.882-.139 1.755.148 3.58.568 5.201.422 1.628.99 3.098 1.451 4.156a28.706 28.706 0 00.762 1.612l.05.095c.006.01.01.02.014.025l.004.008v.002h.001c0 .001 0 .002.88-.476l.878-.476c0-.001 0-.003-.002-.004l-.01-.018a26.696 26.696 0 01-.743-1.565 26.624 26.624 0 01-1.349-3.86c-.39-1.504-.625-3.09-.51-4.542.114-1.443.568-2.692 1.502-3.627l-1.416-1.413zm20.2 23.048l.934.36c0 .001 0 .001 0 0l.001-.003.01-.026.05-.117c.045-.105.117-.264.216-.465a15.5 15.5 0 01.934-1.626l-1.674-1.096a17.64 17.64 0 00-1.054 1.838 12.545 12.545 0 00-.341.755l-.006.014-.002.004v.003l.933.36zm2.145-1.877c.123-.189.256-.383.4-.583l-1.626-1.166c-.16.223-.31.442-.448.653l1.674 1.096zm.4-.583c1.29-1.8 3.38-3.943 6.468-5.073 3.064-1.12 7.242-1.29 12.823 1.08l.782-1.84c-5.971-2.536-10.678-2.44-14.291-1.118-3.59 1.312-5.972 3.785-7.408 5.785l1.625 1.166zm-3.039 3.33l9.472 5.388.989-1.739-9.472-5.388-.989 1.739zm21.747-8.468c-.5 2.162-1.924 4.21-3.716 6.02l1.421 1.407c1.916-1.935 3.626-4.3 4.243-6.977l-1.948-.45zm-3.716 6.02c-1.822 1.841-3.947 3.36-5.632 4.426-.84.53-1.563.943-2.074 1.223a27.47 27.47 0 01-.796.418h-.001l.439.9.438.898.002-.001.004-.002.013-.006.047-.024a21.516 21.516 0 00.813-.428 40.808 40.808 0 002.183-1.288c1.755-1.109 4.018-2.72 5.985-4.709l-1.421-1.407zm.71.704l-.067.997h-.001.001l.011.001a5.325 5.325 0 01.285.03c.204.024.507.066.884.135.756.138 1.805.383 2.968.81 2.336.86 5.054 2.423 6.835 5.25l1.692-1.066c-2.1-3.333-5.262-5.114-7.837-6.06a20.145 20.145 0 00-3.299-.902 16.46 16.46 0 00-1.29-.184 5.715 5.715 0 00-.08-.006l-.023-.002h-.01l-.068.997zm-9.402 7.04c1.996 1.61 3.802 3.72 5.113 5.797l1.691-1.067c-1.415-2.243-3.364-4.524-5.549-6.286l-1.255 1.557zm5.113 5.797c.846 1.342 1.487 2.57 1.769 3.63l1.933-.512c-.362-1.365-1.138-2.802-2.01-4.185l-1.692 1.067zm15.182-6.641c-1.941 3.412-5.377 4.724-8.492 5.158a20.432 20.432 0 01-5.566-.018 5.736 5.736 0 01-.097-.016h-.003l-.178.984c-.18.984-.179.984-.178.984h.004l.008.002.03.005.104.017a20.793 20.793 0 001.738.18c1.135.07 2.7.082 4.414-.157 3.408-.474 7.575-1.968 9.954-6.15l-1.738-.99z" fill="#8C0F28"/><path d="M42.31 44.35a6.69 6.69 0 015.285 5.285M42.31 38.998a12.042 12.042 0 0110.636 10.623M51.61 60.298v4.013a2.675 2.675 0 01-2.917 2.676 26.479 26.479 0 01-11.546-4.107 26.09 26.09 0 01-8.028-8.028 26.476 26.476 0 01-4.107-11.6 2.674 2.674 0 012.662-2.916h4.014a2.676 2.676 0 012.676 2.301 17.18 17.18 0 00.936 3.76 2.676 2.676 0 01-.602 2.823l-1.699 1.699a21.407 21.407 0 008.028 8.027l1.699-1.699a2.676 2.676 0 012.823-.602 17.21 17.21 0 003.76.937 2.675 2.675 0 012.3 2.716z" stroke="#8C0F28" stroke-width="2" stroke-linecap="round" stroke-linejoin="round"/></svg>