<svg width="91" height="97" fill="none" xmlns="http://www.w3.org/2000/svg"><path d="M71.545 48.197c3.515 17.978-10.43 24.677-24.547 30.412-8.454 3.434-16.959 6.613-24.445 1.4-7.265-5.058-6.604-12.382-6.82-21.234-.376-15.318 1.719-28.481 18.19-35.414a13.814 13.814 0 013.972-.328s-4.847-10.54.04-14.829c6.446 1.481 10.063 6.643 10.063 6.643.918-2.056 2.414-4.129 4.785-5.968 9.55 7.752 6.742 16.493 4.587 20.575a17.4 17.4 0 01.464-.588c2.973-3.61 9.535-8.622 20.737-2.964-.717 2.377-2.427 4.476-4.4 6.221 0 0 7.827 1.052 11.292 7.455-4.814 7.291-15.544 4.594-15.544 4.594.767 1.416 1.386 2.793 1.626 4.025z" fill="snow"/><path d="M66.778 17.133a1 1 0 00-1.67-1.102l1.67 1.102zm4.767 31.064l.982-.192-.982.191zM46.998 78.608l.376.926-.376-.926zm-24.445 1.4l.571-.82-.571.82zm-6.82-21.234l-1 .024 1-.024zm18.19-35.414l-.23-.973-.082.019-.076.032.388.922zm13.449 2.793l-.551.835.55-.835zM52.783 8.88l.63-.776a1 1 0 00-1.242-.014l.612.79zm-4.785 5.968l.913.407-.913-.407zM37.936 8.204l.224-.974a1 1 0 00-.884.223l.66.751zm-.04 14.829l-.057.998.056-.998zm40.675 2.87l.957.288a1 1 0 00-.506-1.181l-.45.892zm6.892 13.675l.834.55.33-.5-.285-.526-.88.476zm-15.544 4.594l-.88.477.88-.477zM56.739 32.34l1.071-1.622-1.669-1.102-1.07 1.622 1.669 1.102zm1.071-1.622l.859-1.3-1.67-1.102-.858 1.3 1.67 1.102zm.859-1.3l8.109-12.284-1.67-1.102L57 28.315l1.669 1.101zm11.895 18.971c.852 4.358.636 7.974-.339 11.035-.975 3.06-2.727 5.625-5.035 7.851-4.653 4.486-11.49 7.533-18.568 10.408l.752 1.853c7.039-2.859 14.233-6.03 19.204-10.821 2.503-2.413 4.46-5.253 5.553-8.684 1.092-3.43 1.301-7.394.396-12.025l-1.963.383zM46.622 77.682c-4.242 1.723-8.37 3.326-12.347 3.879-3.937.547-7.664.055-11.15-2.373l-1.143 1.642c4 2.785 8.268 3.31 12.568 2.712 4.26-.592 8.611-2.296 12.824-4.007l-.752-1.853zm-23.498 1.506c-3.393-2.362-4.922-5.222-5.647-8.584-.744-3.449-.634-7.343-.745-11.854l-2 .05c.107 4.342-.006 8.535.79 12.226.815 3.777 2.588 7.108 6.46 9.804l1.142-1.642zM16.732 58.75c-.187-7.632.25-14.574 2.7-20.441 2.428-5.813 6.867-10.654 14.879-14.026l-.776-1.844C25.075 26 20.23 31.206 17.587 37.538c-2.62 6.276-3.043 13.575-2.854 21.261l1.999-.049zm30.089-31.76l8.533 5.633 1.102-1.669-8.534-5.633-1.101 1.669zm5.332-17.333c4.572 3.71 6.11 7.58 6.315 10.947.207 3.412-.95 6.43-1.982 8.384l1.769.934c1.122-2.127 2.447-5.521 2.21-9.439-.24-3.962-2.073-8.338-7.051-12.38l-1.26 1.554zm4.333 19.331c-.128.244-.254.47-.375.676l1.73 1.006c.133-.23.272-.48.414-.748l-1.769-.934zm-.375.676c-.284.49-.537.872-.716 1.13a10.516 10.516 0 01-.273.372h.001a490.954 490.954 0 011.564 1.246l.002-.002.002-.002.006-.008a5.215 5.215 0 00.092-.12 18.474 18.474 0 001.052-1.61l-1.73-1.006zm-8.74-3.509a153.736 153.736 0 01.946-.325l-.002-.006-.012-.037a11.877 11.877 0 01-.219-.818 16.45 16.45 0 01-.36-2.398c-.155-2.002-.003-4.65 1.187-7.316l-1.826-.815c-1.366 3.058-1.527 6.063-1.356 8.285.086 1.113.256 2.04.407 2.692a13.842 13.842 0 00.281 1.038l.006.017.002.006v.002l.001.001.946-.326zm1.54-10.9c.852-1.908 2.246-3.849 4.485-5.585l-1.225-1.58c-2.505 1.941-4.103 4.147-5.086 6.35l1.826.815zm-.913-.407c.819-.574.818-.575.818-.575l-.002-.003a.67.67 0 01-.003-.005l-.011-.015a6.248 6.248 0 00-.18-.24c-.121-.157-.3-.379-.533-.647a20.213 20.213 0 00-2.05-2.038c-1.79-1.545-4.449-3.306-7.877-4.094l-.448 1.949c3.016.693 5.389 2.253 7.018 3.659a18.21 18.21 0 011.847 1.834 13.156 13.156 0 01.573.709l.025.034.004.006.819-.574zm-13.845 9.487a12.815 12.815 0 013.686-.303l.113-1.997a14.813 14.813 0 00-4.26.354l.461 1.946zm3.686-.303c2.44.139 4.69.875 6.345 1.591a21.64 21.64 0 011.95.96 15.168 15.168 0 01.688.408c-.001 0-.001-.001.55-.835l.55-.835-.002-.002a.135.135 0 01-.004-.002l-.013-.009-.044-.028a17.279 17.279 0 00-.75-.444 23.625 23.625 0 00-2.131-1.049c-1.784-.771-4.273-1.596-7.026-1.752l-.113 1.997zm-.563-16.578c-1.45 1.273-2.142 2.983-2.398 4.733-.255 1.742-.09 3.582.222 5.227a28.617 28.617 0 001.173 4.243 28.485 28.485 0 00.696 1.757l.012.026.004.008.001.002v.001l.91-.417.908-.418-.002-.004-.008-.018a12.7 12.7 0 01-.174-.404 26.51 26.51 0 01-.464-1.207 26.625 26.625 0 01-1.091-3.941c-.29-1.526-.42-3.125-.208-4.565.21-1.433.745-2.649 1.738-3.52l-1.319-1.503zm18.63 24.335l.907.42-.001.001.002-.004.012-.025a10.614 10.614 0 01.304-.563 15.29 15.29 0 011.039-1.56l-1.597-1.205a17.485 17.485 0 00-1.174 1.764 12.596 12.596 0 00-.399.749v.001l-.001.001.907.42zm2.263-1.732c.135-.18.28-.365.437-.555l-1.544-1.271c-.175.213-.338.42-.49.622l1.597 1.204zm.437-.555c1.408-1.71 3.634-3.71 6.79-4.633 3.132-.915 7.312-.807 12.724 1.927l.902-1.785c-5.79-2.925-10.493-3.14-14.186-2.062-3.668 1.072-6.21 3.382-7.774 5.282l1.544 1.271zm-3.252 3.121l9.094 6.004 1.102-1.67-9.094-6.003-1.102 1.67zm22.26-7.009c-.641 2.125-2.198 4.073-4.107 5.762l1.326 1.497c2.039-1.803 3.902-4.05 4.695-6.68l-1.914-.579zm-4.107 5.762c-1.94 1.716-4.16 3.091-5.912 4.042a38.54 38.54 0 01-2.15 1.083 27.35 27.35 0 01-.813.361l-.01.004h-.001a412.58 412.58 0 01.757 1.852l.002-.001.004-.002.013-.005a7.433 7.433 0 00.229-.098c.155-.067.38-.166.66-.296.56-.26 1.347-.643 2.263-1.14 1.824-.99 4.189-2.449 6.284-4.303l-1.326-1.497zm.663.748l-.134.992.012.001.054.008a14.532 14.532 0 011.101.233c.745.188 1.776.503 2.908 1.006 2.274 1.012 4.882 2.752 6.472 5.69l1.76-.951c-1.875-3.464-4.913-5.451-7.42-6.566a20.15 20.15 0 00-3.231-1.118 16.519 16.519 0 00-1.276-.269 4.862 4.862 0 00-.101-.015l-.007-.001h-.003c-.001 0-.002 0-.135.99zm-9.849 6.403c1.886 1.739 3.548 3.963 4.719 6.123l1.758-.953c-1.264-2.332-3.057-4.737-5.12-6.64l-1.356 1.47zm4.719 6.123c.755 1.394 1.313 2.662 1.524 3.74l1.963-.384c-.271-1.386-.95-2.872-1.729-4.31l-1.758.954zm15.588-5.622c-2.162 3.276-5.678 4.358-8.814 4.585a20.43 20.43 0 01-5.554-.387 6.016 6.016 0 01-.078-.018l-.017-.004h-.003l-.243.97a117.911 117.911 0 00-.242.97h.003l.009.002.029.008.103.023c.088.02.215.048.376.08a22.43 22.43 0 005.761.352c3.432-.25 7.688-1.464 10.34-5.48l-1.67-1.101z" fill="#8C0F28"/><path d="M53 48L39.25 62 33 55.636" stroke="#8C0F28" stroke-width="2" stroke-linecap="round" stroke-linejoin="round"/></svg>