<svg width="87" height="95" fill="none" xmlns="http://www.w3.org/2000/svg"><path d="M55.397 23.757c17.511 5.38 16.843 20.836 15.242 35.989-.959 9.075-2.166 18.073-10.293 22.216-7.887 4.021-14.033-.016-21.942-3.999C24.72 71.07 14.1 63.015 15.754 45.222a13.816 13.816 0 011.584-3.658s-11.58-.696-13.057-7.029c4.346-4.985 10.603-5.74 10.603-5.74-1.38-1.779-2.503-4.076-3.006-7.035 11.34-4.766 17.723 1.834 20.307 5.659-.1-.217-.201-.446-.3-.687-1.782-4.324-3.107-12.474 7.166-19.684 1.758 1.754 2.801 4.251 3.41 6.815 0 0 4.62-6.407 11.9-6.442 4.159 7.682-3.28 15.873-3.28 15.873 1.611-.009 3.116.095 4.316.463z" fill="snow"/><path d="M25.756 13.313a1 1 0 10-1.759.952l1.76-.953zm29.641 10.444l.294-.956-.294.956zM70.64 59.746l.994.105-.994-.105zM60.346 81.962l-.454-.89.454.89zm-21.942-3.999l-.45.893.45-.893zm-22.65-32.741l-.967-.256-.02.08-.009.083.996.093zm8.806-10.543l.476.88-.476-.88zM11.878 21.76l-.387-.922a1 1 0 00-.598 1.09l.985-.168zm3.006 7.035l.79-.613-.79.613zM4.28 34.535l-.754-.657a1 1 0 00-.22.884l.974-.227zm13.057 7.029l.854.52-.854-.52zM39.051 7.048l.706-.708a1 1 0 00-1.28-.11l.574.818zm15.31.373l.879-.477-.286-.526-.599.003.005 1zm-3.28 15.873l.006 1-.006-1zm-16.65 6.04l-.925-1.708-1.759.952.925 1.71 1.76-.953zm-.925-1.708l-.742-1.37-1.759.952.742 1.37 1.759-.952zm-.742-1.37l-7.008-12.944-1.759.953 7.008 12.943 1.759-.952zm22.34-1.543c4.244 1.304 7.33 3.2 9.57 5.503s3.675 5.057 4.549 8.143c1.761 6.218 1.224 13.684.421 21.282l1.99.21c.797-7.555 1.395-15.394-.487-22.037-.948-3.345-2.529-6.41-5.039-8.992-2.51-2.582-5.906-4.635-10.417-6.02l-.588 1.911zm14.54 34.928c-.48 4.553-1.014 8.95-2.402 12.717-1.374 3.73-3.565 6.784-7.35 8.713l.908 1.782c4.342-2.213 6.818-5.73 8.319-9.804 1.487-4.036 2.037-8.676 2.514-13.198l-1.989-.21zm-9.753 21.43c-3.683 1.879-6.926 1.878-10.233.932-3.392-.97-6.774-2.903-10.804-4.933l-.9 1.786c3.88 1.954 7.524 4.031 11.154 5.07 3.715 1.063 7.49 1.07 11.692-1.073l-.908-1.781zM38.855 77.07c-6.818-3.434-12.733-7.094-16.752-12.022-3.981-4.882-6.157-11.079-5.352-19.734l-1.992-.185c-.85 9.139 1.458 15.866 5.794 21.183 4.299 5.272 10.536 9.086 17.403 12.544l.9-1.786zM25.036 35.559l8.992-4.869-.952-1.758-8.992 4.868.952 1.759zm-12.77-12.877c5.429-2.281 9.567-1.813 12.632-.405 3.106 1.426 5.221 3.87 6.458 5.701l1.657-1.12c-1.346-1.993-3.714-4.761-7.28-6.399-3.608-1.657-8.331-2.105-14.242.38l.775 1.843zm19.09 5.296c.154.228.294.446.42.65l1.701-1.051a20.317 20.317 0 00-.463-.718l-1.658 1.12zm.42.65c.297.481.515.884.657 1.163a10.484 10.484 0 01.192.397l.008.017v.002a411.12 411.12 0 011.837-.792v-.002l-.002-.003-.004-.01-.014-.03a12.47 12.47 0 00-.235-.487 18.483 18.483 0 00-.738-1.306l-1.701 1.05zm-7.216 6.051l.158-.987h.002-.008l-.038-.008a11.877 11.877 0 01-.824-.193 16.446 16.446 0 01-2.285-.812c-1.838-.808-4.102-2.19-5.891-4.497l-1.58 1.226c2.052 2.646 4.626 4.205 6.666 5.102 1.022.45 1.92.736 2.566.912a13.803 13.803 0 001.048.24l.018.003.006.001h.003s.001.001.159-.986zm-8.886-6.497c-1.281-1.651-2.335-3.796-2.81-6.59l-1.971.336c.53 3.124 1.722 5.574 3.2 7.48l1.58-1.226zm-.79.613l-.121-.993h-.003l-.006.001-.02.003-.064.009a15.13 15.13 0 00-1.053.2c-.693.158-1.658.421-2.764.847-2.207.85-5.014 2.364-7.326 5.016l1.508 1.314c2.034-2.333 4.528-3.69 6.537-4.463a18.222 18.222 0 012.488-.763 13.233 13.233 0 01.944-.179h.001c-.001 0-.002 0-.121-.992zm1.837 16.682c.325-1.23.843-2.363 1.471-3.392l-1.707-1.042a14.816 14.816 0 00-1.698 3.923l1.934.511zm1.471-3.392c1.273-2.087 2.983-3.724 4.395-4.846a21.634 21.634 0 011.765-1.267A15.2 15.2 0 0125 35.58l.031-.017.006-.003h.001l-.477-.88-.477-.879-.002.002-.004.002-.013.007a5.473 5.473 0 00-.21.12c-.138.081-.337.201-.581.358-.49.313-1.166.777-1.93 1.384-1.522 1.21-3.422 3.016-4.858 5.37l1.707 1.042zM3.307 34.762c.439 1.88 1.62 3.296 3.043 4.347 1.416 1.047 3.117 1.769 4.715 2.27a28.62 28.62 0 004.294.966 28.65 28.65 0 001.771.206 13.571 13.571 0 00.136.01h.011v.001l.061-.998.06-.998h-.004l-.02-.002a26.532 26.532 0 01-1.721-.197 26.623 26.623 0 01-3.99-.897c-1.482-.464-2.953-1.104-4.124-1.969-1.164-.86-1.984-1.906-2.284-3.193l-1.948.454zm30.245-4.951a347.154 347.154 0 01.798-.602l.001.001-.003-.004a15.525 15.525 0 01-1.256-2.208l-1.815.84c.368.794.73 1.428 1.003 1.868a12.598 12.598 0 00.46.689l.008.012.004.004v.001h.001l.799-.601zm-.46-2.813a16.59 16.59 0 01-.283-.647l-1.849.762c.105.255.212.497.317.726l1.815-.84zm-.283-.647c-.843-2.048-1.558-4.955-.883-8.173.67-3.193 2.736-6.828 7.7-10.311l-1.15-1.637C33.166 9.956 30.76 14 29.97 17.767c-.785 3.74.053 7.07.991 9.346l1.85-.762zm1.219 4.34l9.583-5.189-.953-1.759-9.582 5.189.952 1.758zm4.317-22.935c1.57 1.567 2.555 3.86 3.144 6.338l1.945-.462c-.629-2.649-1.732-5.352-3.677-7.292l-1.412 1.416zm3.144 6.338c.598 2.52.764 5.127.776 7.12.006.994-.026 1.826-.06 2.408a27.41 27.41 0 01-.06.845l-.004.042-.001.009v.002a488.675 488.675 0 011.99.205v-.006l.001-.014a11.255 11.255 0 00.022-.248c.014-.169.032-.413.05-.722a40.52 40.52 0 00.062-2.533c-.013-2.076-.184-4.848-.83-7.57l-1.947.462zm.972-.231l.811.585.007-.009a14.452 14.452 0 01.758-.905 18.19 18.19 0 012.258-2.09c1.964-1.528 4.729-3.007 8.07-3.023l-.01-2c-3.938.019-7.123 1.76-9.288 3.445a20.148 20.148 0 00-2.51 2.322 16.558 16.558 0 00-.839.999 6.89 6.89 0 00-.06.082c-.003.002-.004.004-.005.006l-.002.002.81.586zm1.002 11.704c2.422-.842 5.168-1.26 7.624-1.273l-.011-2c-2.653.015-5.619.462-8.27 1.384l.657 1.89zm7.624-1.273c1.586-.009 2.967.097 4.016.42l.588-1.913c-1.35-.414-2.98-.516-4.615-.507l.011 2zm2.394-16.397c1.869 3.451 1.166 7.062-.114 9.934a20.433 20.433 0 01-2.748 4.463 12.533 12.533 0 01-.265.313c-.005.006-.01.01-.011.013l-.002.002.74.672.741.672.001-.001.002-.002a.325.325 0 00.006-.007l.02-.022.07-.08a20.837 20.837 0 001.073-1.38 22.435 22.435 0 002.2-3.829c1.4-3.143 2.337-7.47.046-11.7l-1.76.952z" fill="#8C0F28"/><path d="M45.483 37.997l4.475 9.216 10.008 1.486-7.242 7.17 1.71 10.128-8.951-4.784-8.95 4.784L38.24 55.87 31 48.699l10.008-1.486 4.475-9.216z" stroke="#8C0F28" stroke-width="2" stroke-linecap="round" stroke-linejoin="round"/></svg>