<svg width="94" height="97" fill="none" xmlns="http://www.w3.org/2000/svg"><path d="M73.213 51.827c.959 18.293-13.788 22.972-28.57 26.67-8.852 2.215-17.718 4.17-24.4-2.04-6.483-6.028-4.802-13.186-3.776-21.982 1.776-15.22 5.696-27.959 22.977-32.513a13.815 13.815 0 013.979.232S40.1 11.079 45.542 7.517c6.174 2.37 9.031 7.988 9.031 7.988 1.197-1.907 2.97-3.75 5.575-5.238 8.37 9.015 4.363 17.276 1.657 21.015.17-.168.35-.342.542-.518 3.45-3.157 10.65-7.2 20.948-.026-1.044 2.253-3.031 4.09-5.23 5.543 0 0 7.603 2.138 10.136 8.964-5.788 6.544-16.035 2.37-16.035 2.37.562 1.509.98 2.959 1.047 4.212z" fill="snow"/><path d="M72.847 20.401a1 1 0 10-1.498-1.325l1.498 1.325zm.366 31.426l.998-.052-.998.052zm-28.57 26.67l.243.97-.242-.97zm-24.4-2.04l.681-.733-.68.732zm-3.776-21.982l-.993-.116.993.116zm22.977-32.513l-.092-.996-.083.008-.08.02.255.968zm12.924 4.651l-.663.75.663-.75zm7.78-16.346l.733-.68a1 1 0 00-1.228-.188l.495.868zm-5.575 5.238l.847.531-.847-.531zm-9.031-7.988l.358-.933a1 1 0 00-.906.097l.548.836zm-2.12 14.677l-.195.98.196-.98zm39.873 8.544l.907.42a1 1 0 00-.336-1.24l-.571.82zM88.2 45.245l.749.662.397-.449-.209-.561-.938.348zm-16.035 2.37l-.937.348.937-.349zM60.776 34.05l1.288-1.456-1.498-1.325-1.288 1.456 1.498 1.325zm1.288-1.456l1.032-1.167-1.498-1.325-1.032 1.167 1.498 1.325zm1.032-1.167l9.75-11.026-1.497-1.325-9.751 11.026 1.498 1.325zm9.118 20.452c.232 4.434-.489 7.985-1.883 10.878-1.394 2.894-3.489 5.188-6.087 7.068-5.235 3.79-12.431 5.847-19.843 7.702l.485 1.94c7.37-1.844 14.938-3.974 20.531-8.022 2.817-2.038 5.153-4.575 6.716-7.82 1.563-3.243 2.325-7.138 2.078-11.85l-1.997.104zM44.4 77.527c-4.442 1.111-8.754 2.12-12.769 2.11-3.975-.011-7.596-1.02-10.708-3.913l-1.361 1.465c3.57 3.318 7.722 4.436 12.064 4.447 4.301.011 8.848-1.065 13.26-2.169l-.486-1.94zm-23.477-1.803c-3.028-2.816-4.14-5.86-4.387-9.292-.253-3.519.4-7.36.924-11.84l-1.987-.233c-.503 4.315-1.203 8.45-.932 12.217.277 3.854 1.566 7.4 5.02 10.613l1.362-1.465zM17.461 54.59c.885-7.583 2.291-14.395 5.54-19.86 3.218-5.416 8.292-9.587 16.697-11.802l-.51-1.934c-8.875 2.339-14.4 6.815-17.906 12.713-3.476 5.847-4.917 13.015-5.808 20.651l1.987.232zm34.244-27.229l7.66 6.774 1.325-1.498-7.66-6.774-1.325 1.498zm7.71-16.414c4.007 4.316 4.988 8.363 4.718 11.725-.273 3.407-1.842 6.232-3.138 8.023l1.62 1.172c1.41-1.949 3.198-5.123 3.512-9.035.317-3.957-.883-8.547-5.246-13.246l-1.465 1.36zm1.58 19.748c-.161.223-.317.429-.466.617L62.1 32.55a20.9 20.9 0 00.515-.683l-1.62-1.172zm-.466.617c-.35.445-.654.788-.867 1.017a10.618 10.618 0 01-.307.317l-.013.012-.002.002.687.726.687.727.002-.001.002-.003.008-.007.024-.023.083-.083c.07-.07.17-.173.293-.305.246-.264.586-.649.974-1.141l-1.57-1.238zm-8.161-4.7l.982-.19v.001l-.002-.007c0-.007-.003-.02-.006-.038a11.929 11.929 0 01-.102-.84 16.451 16.451 0 01-.021-2.426c.127-2.003.649-4.604 2.201-7.076l-1.694-1.064c-1.78 2.836-2.361 5.79-2.503 8.013a18.44 18.44 0 00.024 2.723 13.889 13.889 0 00.134 1.067l.003.018.002.006v.003l.982-.19zm3.052-10.576c1.111-1.77 2.764-3.496 5.224-4.901l-.991-1.737c-2.752 1.571-4.644 3.531-5.927 5.574l1.694 1.063zm-.847-.532a130.444 130.444 0 00.89-.455v-.002l-.003-.006-.009-.017a15.094 15.094 0 00-.58-.978 20.207 20.207 0 00-1.745-2.305c-1.556-1.78-3.941-3.897-7.226-5.158l-.716 1.867c2.89 1.11 5.02 2.986 6.436 4.607a18.212 18.212 0 011.57 2.075 13.08 13.08 0 01.492.826l.891-.454zm-15.038 7.452a12.817 12.817 0 013.692.217l.392-1.96a14.818 14.818 0 00-4.267-.248l.183 1.991zm3.692.217c2.396.48 4.52 1.524 6.06 2.465a21.67 21.67 0 011.795 1.223 15.374 15.374 0 01.591.473l.027.023.006.005.662-.75a172.24 172.24 0 00.661-.75l-.005-.004-.01-.01-.04-.034-.145-.121a17.279 17.279 0 00-.536-.424 23.675 23.675 0 00-1.963-1.337c-1.659-1.014-4.007-2.18-6.711-2.72l-.392 1.961zM44.994 6.68c-1.615 1.057-2.539 2.653-3.038 4.35-.497 1.689-.591 3.534-.513 5.207a28.62 28.62 0 00.566 4.366 28.711 28.711 0 00.415 1.733l.029.103.008.028a1.647 1.647 0 00.003.012l.959-.286.958-.286-.001-.005c-.002-.003-.003-.01-.006-.02a10.511 10.511 0 01-.115-.424 25.678 25.678 0 01-.29-1.26 26.62 26.62 0 01-.528-4.054c-.073-1.552.023-3.153.434-4.55.408-1.388 1.109-2.517 2.215-3.24L44.993 6.68zm15.033 26.706l.84.544c-.001.001-.001.001 0 0l.002-.003.015-.023.072-.104a15.067 15.067 0 011.555-1.81L61.1 30.573c-.62.618-1.09 1.175-1.41 1.582a12.8 12.8 0 00-.5.686v.001h-.001l.84.544zm2.484-1.397c.16-.159.33-.322.511-.488l-1.35-1.475c-.203.186-.394.369-.573.547l1.412 1.416zm.511-.488c1.634-1.495 4.119-3.165 7.373-3.635 3.23-.467 7.353.226 12.328 3.691l1.143-1.64c-5.323-3.709-9.949-4.581-13.757-4.03-3.782.546-6.622 2.477-8.437 4.139l1.35 1.475zm-3.657 2.634l8.163 7.22 1.325-1.499-8.163-7.219-1.325 1.498zm23.022-3.818c-.932 2.013-2.747 3.724-4.873 5.128l1.102 1.67c2.272-1.501 4.431-3.465 5.586-5.958l-1.815-.84zm-4.873 5.128c-2.162 1.428-4.554 2.478-6.422 3.174a38.47 38.47 0 01-2.28.77 27.157 27.157 0 01-.815.233l-.04.011-.01.002h-.002l.245.97.245.97h.002a40.538 40.538 0 003.354-1.082c1.945-.725 4.49-1.837 6.825-3.379l-1.102-1.669zm.55.835l-.27.962h-.001l.011.003.053.016c.048.015.122.038.22.071.195.066.482.17.837.314.712.29 1.688.747 2.738 1.404 2.11 1.32 4.449 3.41 5.611 6.542l1.875-.696c-1.37-3.693-4.1-6.086-6.425-7.541a20.148 20.148 0 00-3.043-1.56 16.606 16.606 0 00-1.225-.445 7.341 7.341 0 00-.076-.023l-.022-.007-.007-.002h-.003c-.001 0-.002-.001-.272.962zm-10.648 4.958c1.622 1.986 2.957 4.422 3.813 6.724l1.874-.697c-.924-2.486-2.362-5.119-4.139-7.292l-1.548 1.265zm3.813 6.724c.553 1.486.927 2.82.985 3.916l1.997-.104c-.074-1.41-.538-2.977-1.108-4.51l-1.874.698zm16.222-3.38c-2.6 2.94-6.232 3.519-9.37 3.303a20.439 20.439 0 01-5.135-1.05 12.108 12.108 0 01-.4-.147l-.003-.001-.377.926-.376.927.003.001a.34.34 0 01.009.004l.027.01.1.039a20.766 20.766 0 001.664.534 22.43 22.43 0 004.351.752c3.433.236 7.818-.37 11.006-3.974l-1.499-1.325zM44 38.998a1 1 0 00-2 0h2zm-2 28a1 1 0 102 0h-2zm-13-15a1 1 0 000 2v-2zm28 2a1 1 0 100-2v2zm-15-15v28h2v-28h-2zm-13 15h28v-2H29v2z" fill="#8C0F28"/></svg>