<svg width="89" height="97" fill="none" xmlns="http://www.w3.org/2000/svg"><path d="M55.206 24.526c17.717 4.652 17.687 20.123 16.713 35.329-.583 9.107-1.418 18.147-9.367 22.622-7.714 4.343-14.022.563-22.088-3.09-13.958-6.322-24.9-13.932-23.982-31.78.298-1.35.807-2.593 1.432-3.72 0 0-11.599-.216-13.336-6.483 4.136-5.16 10.356-6.173 10.356-6.173-1.451-1.72-2.668-3.969-3.292-6.904 11.133-5.23 17.783 1.1 20.522 4.815-.109-.212-.22-.437-.328-.674-1.958-4.246-3.619-12.334 6.348-19.962 1.828 1.68 2.974 4.132 3.689 6.668 0 0 4.35-6.592 11.622-6.928 4.474 7.505-2.62 15.995-2.62 15.995 1.608-.075 3.117-.034 4.33.285z" fill="snow"/><path d="M25.159 15.313a1 1 0 00-1.718 1.024l1.718-1.024zm30.047 9.213l.253-.967-.254.967zm16.713 35.329l.998.064-.998-.064zm-9.367 22.622l-.49-.871.49.871zm-22.088-3.09l-.413.91.413-.91zm-23.982-31.78l-.976-.215-.018.081-.005.084.999.05zm8.363-10.895l.512.858-.512-.858zM11.642 24.327l-.426-.905a1 1 0 00-.553 1.113l.979-.208zm3.292 6.904l.764-.645-.764.645zM4.578 37.404l-.78-.625a1 1 0 00-.184.892l.964-.267zm13.336 6.484l.874.485-.874-.485zm20.27-35.382l.676-.737a1 1 0 00-1.284-.057l.608.794zm15.311-.26l.86-.512-.307-.515-.599.028.046.999zm-2.62 15.995l.046 1-.047-1zm-16.388 6.723l-.995-1.67-1.717 1.025.995 1.669 1.717-1.024zm-.995-1.67l-.797-1.338-1.718 1.024.798 1.339 1.718-1.024zm-.797-1.338l-7.536-12.643-1.718 1.024 7.536 12.643 1.718-1.024zm22.257-2.463c4.294 1.128 7.457 2.895 9.79 5.104 2.332 2.208 3.88 4.901 4.88 7.948 2.016 6.14 1.788 13.621 1.3 21.246l1.995.128c.486-7.582.76-15.439-1.395-21.998-1.085-3.304-2.791-6.3-5.406-8.777-2.614-2.475-6.092-4.387-10.657-5.585l-.508 1.934zm15.97 34.298c-.293 4.569-.645 8.984-1.876 12.805-1.22 3.783-3.283 6.925-6.985 9.01l.981 1.743c4.247-2.391 6.576-6.007 7.907-10.14 1.32-4.094 1.678-8.752 1.968-13.29l-1.996-.128zm-8.86 21.815c-3.604 2.029-6.844 2.162-10.187 1.353-3.429-.83-6.889-2.622-10.998-4.483l-.826 1.822c3.957 1.792 7.684 3.717 11.354 4.605 3.755.908 7.527.76 11.637-1.554l-.98-1.743zm-21.185-3.13c-6.955-3.15-13.016-6.562-17.234-11.32-4.18-4.714-6.61-10.816-6.162-19.497l-1.998-.102c-.472 9.166 2.111 15.792 6.663 20.926 4.513 5.089 10.902 8.643 17.905 11.815l.826-1.822zM25.357 37.57l8.784-5.235-1.024-1.718-8.784 5.235 1.024 1.718zm-13.29-12.338c5.33-2.504 9.484-2.207 12.604-.927 3.163 1.297 5.377 3.651 6.688 5.43l1.61-1.186c-1.428-1.937-3.908-4.605-7.539-6.094-3.672-1.506-8.41-1.76-14.214.967l.85 1.81zm19.292 4.503c.163.222.312.433.446.632l1.657-1.12c-.148-.22-.313-.454-.493-.698l-1.61 1.186zm.446.632c.317.469.552.863.705 1.136a10.518 10.518 0 01.208.388l.008.017.002.002.9-.434.902-.433-.001-.002-.002-.003a.485.485 0 00-.004-.01l-.015-.03a12.395 12.395 0 00-.255-.477c-.177-.313-.44-.754-.79-1.274l-1.658 1.12zm-6.96 6.345l.118-.994c.001 0 .001 0 0 0h-.006l-.038-.006a11.846 11.846 0 01-.832-.159 16.444 16.444 0 01-2.317-.717c-1.87-.731-4.189-2.02-6.072-4.25l-1.528 1.29c2.16 2.559 4.796 4.011 6.872 4.823a18.45 18.45 0 002.601.805 13.795 13.795 0 001.057.197l.018.002.006.001h.003l.118-.992zM15.7 30.585c-1.348-1.597-2.49-3.696-3.08-6.467l-1.956.416c.66 3.1 1.951 5.497 3.507 7.34l1.528-1.29zm-.765.645l-.161-.987h-.003l-.006.002a1.534 1.534 0 00-.084.015l-.228.045a15.2 15.2 0 00-.816.199c-.686.186-1.639.488-2.726.96-2.17.94-4.912 2.568-7.112 5.314l1.56 1.25c1.936-2.415 4.372-3.873 6.347-4.73a18.32 18.32 0 012.454-.864 13.068 13.068 0 01.888-.208l.041-.008.008-.001-.162-.987zm2.525 16.593a12.817 12.817 0 011.33-3.451l-1.75-.97a14.815 14.815 0 00-1.534 3.99l1.954.43zm1.33-3.451c1.185-2.137 2.826-3.843 4.19-5.023a21.64 21.64 0 011.712-1.338 15.202 15.202 0 01.63-.42l.03-.018a.147.147 0 00.007-.004l-.513-.858-.512-.86v.001l-.002.001-.004.002-.013.008-.045.028a17.274 17.274 0 00-.726.483c-.476.333-1.133.824-1.871 1.462-1.47 1.272-3.295 3.154-4.633 5.566l1.75.97zM3.613 37.671c.516 1.86 1.755 3.226 3.22 4.218 1.458.987 3.187 1.638 4.804 2.073a28.62 28.62 0 004.33.788 28.629 28.629 0 001.779.133l.106.004h.041l.02-1 .019-.999h-.025a26.611 26.611 0 01-1.728-.126 26.57 26.57 0 01-4.023-.732c-1.5-.403-2.996-.98-4.202-1.797-1.198-.812-2.06-1.823-2.413-3.096l-1.928.534zm30.015-6.195a345.43 345.43 0 01.773-.634l-.002-.003a5.377 5.377 0 01-.095-.122 9.548 9.548 0 01-.298-.418 15.65 15.65 0 01-.954-1.614l-1.778.914c.4.778.788 1.397 1.078 1.824a12.675 12.675 0 00.488.67l.01.011c0 .002.002.003.003.004v.002h.001l.774-.634zm-.576-2.791a16.51 16.51 0 01-.31-.635l-1.815.837c.115.25.232.488.347.712l1.778-.914zm-.31-.635c-.927-2.012-1.76-4.887-1.219-8.13.538-3.218 2.452-6.935 7.267-10.62l-1.215-1.588c-5.152 3.942-7.39 8.083-8.024 11.878-.63 3.77.345 7.062 1.376 9.297l1.816-.837zm1.398 4.285l9.36-5.58-1.024-1.717-9.36 5.579 1.024 1.718zm3.366-23.093c1.635 1.501 2.712 3.75 3.403 6.203l1.925-.542c-.738-2.62-1.952-5.276-3.975-7.134l-1.353 1.473zm3.403 6.203c.702 2.493.975 5.091 1.07 7.082.047.992.05 1.825.04 2.408a26.724 26.724 0 01-.026.847l-.002.042-.001.01v.001l.998.062.998.061v-.006l.001-.015.003-.052.009-.196c.007-.169.015-.414.02-.723a39.92 39.92 0 00-.043-2.534c-.098-2.073-.384-4.836-1.142-7.53l-1.925.543zm.963-.271l.834.551.006-.01.031-.044a14.484 14.484 0 01.689-.89 18.103 18.103 0 012.17-2.182c1.9-1.608 4.6-3.2 7.938-3.354l-.092-1.998c-3.934.182-7.044 2.053-9.138 3.826a20.144 20.144 0 00-2.412 2.424 16.49 16.49 0 00-.797 1.032 5.902 5.902 0 00-.058.085l-.004.005-.001.003s-.001.001.834.552zm1.483 11.653c2.385-.942 5.112-1.472 7.565-1.587l-.093-1.998c-2.65.125-5.595.694-8.206 1.724l.734 1.86zm7.565-1.587c1.584-.074 2.968-.025 4.03.253l.508-1.934c-1.365-.359-2.998-.393-4.632-.317l.094 1.998zm1.715-16.482c2.01 3.372 1.457 7.008.297 9.931a20.435 20.435 0 01-2.562 4.573 11.932 11.932 0 01-.265.339s.001-.001.768.64l.768.64h.001l.002-.002.006-.007a9.822 9.822 0 00.32-.41 22.422 22.422 0 002.822-5.035c1.268-3.199 2.025-7.56-.439-11.693l-1.718 1.024zm5.229 58.24v1a1 1 0 001-1h-1zm0-3.111h1-1zM51.5 57.665v-1 1zm-11.136 0v-1 1zM34 63.887h-1 1zm0 3.111h-1a1 1 0 001 1v-1zm24.864 0v-3.111h-2v3.111h2zm0-3.111a7.153 7.153 0 00-2.165-5.115l-1.398 1.43a5.153 5.153 0 011.563 3.685h2zm-2.165-5.115a7.438 7.438 0 00-5.199-2.107v2c1.43 0 2.796.555 3.8 1.537l1.399-1.43zM51.5 56.665H40.364v2H51.5v-2zm-11.136 0a7.438 7.438 0 00-5.2 2.107l1.399 1.43a5.437 5.437 0 013.8-1.537v-2zm-5.2 2.107A7.153 7.153 0 0033 63.887h2c0-1.378.56-2.704 1.563-3.685l-1.398-1.43zM33 63.887v3.111h2v-3.111h-2zM51.295 45.22c0 2.863-2.38 5.223-5.363 5.223v2c4.045 0 7.363-3.213 7.363-7.223h-2zm-5.363 5.223c-2.984 0-5.364-2.36-5.364-5.223h-2c0 4.01 3.318 7.223 7.364 7.223v-2zm-5.364-5.223c0-2.863 2.38-5.222 5.364-5.222v-2c-4.046 0-7.364 3.213-7.364 7.222h2zm5.364-5.222c2.983 0 5.363 2.36 5.363 5.222h2c0-4.01-3.318-7.222-7.363-7.222v2zM34 67.998h23.864v-2H34v2z" fill="#8C0F28"/></svg>