<svg width="88" height="97" fill="none" xmlns="http://www.w3.org/2000/svg"><path d="M55.28 24.608c17.652 4.898 17.407 20.367 16.22 35.558-.71 9.098-1.67 18.126-9.68 22.49-7.774 4.235-14.029.368-22.043-3.398-13.869-6.516-24.705-14.277-23.537-32.11a13.817 13.817 0 011.483-3.7S6.129 43.07 4.479 36.78c4.207-5.103 10.441-6.03 10.441-6.03-1.428-1.74-2.613-4.005-3.196-6.95 11.205-5.073 17.766 1.349 20.453 5.101-.106-.213-.213-.44-.319-.678-1.899-4.273-3.446-12.384 6.626-19.872 1.805 1.705 2.916 4.173 3.595 6.719 0 0 4.442-6.53 11.718-6.766 4.369 7.567-2.843 15.958-2.843 15.958 1.61-.053 3.117.01 4.327.345z" fill="snow"/><path d="M25.365 14.978a1 1 0 10-1.732 1l1.732-1zm29.916 9.63l.267-.964-.267.964zM71.5 60.166l.997.078-.997-.078zm-9.682 22.49l-.478-.878.478.878zm-22.042-3.398l-.425.905.425-.905zM16.24 47.148l-.974-.229-.019.08-.005.084.998.065zm8.514-10.779l.5.866-.5-.866zm-13.03-12.567l-.413-.911a1 1 0 00-.568 1.105l.98-.194zm3.196 6.95l.773-.635-.773.634zM4.48 36.78l-.772-.637a1 1 0 00-.196.89l.968-.253zm13.244 6.669l.868.497-.868-.497zm20.76-35.097l.687-.727a1 1 0 00-1.283-.076l.597.803zm15.314-.047l.866-.5-.3-.518-.598.019.032 1zm-2.843 15.958l.033 1-.033-1zm-16.479 6.494l-.972-1.683-1.732 1 .972 1.683 1.732-1zm-.972-1.683l-.779-1.35-1.732 1 .78 1.35 1.731-1zm-.779-1.35l-7.359-12.746-1.732 1 7.36 12.746 1.731-1zm22.29-2.153c4.277 1.188 7.415 2.998 9.717 5.24 2.301 2.24 3.811 4.955 4.77 8.015 1.93 6.168 1.597 13.645 1.003 21.262l1.994.156c.591-7.574.974-15.427-1.089-22.016-1.039-3.318-2.703-6.338-5.283-8.85-2.58-2.512-6.03-4.472-10.578-5.734l-.535 1.927zm15.49 34.517c-.356 4.565-.77 8.974-2.054 12.778-1.271 3.766-3.378 6.879-7.11 8.912l.958 1.756c4.28-2.332 6.658-5.915 8.047-10.028 1.376-4.076 1.8-8.729 2.153-13.262l-1.994-.156zm-9.163 21.69c-3.631 1.978-6.872 2.066-10.204 1.21-3.417-.877-6.852-2.716-10.935-4.635l-.85 1.81c3.93 1.847 7.63 3.824 11.288 4.763 3.742.96 7.515.865 11.658-1.392l-.957-1.756zm-21.139-3.425c-6.91-3.246-12.923-6.743-17.075-11.56-4.113-4.77-6.457-10.906-5.89-19.58l-1.995-.13c-.6 9.159 1.89 15.82 6.37 21.017 4.442 5.151 10.78 8.794 17.74 12.063l.85-1.81zM25.254 37.235l8.855-5.112-1-1.732-8.855 5.112 1 1.732zM12.136 24.713c5.365-2.43 9.514-2.075 12.616-.751 3.144 1.34 5.325 3.726 6.612 5.523l1.626-1.165c-1.4-1.956-3.843-4.658-7.453-6.198-3.651-1.557-8.385-1.876-14.226.769l.825 1.822zm19.228 4.772c.16.223.306.437.437.637l1.673-1.097a20.946 20.946 0 00-.484-.705l-1.626 1.165zm.437.637c.31.474.54.87.69 1.146a10.59 10.59 0 01.21.408l.001.002.907-.421.907-.42v-.003l-.002-.003-.004-.01a5.575 5.575 0 00-.067-.135c-.044-.09-.11-.216-.196-.375a19.39 19.39 0 00-.773-1.286L31.8 30.122zm-7.047 6.247l.131-.991h.001-.007l-.038-.007a11.819 11.819 0 01-.83-.17 16.45 16.45 0 01-2.306-.75c-1.86-.757-4.16-2.077-6.012-4.334l-1.546 1.269c2.124 2.588 4.74 4.077 6.804 4.918a18.45 18.45 0 002.59.84 13.965 13.965 0 001.054.213l.018.002.006.001h.003l.132-.99zm-9.06-6.252c-1.326-1.616-2.438-3.73-2.99-6.51l-1.961.39c.616 3.108 1.874 5.524 3.404 7.389l1.546-1.269zm-.774.634l-.148-.989h-.003l-.006.002a.974.974 0 00-.083.013 15.12 15.12 0 00-1.047.23 20.21 20.21 0 00-2.74.922c-2.183.91-4.947 2.5-7.186 5.214l1.543 1.273c1.97-2.388 4.426-3.813 6.412-4.641.99-.413 1.854-.674 2.466-.83a13.148 13.148 0 01.89-.197l.042-.007a.491.491 0 00.008 0l-.148-.99zm2.293 16.626a12.817 12.817 0 011.378-3.431l-1.736-.995a14.814 14.814 0 00-1.589 3.968l1.947.458zm1.378-3.431c1.215-2.12 2.88-3.804 4.26-4.964a21.657 21.657 0 011.73-1.315 15.294 15.294 0 01.667-.428l.006-.004-.5-.866-.5-.865h-.003l-.004.003-.013.008a5.666 5.666 0 00-.206.125c-.137.085-.331.21-.572.374-.48.327-1.144.809-1.891 1.437-1.488 1.25-3.338 3.108-4.71 5.5l1.736.995zM3.51 37.033c.49 1.867 1.71 3.25 3.161 4.262 1.444 1.008 3.164 1.683 4.775 2.14 1.618.459 3.173.711 4.32.849a28.55 28.55 0 001.881.162 11.134 11.134 0 01.04.002h.002l.033-1 .033-.999h-.025a10.402 10.402 0 01-.439-.026 26.77 26.77 0 01-1.287-.125 26.633 26.633 0 01-4.012-.787c-1.494-.424-2.983-1.023-4.177-1.856-1.187-.828-2.035-1.85-2.37-3.13l-1.935.508zm30.098-5.776l.782-.624v.001l-.002-.003a15.514 15.514 0 01-1.316-2.173l-1.791.89c.389.783.768 1.407 1.053 1.838a12.664 12.664 0 00.449.638c.012.016.022.03.03.038l.008.012.003.004.002.001v.001l.782-.623zm-.536-2.8c-.1-.2-.201-.414-.3-.639l-1.829.812c.112.252.226.491.338.717l1.79-.89zm-.3-.639c-.9-2.024-1.694-4.91-1.107-8.146.582-3.21 2.548-6.9 7.414-10.518L37.887 7.55c-5.206 3.871-7.502 7.98-8.189 11.766-.682 3.76.247 7.066 1.247 9.315l1.827-.812zm1.336 4.305l9.437-5.449-1-1.732-9.437 5.449 1 1.732zm3.688-23.044c1.613 1.523 2.66 3.788 3.316 6.25l1.932-.516c-.7-2.63-1.878-5.302-3.875-7.188l-1.373 1.454zm3.316 6.25c.667 2.502.904 5.104.97 7.096.034.993.025 1.825.008 2.408a27.12 27.12 0 01-.042.898v.002l.997.075.997.076v-.002a.04.04 0 010-.005l.002-.014a8.126 8.126 0 00.015-.248c.01-.17.02-.414.03-.723.018-.617.027-1.493-.007-2.534-.07-2.075-.317-4.842-1.038-7.545l-1.932.516zm.966-.258l.827.563a18.142 18.142 0 012.939-3.085c1.922-1.582 4.645-3.136 7.985-3.244l-.065-1.999c-3.937.127-7.072 1.955-9.19 3.698a20.144 20.144 0 00-2.446 2.39 16.528 16.528 0 00-.811 1.021l-.046.065-.013.019-.004.006-.002.002c0 .001 0 .002.826.564zM43.4 26.743c2.399-.908 5.132-1.4 7.587-1.48l-.066-2c-2.65.088-5.604.616-8.229 1.61l.708 1.87zm7.587-1.48c1.585-.053 2.968.015 4.026.308l.535-1.927c-1.36-.377-2.993-.435-4.627-.38l.066 1.998zM52.93 8.804c1.963 3.4 1.359 7.028.159 9.935a20.422 20.422 0 01-2.83 4.794 5.894 5.894 0 01-.063.075l-.002.003.759.65.759.652v-.001l.002-.002a.648.648 0 00.026-.03l.067-.082c.057-.07.138-.17.239-.3a22.43 22.43 0 002.892-4.996c1.312-3.18 2.13-7.53-.276-11.698l-1.732 1zM29 40.997a1 1 0 100 2v-2zm5.273 1l.98-.194a1 1 0 00-.98-.806v1zm3.532 17.853l.982-.192v-.002l-.981.194zm2.637 2.147v-1h-.02l.02 1zm12.813 0l.019-1h-.02v1zm2.636-2.147l.981.193.002-.007-.983-.186zM58 48.664l.983.185A1 1 0 0058 47.664v1zm-22.41-1a1 1 0 000 2v-2zm4.274 21a.326.326 0 01-.319.333v2a2.326 2.326 0 002.319-2.333h-2zm-.319.333a.326.326 0 01-.318-.333h-2a2.326 2.326 0 002.319 2.333v-2zm-.318-.333c0-.195.154-.334.319-.334v-2a2.326 2.326 0 00-2.319 2.334h2zm.319-.334c.164 0 .318.139.318.334h2a2.326 2.326 0 00-2.319-2.334v2zm14.818.334a.326.326 0 01-.319.333v2a2.326 2.326 0 002.319-2.333h-2zm-.319.333a.326.326 0 01-.318-.333h-2a2.326 2.326 0 002.319 2.333v-2zm-.318-.333c0-.195.154-.334.319-.334v-2a2.326 2.326 0 00-2.319 2.334h2zm.319-.334c.164 0 .318.139.318.334h2a2.326 2.326 0 00-2.319-2.334v2zM29 42.997h5.273v-2H29v2zm4.292-.806l3.532 17.853 1.962-.388-3.532-17.853-1.962.388zm3.532 17.852c.165.842.618 1.6 1.283 2.14l1.263-1.55a1.672 1.672 0 01-.583-.975l-1.963.385zm1.283 2.14c.664.542 1.498.83 2.354.814l-.039-2a1.61 1.61 0 01-1.052-.364l-1.263 1.55zm2.335.814h12.813v-2H40.441v2zm12.793 0a3.617 3.617 0 002.355-.813l-1.263-1.551c-.3.243-.672.372-1.053.364l-.039 2zm2.355-.813a3.672 3.672 0 001.282-2.14l-1.962-.386a1.672 1.672 0 01-.583.975l1.263 1.55zm1.284-2.148l2.109-11.187-1.966-.37-2.109 11.186 1.966.37zM58 47.664H35.59v2H58v-2z" fill="#8C0F28"/></svg>