<svg width="23" height="24" fill="none" xmlns="http://www.w3.org/2000/svg"><path d="M2.278 9.624a2.181 2.181 0 01.717-1.44A2.28 2.28 0 014.523 7.6h13.572a2.28 2.28 0 011.527.583c.416.375.673.89.718 1.441l.904 11c.025.303-.015.607-.116.894a2.19 2.19 0 01-.474.774 2.25 2.25 0 01-.75.523A2.296 2.296 0 0119 23H3.618a2.29 2.29 0 01-1.654-.708 2.19 2.19 0 01-.474-.774 2.153 2.153 0 01-.116-.894l.904-11z" stroke="#150200" stroke-width="2" stroke-linecap="round" stroke-linejoin="round"/><path d="M15.482 10.9V5.4a4.4 4.4 0 00-8.8 0v5.5" stroke="#150200" stroke-width="2" stroke-linecap="round" stroke-linejoin="round"/></svg>