<svg width="45" height="56" fill="none" xmlns="http://www.w3.org/2000/svg"><path d="M22.47 11.014h1a1 1 0 00-.446-.832l-.555.832zM36.058 21.97l.71-.703-.71.703zm-2.265 23.451l-.823-.568.823.568zM22.47 54.247l.025-1-.025 1zm-11.14-8.42l-.82.573.82-.573zM8.702 21.97l-.726-.688-.058.06-.046.07.83.558zm4.71-13.549l.098-.995a1 1 0 00-1.044.671l.946.324zm-.428 4.591l.986-.163-.986.163zm-7.317 0l-.348-.937a1 1 0 00-.616.672l.964.265zm26.497-4.59l.957-.289a1 1 0 00-1.072-.705l.115.993zm8.062 4.59h1v-.6l-.53-.283-.47.883zm-6.336 7.474l-.47.883.47-.883zM5.622 29.542l.99.138-.99-.137zM22.342 7.43a1 1 0 00.255 1.984l-.255-1.984zM20.67 36.406a1 1 0 10-1.033 1.713l1.032-1.713zm4.793 1.592a1 1 0 10-1.355-1.47l1.355 1.47zM23.47 18.734v-7.72h-2v7.72h2zm11.879 3.94c1.85 1.87 2.91 3.704 3.417 5.492.508 1.788.483 3.59.07 5.424-.838 3.715-3.235 7.458-5.864 11.263l1.646 1.137c2.604-3.769 5.234-7.813 6.169-11.96.472-2.099.518-4.247-.097-6.41-.615-2.165-1.873-4.285-3.92-6.353l-1.421 1.406zM32.97 44.852c-1.601 2.318-2.975 4.442-4.627 6.007-1.602 1.519-3.405 2.447-5.85 2.387l-.05 2c3.09.076 5.383-1.14 7.276-2.935 1.844-1.748 3.364-4.104 4.897-6.322l-1.646-1.137zm-10.477 8.394c-4.786-.117-7.212-3.52-10.346-7.994L10.51 46.4c3.005 4.29 5.98 8.7 11.935 8.847l.049-2zm-6.2-33.513h6.175v-2h-6.176v2zm-2.98-10.318c2.367.232 4.012.944 5.166 1.828 1.157.886 1.876 1.988 2.323 3.083.449 1.1.619 2.185.674 3.002a9.608 9.608 0 01.005 1.225 3.12 3.12 0 01-.005.06l-.002.01.994.11.994.11v-.004l.002-.01.003-.029a5.813 5.813 0 00.026-.435c.01-.286.01-.688-.022-1.171a11.774 11.774 0 00-.818-3.624c-.555-1.36-1.469-2.774-2.957-3.914-1.491-1.143-3.503-1.968-6.187-2.231l-.195 1.99zm2.98 9.318a148.85 148.85 0 01.597-.802v.001c.001 0 0 0 0 0l-.012-.01a5.846 5.846 0 01-.332-.288 8.467 8.467 0 01-.887-.978 8.474 8.474 0 01-1.69-3.808l-1.973.327a10.473 10.473 0 002.084 4.71c.412.53.805.934 1.099 1.209a7.712 7.712 0 00.467.404l.033.025.011.009.004.002.002.002.596-.803zM13.97 12.85c-.196-1.179-.143-2.551.388-4.104l-1.892-.648c-.64 1.873-.718 3.58-.469 5.08l1.973-.328zm-.986.163l.364-.93v-.001h-.003l-.004-.002-.013-.005-.041-.016a9.555 9.555 0 00-.65-.205c-.43-.12-1.04-.261-1.775-.356-1.463-.188-3.466-.193-5.543.578l.696 1.875c1.683-.625 3.338-.63 4.593-.469.624.08 1.139.2 1.493.299a7.679 7.679 0 01.517.164h.001l.365-.932zm-3.556 9.646a7.38 7.38 0 011.676-1.306l-1-1.732a9.374 9.374 0 00-2.128 1.662l1.452 1.376zm1.676-1.306c1.249-.722 2.566-1.13 3.585-1.357a13.731 13.731 0 011.563-.254 4.286 4.286 0 01.1-.008h.001l-.06-.999-.06-.998h-.005l-.01.001-.033.002a11.512 11.512 0 00-.524.055c-.346.045-.832.12-1.406.249-1.144.254-2.671.722-4.151 1.577l1 1.732zm-6.401-8.605c-.342 1.24-.091 2.431.392 3.455.479 1.016 1.21 1.923 1.935 2.664.73.747 1.488 1.36 2.059 1.786a17.615 17.615 0 00.965.67l.017.01c.002 0 .003.002.005.003h.001l.001.001.526-.85a292.81 292.81 0 01.526-.85l-.001-.002-.01-.005-.041-.027a15.614 15.614 0 01-.794-.554 15.723 15.723 0 01-1.824-1.58c-.64-.654-1.208-1.38-1.556-2.12-.346-.731-.452-1.42-.273-2.07l-1.928-.531zm17.766 5.987c.991-.133.991-.133.992-.132v.002a8.73 8.73 0 01.678-4.152c.91-2.08 3.018-4.446 8.14-5.037l-.23-1.987c-5.794.669-8.533 3.46-9.742 6.221a10.731 10.731 0 00-.856 3.587c-.03.476-.025.873-.012 1.155a7.235 7.235 0 00.034.432l.003.029a.5.5 0 01.002.01v.005l.991-.133zm0 1h6.176v-2H22.47v2zM31.206 8.71c.355 1.18.236 2.593-.157 4.042l1.93.523c.44-1.618.65-3.452.142-5.14l-1.915.575zm-.157 4.042c-.381 1.409-1.151 2.73-1.854 3.72a16.277 16.277 0 01-1.176 1.47l-.071.076-.016.017-.003.003.716.697.717.698.002-.002.002-.002.008-.009.026-.027.092-.099c.078-.084.187-.206.32-.361.265-.31.626-.756 1.015-1.304.77-1.087 1.684-2.627 2.153-4.354l-1.93-.523zm.965.261l.432.902v.001h-.001l.004-.002a8.44 8.44 0 01.63-.247 10.552 10.552 0 011.743-.443c1.442-.239 3.25-.223 4.934.672l.94-1.765c-2.211-1.175-4.51-1.16-6.2-.88-.85.14-1.568.35-2.075.527a10.46 10.46 0 00-.768.3l-.048.023a1.048 1.048 0 00-.022.01l.431.902zm-3.528 6.71c1.502.243 3.665.973 4.935 1.647l.937-1.767c-1.464-.777-3.837-1.577-5.553-1.855l-.32 1.974zm4.935 1.647c.84.446 1.503.876 1.927 1.304l1.422-1.406c-.644-.651-1.528-1.196-2.412-1.665l-.937 1.767zm5.805-8.357c0 2.188-1.308 3.796-2.775 4.917a12.026 12.026 0 01-2.842 1.595l-.041.015-.008.003s-.001 0 0 0l.33.944c.328.944.329.944.33.944l.002-.001.007-.002a1.193 1.193 0 00.084-.031 12.96 12.96 0 001.005-.438c.635-.31 1.488-.783 2.347-1.44 1.7-1.298 3.56-3.426 3.56-6.506h-2zM6.613 29.68c.31-2.241 1.207-4.607 2.919-7.152l-1.66-1.116c-1.855 2.758-2.883 5.408-3.24 7.993l1.98.275zm-.991-.137l-.361-.933h-.003a.799.799 0 00-.062.026 9.455 9.455 0 00-.657.307c-.411.212-.966.533-1.527.966-1.09.842-2.387 2.258-2.387 4.266h2c0-1.081.7-1.98 1.61-2.683a8.07 8.07 0 011.746-1.016l.003-.002-.001.001-.361-.933zm6.526 15.71c-1.45-2.07-2.73-4.09-3.706-6.11l-1.8.87c1.042 2.159 2.39 4.278 3.868 6.387l1.638-1.147zm-3.706-6.11c-1.515-3.133-2.277-6.226-1.83-9.463l-1.98-.275c-.52 3.75.385 7.248 2.01 10.609l1.8-.87zM.625 34.176c0 2.494 1.906 4.104 3.452 5.012.805.472 1.602.81 2.193 1.028a13.783 13.783 0 00.992.324l.018.005.006.001h.002v.001l.253-.967.253-.968h.001c-.002 0-.005 0-.009-.002a3.58 3.58 0 01-.205-.06c-.146-.045-.36-.115-.617-.21a11.95 11.95 0 01-1.874-.877c-1.412-.83-2.465-1.921-2.465-3.287h-2zm39.437-4.632l-.38.924h-.002.002a1.391 1.391 0 01.117.053 7.484 7.484 0 011.51.953c.844.692 1.517 1.595 1.517 2.702h2c0-1.982-1.209-3.395-2.248-4.248a9.487 9.487 0 00-2.116-1.3l-.013-.006-.005-.002-.002-.001-.38.925zm2.764 4.632c0 1.332-1.1 2.417-2.63 3.25-.722.394-1.454.681-2.01.87a13.216 13.216 0 01-.885.267l-.01.002.233.973.232.973h.003l.006-.002a2.172 2.172 0 00.08-.02l.221-.06c.187-.053.45-.132.765-.24a15.04 15.04 0 002.322-1.006c1.622-.884 3.673-2.48 3.673-5.007h-2zM22.47 11.015l.555-.833h-.001a20.388 20.388 0 01-2.194-1.738c-.552-.507-1.074-1.055-1.451-1.59-.393-.556-.54-.974-.54-1.244h-2c0 .888.43 1.724.906 2.398.492.697 1.128 1.355 1.734 1.91a22.413 22.413 0 002.419 1.916l.012.008.004.003.001.001.555-.832zM18.837 5.61c0-.794.39-1.486 1.062-2.01.683-.53 1.622-.85 2.57-.85v-2c-1.367 0-2.744.453-3.798 1.272-1.065.828-1.834 2.066-1.834 3.588h2zm3.632-2.86c.931 0 1.63.306 2.092.769.463.462.768 1.16.768 2.091h2c0-1.385-.466-2.617-1.354-3.506-.888-.888-2.12-1.354-3.506-1.354v2zm2.86 2.86c0 .502-.412.965-1.323 1.355a6.903 6.903 0 01-1.54.445 4.738 4.738 0 01-.122.02h-.004.001l.128.991a160.613 160.613 0 00.129.992h.006l.013-.003a4.614 4.614 0 00.187-.029 8.895 8.895 0 001.99-.578c1.018-.436 2.535-1.379 2.535-3.193h-2zm-5.692 32.51c1.019.613 1.813.915 2.832.915v-2c-.524 0-.956-.12-1.8-.629l-1.032 1.713zm2.832.915c.512 0 1.03-.032 1.542-.187a3.667 3.667 0 001.452-.85l-1.355-1.47c-.25.23-.46.341-.675.406-.233.07-.522.1-.964.1v2z" fill="#8C0F28"/></svg>