<svg width="139" height="64" viewBox="0 0 139 64" fill="none" xmlns="http://www.w3.org/2000/svg">
<path d="M63.0542 25.9751C59.3811 20.8159 63.9724 10.4975 67.9516 7.15922C70.5863 4.94883 74.2414 5.63507 76.5221 6.56816L78.6647 2L79.583 6.24876L82.6439 4.42786V9.58706L88.1534 9.89055L84.7865 12.3184L88.7656 14.4428L84.6421 14.7463C86.1472 19.73 83.1758 25.8103 77.7464 27.4925C72.849 29.0099 65.9926 30.1025 63.0542 25.9751Z" fill="#E0131E"/>
<path d="M76.5221 6.56816C76.997 6.76245 77.4123 6.96744 77.7464 7.15922C78.8038 7.76617 83.0714 11.2086 84.1743 13.5323C84.3618 13.9274 84.5174 14.333 84.6421 14.7463M76.5221 6.56816C74.2414 5.63507 70.5863 4.94883 67.9516 7.15922C63.9724 10.4975 59.3811 20.8159 63.0542 25.9751C65.9926 30.1025 72.849 29.0099 77.7464 27.4925C83.1758 25.8103 86.1472 19.73 84.6421 14.7463M76.5221 6.56816L78.6647 2L79.583 6.24876L82.6439 4.42786V9.58706L88.1534 9.89055L84.7865 12.3184L88.7656 14.4428L84.6421 14.7463M71.6247 13.5323C70.9105 13.8358 69.8494 14.6249 71.3186 15.3532C73.1551 16.2637 72.849 13.2289 71.6247 13.5323ZM68.5638 19.602C68.0537 19.9055 67.3395 20.6338 68.5638 21.1194C70.0942 21.7264 69.7882 19.2985 68.5638 19.602ZM65.5029 15.6567C64.9928 15.9602 64.1561 16.7493 64.8907 17.4776C65.809 18.3881 67.0334 15.9602 65.5029 15.6567ZM80.1952 18.995C79.8891 19.7031 79.583 20.998 80.8073 20.5124C82.3378 19.9055 80.8073 17.7811 80.1952 18.995ZM75.6038 18.6915C75.3998 19.2985 75.1753 20.4517 75.9099 20.209C76.8282 19.9055 76.5221 17.1741 75.6038 18.6915ZM79.2769 13.2289C78.7667 13.7347 78.0525 14.8677 79.2769 15.3532C80.8073 15.9602 80.5012 12.3184 79.2769 13.2289ZM74.0734 8.06965C73.4612 8.57545 72.6042 9.70846 74.0734 10.194C75.9099 10.801 74.9917 7.76617 74.0734 8.06965ZM68.5638 9.58706C68.5638 9.58706 67.8904 11.6507 68.8699 11.408C71.6247 10.7251 68.5638 9.58706 68.5638 9.58706ZM63.9725 21.1194C63.6664 21.8275 63.2379 23.1831 63.9725 22.9403C64.8907 22.6368 64.8908 20.209 63.9725 21.1194ZM67.9516 24.4577C67.5148 24.6841 67.3017 25.1844 67.3395 25.6716C67.3684 26.0453 67.8835 26.0281 68.2577 25.9751C68.7598 25.904 69.176 25.6716 69.176 25.0647C69.176 24.4577 68.4253 24.2121 67.9516 24.4577ZM73.7673 24.1542C73.3592 24.5589 72.849 25.4289 74.0734 25.6716C75.2977 25.9144 75.1957 24.9635 74.9917 24.4577C74.8896 24.1542 74.5019 23.6687 73.7673 24.1542Z" stroke="black"/>
<path d="M71.6246 13.5324C70.9104 13.8359 69.8493 14.625 71.3185 15.3533C73.155 16.2638 72.8489 13.2289 71.6246 13.5324Z" fill="#9E7373"/>
<path d="M68.5637 19.6021C68.0536 19.9056 67.3394 20.6339 68.5637 21.1195C70.0942 21.7265 69.7881 19.2986 68.5637 19.6021Z" fill="#9E7373"/>
<path d="M65.5028 15.6568C64.9927 15.9603 64.156 16.7493 64.8907 17.4777C65.8089 18.3881 67.0333 15.9603 65.5028 15.6568Z" fill="#9E7373"/>
<path d="M80.1951 18.9951C79.889 19.7032 79.5829 20.9981 80.8072 20.5125C82.3377 19.9056 80.8072 17.7812 80.1951 18.9951Z" fill="#9E7373"/>
<path d="M75.6037 18.6916C75.3997 19.2986 75.1752 20.4518 75.9098 20.209C76.8281 19.9056 76.522 17.1742 75.6037 18.6916Z" fill="#9E7373"/>
<path d="M79.2768 13.2289C78.7667 13.7347 78.0524 14.8677 79.2768 15.3533C80.8072 15.9603 80.5012 12.3185 79.2768 13.2289Z" fill="#9E7373"/>
<path d="M74.0733 8.06974C73.4611 8.57554 72.6041 9.70854 74.0733 10.1941C75.9098 10.8011 74.9916 7.76626 74.0733 8.06974Z" fill="#9E7373"/>
<path d="M68.5637 9.58715C68.5637 9.58715 67.8903 11.6508 68.8698 11.408C71.6246 10.7252 68.5637 9.58715 68.5637 9.58715Z" fill="#9E7373"/>
<path d="M63.9724 21.1195C63.6663 21.8276 63.2378 23.1832 63.9724 22.9404C64.8907 22.6369 64.8907 20.209 63.9724 21.1195Z" fill="#9E7373"/>
<path d="M67.3394 25.6717C67.3016 25.1845 67.5147 24.6842 67.9515 24.4578C68.4252 24.2122 69.1759 24.4578 69.1759 25.0648C69.1759 25.6717 68.7597 25.9041 68.2576 25.9752C67.8834 26.0282 67.3683 26.0454 67.3394 25.6717Z" fill="#9E7373"/>
<path d="M74.0733 25.6717C72.8489 25.4289 73.3591 24.559 73.7672 24.1543C74.5018 23.6687 74.8895 24.1543 74.9916 24.4578C75.1956 24.9636 75.2977 25.9145 74.0733 25.6717Z" fill="#9E7373"/>
<path d="M71.6246 13.5324C70.9104 13.8359 69.8493 14.625 71.3185 15.3533C73.155 16.2638 72.8489 13.2289 71.6246 13.5324Z" stroke="black"/>
<path d="M68.5637 19.6021C68.0536 19.9056 67.3394 20.6339 68.5637 21.1195C70.0942 21.7265 69.7881 19.2986 68.5637 19.6021Z" stroke="black"/>
<path d="M65.5028 15.6568C64.9927 15.9603 64.156 16.7493 64.8907 17.4777C65.8089 18.3881 67.0333 15.9603 65.5028 15.6568Z" stroke="black"/>
<path d="M80.1951 18.9951C79.889 19.7032 79.5829 20.9981 80.8072 20.5125C82.3377 19.9056 80.8072 17.7812 80.1951 18.9951Z" stroke="black"/>
<path d="M75.6037 18.6916C75.3997 19.2986 75.1752 20.4518 75.9098 20.209C76.8281 19.9056 76.522 17.1742 75.6037 18.6916Z" stroke="black"/>
<path d="M79.2768 13.2289C78.7667 13.7347 78.0524 14.8677 79.2768 15.3533C80.8072 15.9603 80.5012 12.3185 79.2768 13.2289Z" stroke="black"/>
<path d="M74.0733 8.06974C73.4611 8.57554 72.6041 9.70854 74.0733 10.1941C75.9098 10.8011 74.9916 7.76626 74.0733 8.06974Z" stroke="black"/>
<path d="M68.5637 9.58715C68.5637 9.58715 67.8903 11.6508 68.8698 11.408C71.6246 10.7252 68.5637 9.58715 68.5637 9.58715Z" stroke="black"/>
<path d="M63.9724 21.1195C63.6663 21.8276 63.2378 23.1832 63.9724 22.9404C64.8907 22.6369 64.8907 20.209 63.9724 21.1195Z" stroke="black"/>
<path d="M67.3394 25.6717C67.3016 25.1845 67.5147 24.6842 67.9515 24.4578C68.4252 24.2122 69.1759 24.4578 69.1759 25.0648C69.1759 25.6717 68.7597 25.9041 68.2576 25.9752C67.8834 26.0282 67.3683 26.0454 67.3394 25.6717Z" stroke="black"/>
<path d="M74.0733 25.6717C72.8489 25.4289 73.3591 24.559 73.7672 24.1543C74.5018 23.6687 74.8895 24.1543 74.9916 24.4578C75.1956 24.9636 75.2977 25.9145 74.0733 25.6717Z" stroke="black"/>
<path d="M80.5011 9.28358L76.828 6.55224L78.6645 2L79.5828 6.24876L82.6437 4.42786V9.58706L88.1533 9.89055L84.7863 12.3184L88.7654 14.4428L84.7863 14.7463L84.4802 14.1393L83.2559 12.0149L80.5011 9.28358Z" fill="#176938"/>
<mask id="mask0_1310_2301" style="mask-type:alpha" maskUnits="userSpaceOnUse" x="37" y="23" width="67" height="41">
<path d="M71.3184 62.9999H68.8697C69.4818 55.4128 69.788 32.659 62.1359 33.5622C49.2802 35.0795 38.567 32.3482 37.9548 29.0099C37.3427 25.6716 48.974 23.2438 57.8506 25.3681C64.9518 27.0676 68.7677 34.7761 69.788 38.4179C73.359 33.7645 82.4601 24.3363 90.2959 23.8507C100.091 23.2437 103.152 36.9004 103.152 36.9004C103.152 36.9004 94.5811 35.383 89.0716 35.0795C83.562 34.776 73.155 37.5074 71.0124 39.6318C69.2983 41.3313 70.5022 55.9187 71.3184 62.9999Z" fill="#C4C4C4"/>
<path d="M68.8697 62.9999L68.3714 62.9597C68.3601 63.0989 68.4076 63.2364 68.5022 63.339C68.5969 63.4416 68.7301 63.4999 68.8697 63.4999V62.9999ZM71.3184 62.9999V63.4999C71.461 63.4999 71.5968 63.4391 71.6917 63.3326C71.7866 63.2262 71.8315 63.0843 71.8152 62.9427L71.3184 62.9999ZM71.0124 39.6318L70.6603 39.2767L71.0124 39.6318ZM103.152 36.9004L103.064 37.3928C103.229 37.422 103.398 37.3668 103.513 37.2459C103.629 37.125 103.676 36.9543 103.64 36.7911L103.152 36.9004ZM90.2959 23.8507L90.265 23.3517L90.2959 23.8507ZM69.788 38.4179L69.3065 38.5528C69.3576 38.7351 69.5073 38.8729 69.6932 38.9088C69.8792 38.9447 70.0694 38.8725 70.1847 38.7223L69.788 38.4179ZM57.8506 25.3681L57.9669 24.8819L57.8506 25.3681ZM37.9548 29.0099L38.4466 28.9197L37.9548 29.0099ZM62.1359 33.5622L62.1945 34.0587L62.1359 33.5622ZM68.8697 63.4999H71.3184V62.4999H68.8697V63.4999ZM71.8152 62.9427C71.4079 59.4097 70.9042 54.0058 70.7161 49.2778C70.622 46.9122 70.6075 44.7287 70.7211 43.0377C70.778 42.1911 70.8662 41.4829 70.9877 40.9432C71.1155 40.3757 71.2607 40.0896 71.3644 39.9868L70.6603 39.2767C70.3355 39.5988 70.1434 40.1404 70.0121 40.7236C69.8745 41.3346 69.7819 42.1001 69.7234 42.9707C69.6062 44.7142 69.6223 46.9388 69.7169 49.3176C69.9063 54.0785 70.4127 59.5089 70.8217 63.0572L71.8152 62.9427ZM71.3644 39.9868C71.823 39.5321 72.7919 38.9935 74.1503 38.4452C75.4878 37.9055 77.1397 37.3808 78.9033 36.9296C82.4413 36.0243 86.3634 35.4311 89.0441 35.5788L89.0991 34.5803C86.2701 34.4245 82.2339 35.0452 78.6554 35.9608C76.8607 36.42 75.1647 36.9575 73.7761 37.5179C72.4085 38.0698 71.273 38.6693 70.6603 39.2767L71.3644 39.9868ZM89.0441 35.5788C91.7749 35.7292 95.2761 36.1816 98.1048 36.5985C99.5169 36.8066 100.757 37.0053 101.645 37.1519C102.089 37.2252 102.444 37.2855 102.688 37.3274C102.81 37.3484 102.904 37.3648 102.968 37.3759C103 37.3814 103.024 37.3857 103.04 37.3885C103.048 37.39 103.054 37.391 103.059 37.3917C103.061 37.3921 103.062 37.3924 103.063 37.3925C103.064 37.3926 103.064 37.3927 103.064 37.3927C103.064 37.3928 103.064 37.3928 103.064 37.3928C103.064 37.3928 103.064 37.3928 103.152 36.9004C103.239 36.4081 103.239 36.4081 103.239 36.4081C103.239 36.4081 103.238 36.4081 103.238 36.408C103.238 36.408 103.238 36.4079 103.237 36.4078C103.236 36.4076 103.234 36.4073 103.232 36.407C103.228 36.4062 103.222 36.4051 103.213 36.4036C103.197 36.4007 103.172 36.3964 103.14 36.3908C103.075 36.3795 102.98 36.363 102.857 36.3419C102.611 36.2996 102.254 36.239 101.808 36.1653C100.916 36.0179 99.6697 35.8183 98.2506 35.6091C95.4166 35.1914 91.8778 34.7333 89.0991 34.5803L89.0441 35.5788ZM103.152 36.9004C103.64 36.7911 103.639 36.7909 103.639 36.7906C103.639 36.7905 103.639 36.7901 103.639 36.7898C103.639 36.7892 103.639 36.7883 103.639 36.7873C103.638 36.7852 103.638 36.7823 103.637 36.7785C103.635 36.7711 103.632 36.7604 103.629 36.7465C103.623 36.7188 103.613 36.6786 103.6 36.6267C103.574 36.5229 103.536 36.3723 103.483 36.1817C103.378 35.8007 103.217 35.2593 102.993 34.6125C102.546 33.3208 101.844 31.5991 100.826 29.892C98.8016 26.4947 95.4437 23.0307 90.265 23.3517L90.3268 24.3497C94.9429 24.0637 98.0129 27.1246 99.9673 30.4039C100.939 32.0351 101.615 33.6897 102.048 34.9397C102.264 35.5637 102.419 36.0845 102.519 36.448C102.569 36.6296 102.606 36.7718 102.63 36.8678C102.642 36.9157 102.65 36.9521 102.656 36.9761C102.659 36.9881 102.661 36.9969 102.662 37.0026C102.663 37.0054 102.663 37.0074 102.663 37.0086C102.664 37.0092 102.664 37.0096 102.664 37.0098C102.664 37.0099 102.664 37.0099 102.664 37.01C102.664 37.0099 102.664 37.0098 103.152 36.9004ZM90.265 23.3517C86.1845 23.6045 81.8471 26.1688 78.1278 29.1829C74.3916 32.2108 71.1968 35.7608 69.3913 38.1135L70.1847 38.7223C71.9502 36.4216 75.0915 32.9308 78.7575 29.9598C82.4404 26.9751 86.5715 24.5825 90.3268 24.3497L90.265 23.3517ZM70.2695 38.283C69.7441 36.4078 68.5088 33.5122 66.4979 30.8624C64.4868 28.2124 61.6679 25.7676 57.9669 24.8819L57.7342 25.8544C61.1344 26.6682 63.7741 28.9274 65.7013 31.4669C67.6288 34.0067 68.8116 36.7862 69.3065 38.5528L70.2695 38.283ZM57.9669 24.8819C53.4504 23.801 48.2508 23.8793 44.2499 24.6495C42.2523 25.0341 40.5172 25.598 39.3059 26.3014C38.1366 26.9805 37.2473 27.9239 37.463 29.1001L38.4466 28.9197C38.3563 28.4269 38.6913 27.8148 39.8081 27.1662C40.883 26.5419 42.4957 26.0056 44.439 25.6315C48.3198 24.8844 53.3742 24.811 57.7342 25.8544L57.9669 24.8819ZM37.463 29.1001C37.6591 30.1695 38.624 31.0644 39.9448 31.7823C41.2941 32.5155 43.1436 33.1354 45.3519 33.5964C49.7733 34.5193 55.7204 34.8229 62.1945 34.0587L62.0773 33.0656C55.6958 33.8188 49.8584 33.5155 45.5562 32.6175C43.4027 32.168 41.6557 31.574 40.4223 30.9036C39.1605 30.2179 38.5566 29.5195 38.4466 28.9197L37.463 29.1001ZM62.1945 34.0587C63.7872 33.8707 65.0486 34.8768 66.0531 36.9333C67.0538 38.9821 67.7059 41.9123 68.1056 45.1583C68.9035 51.6369 68.6758 59.1856 68.3714 62.9597L69.3681 63.0401C69.6757 59.2271 69.9072 51.6054 69.0981 45.0361C68.6944 41.7581 68.0265 38.695 66.9516 36.4944C65.8805 34.3015 64.3107 32.802 62.0773 33.0656L62.1945 34.0587Z" fill="black"/>
</mask>
<g mask="url(#mask0_1310_2301)">
<rect x="83.256" y="24.1543" width="3.06088" height="12.7463" fill="#E0111E"/>
<rect x="88.7656" y="23.5469" width="1.83653" height="12.7463" fill="#E0111E"/>
<rect x="92.4387" y="24.1543" width="2.4487" height="12.7463" fill="#E0111E"/>
<rect x="100.397" y="27.189" width="2.4487" height="12.7463" fill="#E0111E"/>
<rect x="75.9099" y="26.582" width="4.28524" height="12.7463" fill="#E0111E"/>
<rect x="58.1569" y="24.1543" width="5.50959" height="12.7463" fill="#E0111E"/>
<rect x="45.9132" y="24.1543" width="2.44871" height="12.7463" fill="#E0111E"/>
<rect x="52.0349" y="24.1543" width="2.4487" height="12.7463" fill="#E0111E"/>
<rect x="41.6279" y="23.5469" width="0.612179" height="12.7463" fill="#E0111E"/>
<rect x="37.9548" y="24.1543" width="2.4487" height="12.7463" fill="#2D703B"/>
<rect x="54.4838" y="24.1543" width="2.44871" height="12.7463" fill="#2D703B"/>
<rect x="73.4612" y="31.438" width="2.44869" height="12.7463" fill="#2D703B"/>
<rect x="90.6022" y="23.5469" width="0.612167" height="12.7463" fill="#2D703B"/>
<rect x="56.9326" y="24.1543" width="1.22435" height="12.7463" fill="#CBC22B"/>
<rect x="72.2369" y="30.2236" width="1.22435" height="12.7463" fill="#CBC22B"/>
<rect x="90.6022" y="23.5469" width="1.83653" height="12.7463" fill="#CBC22B"/>
<rect x="97.9481" y="25.9751" width="1.83653" height="12.7463" fill="#CBC22B"/>
<rect x="94.8875" y="24.1543" width="3.06088" height="12.7463" fill="#45A742"/>
<rect x="80.8074" y="24.1543" width="2.4487" height="12.7463" fill="#CBC22B"/>
<rect x="42.8524" y="24.1543" width="2.44871" height="12.7463" fill="#CBC22B"/>
<rect x="40.4037" y="24.1543" width="1.22435" height="12.7463" fill="#CBC22B"/>
<rect x="48.3619" y="24.1543" width="3.67305" height="12.7463" fill="#ED7C1D"/>
<rect x="63.6664" y="25.9751" width="2.4487" height="12.7463" fill="#ED7C1D"/>
<rect x="71.6246" y="30.2236" width="0.612175" height="12.7463" fill="#ED7C1D"/>
<rect x="80.1951" y="25.3682" width="0.612183" height="12.7463" fill="#ED7C1D"/>
<rect x="85.7046" y="23.5469" width="3.06087" height="12.7463" fill="#ED7C1D"/>
<rect x="99.7848" y="25.9751" width="0.612175" height="12.7463" fill="#ED7C1D"/>
<rect x="65.5029" y="27.189" width="2.4487" height="12.7463" fill="#F8BE05"/>
<rect x="67.9515" y="33.8657" width="3.67305" height="29.7413" fill="#40702D"/>
<rect x="44.6888" y="24.1543" width="1.22435" height="12.7463" fill="#ED7C1D"/>
<rect x="42.2401" y="24.1543" width="0.612179" height="12.7463" fill="#ED7C1D"/>
</g>
<path d="M68.8697 62.9999L68.3714 62.9597C68.3601 63.0989 68.4076 63.2364 68.5022 63.339C68.5969 63.4416 68.7301 63.4999 68.8697 63.4999V62.9999ZM71.3184 62.9999V63.4999C71.461 63.4999 71.5968 63.4391 71.6917 63.3326C71.7866 63.2262 71.8315 63.0843 71.8152 62.9427L71.3184 62.9999ZM103.152 36.9004L103.064 37.3928C103.229 37.422 103.398 37.3668 103.513 37.2459C103.629 37.125 103.676 36.9543 103.64 36.7911L103.152 36.9004ZM69.788 38.4179L69.3065 38.5528C69.3576 38.7351 69.5073 38.8729 69.6932 38.9088C69.8791 38.9447 70.0694 38.8725 70.1847 38.7223L69.788 38.4179ZM57.8506 25.3681L57.7342 25.8544L57.8506 25.3681ZM62.1359 33.5622L62.1945 34.0587L62.1359 33.5622ZM68.8697 63.4999H71.3184V62.4999H68.8697V63.4999ZM71.8152 62.9427C71.4079 59.4097 70.9042 54.0058 70.7161 49.2778C70.622 46.9122 70.6075 44.7287 70.7211 43.0377C70.778 42.1911 70.8662 41.4829 70.9877 40.9432C71.1155 40.3757 71.2607 40.0896 71.3644 39.9868L70.6603 39.2767C70.3355 39.5988 70.1434 40.1404 70.0121 40.7236C69.8745 41.3346 69.7819 42.1001 69.7234 42.9707C69.6062 44.7142 69.6223 46.9388 69.7169 49.3176C69.9063 54.0785 70.4127 59.5089 70.8217 63.0572L71.8152 62.9427ZM71.3644 39.9868C71.823 39.5321 72.7919 38.9935 74.1503 38.4452C75.4878 37.9055 77.1397 37.3808 78.9033 36.9296C82.4413 36.0243 86.3634 35.4311 89.0441 35.5788L89.0991 34.5803C86.2701 34.4245 82.2339 35.0452 78.6554 35.9608C76.8607 36.42 75.1647 36.9575 73.7761 37.5179C72.4085 38.0698 71.273 38.6693 70.6603 39.2767L71.3644 39.9868ZM89.0441 35.5788C91.7749 35.7292 95.2761 36.1816 98.1048 36.5985C99.5169 36.8066 100.757 37.0053 101.645 37.1519C102.089 37.2252 102.444 37.2855 102.688 37.3274C102.81 37.3484 102.904 37.3648 102.968 37.3759C103 37.3814 103.024 37.3857 103.04 37.3885C103.048 37.39 103.054 37.391 103.059 37.3917C103.061 37.3921 103.062 37.3924 103.063 37.3925C103.064 37.3926 103.064 37.3927 103.064 37.3927C103.064 37.3928 103.064 37.3928 103.064 37.3928C103.064 37.3928 103.064 37.3928 103.152 36.9004C103.239 36.4081 103.239 36.4081 103.239 36.4081C103.239 36.4081 103.238 36.408 103.238 36.408C103.238 36.408 103.238 36.4079 103.237 36.4078C103.236 36.4076 103.234 36.4073 103.232 36.407C103.228 36.4062 103.222 36.4051 103.213 36.4036C103.197 36.4007 103.172 36.3964 103.14 36.3908C103.075 36.3795 102.98 36.363 102.857 36.3419C102.611 36.2996 102.254 36.239 101.808 36.1653C100.916 36.0179 99.6697 35.8183 98.2506 35.6091C95.4166 35.1914 91.8778 34.7333 89.0991 34.5803L89.0441 35.5788ZM103.152 36.9004C103.64 36.7911 103.639 36.7909 103.639 36.7906C103.639 36.7905 103.639 36.7901 103.639 36.7898C103.639 36.7892 103.639 36.7883 103.639 36.7873C103.638 36.7852 103.637 36.7823 103.637 36.7785C103.635 36.7711 103.632 36.7604 103.629 36.7465C103.623 36.7188 103.613 36.6786 103.6 36.6267C103.574 36.5229 103.536 36.3723 103.483 36.1817C103.378 35.8007 103.217 35.2593 102.993 34.6125C102.546 33.3208 101.844 31.5991 100.826 29.892C98.8016 26.4947 95.4437 23.0307 90.265 23.3517L90.3268 24.3497C94.9429 24.0637 98.0129 27.1246 99.9673 30.4039C100.939 32.0351 101.615 33.6897 102.048 34.9397C102.264 35.5637 102.419 36.0845 102.519 36.448C102.569 36.6296 102.606 36.7718 102.63 36.8678C102.642 36.9157 102.65 36.9521 102.656 36.9761C102.659 36.9881 102.661 36.9969 102.662 37.0026C102.663 37.0054 102.663 37.0074 102.663 37.0086C102.664 37.0092 102.664 37.0096 102.664 37.0098C102.664 37.0099 102.664 37.0099 102.664 37.01C102.664 37.0099 102.664 37.0098 103.152 36.9004ZM90.265 23.3517C86.1845 23.6045 81.8471 26.1688 78.1278 29.1829C74.3916 32.2108 71.1968 35.7608 69.3913 38.1135L70.1847 38.7223C71.9502 36.4216 75.0915 32.9308 78.7575 29.9598C82.4404 26.9751 86.5715 24.5825 90.3268 24.3497L90.265 23.3517ZM70.2695 38.283C69.7441 36.4078 68.5088 33.5122 66.4979 30.8624C64.4868 28.2124 61.6679 25.7676 57.9669 24.8819L57.7342 25.8544C61.1344 26.6682 63.7741 28.9274 65.7013 31.4669C67.6288 34.0067 68.8116 36.7862 69.3065 38.5528L70.2695 38.283ZM57.9669 24.8819C53.4504 23.801 48.2508 23.8793 44.2499 24.6495C42.2523 25.0341 40.5172 25.598 39.3059 26.3014C38.1366 26.9805 37.2473 27.9239 37.463 29.1001L38.4466 28.9197C38.3563 28.4269 38.6913 27.8148 39.8081 27.1662C40.883 26.5419 42.4957 26.0056 44.439 25.6315C48.3198 24.8844 53.3742 24.811 57.7342 25.8544L57.9669 24.8819ZM37.463 29.1001C37.6591 30.1695 38.624 31.0644 39.9448 31.7823C41.2941 32.5155 43.1436 33.1354 45.3519 33.5964C49.7733 34.5193 55.7204 34.8229 62.1945 34.0587L62.0773 33.0656C55.6958 33.8188 49.8584 33.5155 45.5562 32.6175C43.4027 32.168 41.6557 31.574 40.4223 30.9036C39.1605 30.2179 38.5566 29.5195 38.4466 28.9197L37.463 29.1001ZM62.1945 34.0587C63.7872 33.8707 65.0486 34.8768 66.0531 36.9333C67.0538 38.9821 67.7059 41.9123 68.1056 45.1583C68.9035 51.6369 68.6758 59.1856 68.3714 62.9597L69.3681 63.0401C69.6757 59.2271 69.9072 51.6054 69.0981 45.0361C68.6944 41.7581 68.0265 38.695 66.9516 36.4944C65.8805 34.3015 64.3107 32.802 62.0773 33.0656L62.1945 34.0587Z" fill="black"/>
<path fill-rule="evenodd" clip-rule="evenodd" d="M118.275 38.1143C115.056 38.1141 112.196 39.9342 112.196 39.9342C112.196 39.9342 108.77 57.8029 112.667 60.0106C119.808 64.0569 125.021 61.1749 125.021 61.1749V39.9342C125.021 39.9342 121.492 38.1145 118.275 38.1143ZM119.114 58.0448L118.897 59.415L122.736 60.0106L122.884 59.0737L121.832 58.8385C121.693 58.8009 121.575 58.7267 121.48 58.6159C121.392 58.5064 121.36 58.3774 121.384 58.2291L123.012 47.9121L122.02 47.7581L118.919 48.2368L118.79 49.0566L120.491 49.3205L119.223 57.3539C119.07 57.4022 118.884 57.4534 118.666 57.5075C118.457 57.555 118.232 57.6001 117.991 57.6427C117.752 57.6776 117.502 57.6989 117.243 57.7066C116.984 57.7144 116.732 57.6993 116.488 57.6614C116.063 57.5955 115.71 57.4807 115.429 57.3172C115.15 57.1458 114.934 56.9284 114.782 56.6649C114.638 56.4026 114.549 56.0968 114.515 55.7477C114.489 55.3998 114.51 55.015 114.576 54.5934L115.807 46.7942L114.839 46.6439L111.714 47.119L111.585 47.9387L113.274 48.2008L112.248 54.7001C112.141 55.3793 112.123 55.9765 112.195 56.4915C112.277 57 112.434 57.4363 112.666 57.8003C112.909 58.1578 113.223 58.4425 113.609 58.6544C114.001 58.8753 114.457 59.026 114.977 59.1067C115.332 59.1616 115.703 59.1593 116.092 59.0996C116.487 59.0489 116.867 58.9679 117.231 58.8565C117.605 58.7385 117.952 58.6045 118.275 58.4545C118.605 58.3058 118.884 58.1692 119.114 58.0448Z" fill="#150200"/>
<path fill-rule="evenodd" clip-rule="evenodd" d="M138.488 41.7563L127.333 42.0598L126.108 61.4827H137.482C137.482 61.4827 138.959 57.3191 138.98 54.5505C138.989 53.3175 138.741 52.3904 138.488 51.4488C138.259 50.5939 137.024 48.034 136.978 46.9156C136.883 44.589 138.488 41.7563 138.488 41.7563ZM135.266 51.3639C135.451 51.5128 135.609 51.6856 135.74 51.8822L136.668 52.0032L136.978 49.6674C136.906 49.619 136.814 49.568 136.703 49.5146C136.601 49.4544 136.486 49.4004 136.359 49.3526C136.232 49.2971 136.101 49.2488 135.965 49.2076C135.828 49.1665 135.698 49.1378 135.575 49.1217C135.296 49.0854 134.994 49.1358 134.669 49.2729C134.352 49.411 134.037 49.5885 133.725 49.8054C133.413 50.0222 133.115 50.2526 132.831 50.4964C132.555 50.7337 132.32 50.9332 132.126 51.0952L132.403 49.001L131.428 48.874L128.362 49.3874L128.26 50.1583L129.977 50.3821L128.893 58.563C128.873 58.7088 128.807 58.8211 128.694 58.9001C128.589 58.98 128.466 59.0186 128.325 59.0158L127.141 58.9551L127.022 59.8526L132.963 60.6269L133.085 59.7064L131.528 59.4332C131.382 59.4064 131.269 59.3409 131.188 59.2367C131.108 59.1249 131.078 58.9961 131.098 58.8504L131.976 52.2228C132.447 51.816 132.897 51.5117 133.325 51.31C133.754 51.1006 134.162 51.0211 134.549 51.0715C134.843 51.1098 135.082 51.2073 135.266 51.3639Z" fill="#150200"/>
<path fill-rule="evenodd" clip-rule="evenodd" d="M85.7046 42.3905C85.7046 38.7212 80.4177 38.7212 80.4177 38.7212L74.6019 46.5842L74.0732 61.7861H84.6472C84.6472 61.7861 84.5288 56.198 85.1759 49.7293C85.2561 48.9278 85.3283 48.278 85.3919 47.707C85.5915 45.9114 85.7046 44.895 85.7046 42.3905ZM84.8455 43.2998C84.9529 43.1277 85.0066 42.9148 85.0066 42.6609C85.0066 42.4561 84.9612 42.2636 84.8703 42.0834C84.7794 41.9032 84.639 41.7435 84.449 41.6043C84.2673 41.4651 84.0401 41.3545 83.7675 41.2726C83.4949 41.1907 83.1809 41.1497 82.8257 41.1497C82.4127 41.1497 81.9996 41.207 81.5866 41.3217C81.1818 41.4364 80.7894 41.6084 80.4094 41.8377C80.0376 42.0671 79.6866 42.3578 79.3561 42.71C79.0339 43.054 78.7489 43.4636 78.5011 43.9386C78.3442 44.2417 78.212 44.5324 78.1046 44.8109C77.9972 45.0812 77.9063 45.3638 77.832 45.6587C77.7659 45.9453 77.7163 46.2566 77.6833 46.5924C77.6585 46.92 77.6461 47.2927 77.6461 47.7104L76.0228 48.165V49.0496H77.6461V58.0797C77.6461 58.2354 77.5924 58.3623 77.485 58.4606C77.3859 58.5589 77.262 58.6162 77.1133 58.6326L75.8617 58.7063V59.6892H82.0327V58.7063L80.5333 58.6326C80.3846 58.6244 80.2566 58.5712 80.1492 58.4729C80.05 58.3664 80.0005 58.2354 80.0005 58.0797V49.0496H83.1479V47.7595H80.0005V46.1501C80.0005 45.5604 80.0418 45.0525 80.1244 44.6266C80.2153 44.1925 80.3309 43.824 80.4713 43.5209C80.62 43.2178 80.7811 42.9762 80.9546 42.796C81.1364 42.6158 81.3181 42.4766 81.4998 42.3783C81.5081 42.3865 81.5701 42.4315 81.6857 42.5135C81.8014 42.5872 81.9418 42.6855 82.107 42.8083C82.2722 42.923 82.4498 43.0458 82.6398 43.1769C82.8381 43.3079 83.0198 43.4349 83.1851 43.5578C83.3585 43.6724 83.5031 43.7748 83.6188 43.8649C83.7427 43.9468 83.8129 43.996 83.8294 44.0123C83.879 44.0041 83.9657 43.9755 84.0896 43.9263C84.2218 43.8772 84.354 43.8035 84.4862 43.7052C84.6266 43.5987 84.7464 43.4636 84.8455 43.2998Z" fill="#150200"/>
<path fill-rule="evenodd" clip-rule="evenodd" d="M94.6617 41.6548C92.8439 38.951 86.929 41.6548 86.929 41.6548V61.5888H96.7238C96.7238 61.5888 95.6927 43.1883 94.6617 41.6548ZM88.6245 59.6083V60.5666H94.6416V59.6083L93.3004 59.5364C93.1877 59.5364 93.0709 59.4805 92.95 59.3687C92.8373 59.2489 92.7809 59.1331 92.7809 59.0213V42.4894H91.766L88.6004 43.4358V44.2504H90.4852V59.0213C90.4852 59.1331 90.4208 59.2489 90.2919 59.3687C90.1711 59.4805 90.0543 59.5364 89.9415 59.5364L88.6245 59.6083Z" fill="#150200"/>
<path fill-rule="evenodd" clip-rule="evenodd" d="M107.656 42.3628C103.724 42.3628 97.3359 45.2862 97.3359 45.2862V59.4163C97.3359 59.4163 107.726 60.878 109.622 59.4163C111.517 57.9546 111.587 42.3628 107.656 42.3628ZM109.878 54.978C110.102 54.6475 110.305 54.3113 110.488 53.9696L109.768 52.7334C109.623 53.0183 109.469 53.3089 109.305 53.6052C109.136 53.8949 108.947 54.179 108.737 54.4575C108.533 54.7323 108.312 54.9911 108.072 55.2339C107.828 55.4701 107.56 55.6719 107.267 55.8394C106.609 56.2163 105.988 56.405 105.403 56.4057C104.814 56.3998 104.271 56.2667 103.774 56.0064C103.276 55.7461 102.821 55.3911 102.409 54.9416C102.003 54.4882 101.65 54.0044 101.351 53.4901L107.974 49.6988C107.934 49.5989 107.883 49.4962 107.821 49.3907L107.666 49.1236C107.316 48.5237 106.914 48.0155 106.459 47.5992C106 47.1763 105.505 46.8749 104.975 46.695C104.441 46.5085 103.875 46.4501 103.277 46.5197C102.675 46.5828 102.059 46.7952 101.427 47.1568C100.729 47.5565 100.16 48.0491 99.7205 48.6346C99.2774 49.2136 98.9774 49.8556 98.8206 50.5607C98.6599 51.2593 98.648 52.0001 98.7849 52.7833C98.9179 53.5599 99.2147 54.3438 99.6754 55.135C100.167 55.9789 100.727 56.6431 101.354 57.1276C101.985 57.6017 102.638 57.9227 103.312 58.0906C103.992 58.2548 104.68 58.2786 105.375 58.1623C106.066 58.0393 106.721 57.8008 107.339 57.4468C107.685 57.2488 108.008 57.0198 108.309 56.7598C108.609 56.4997 108.89 56.2204 109.151 55.9218C109.418 55.6193 109.66 55.3048 109.878 54.978ZM104.499 48.6419C104.744 48.8797 104.965 49.1667 105.16 49.503L105.419 49.948L100.931 52.5175C100.704 52.0671 100.557 51.6324 100.491 51.2134C100.427 50.7841 100.434 50.3846 100.511 50.015C100.595 49.6416 100.747 49.3086 100.967 49.0158C101.182 48.7165 101.46 48.4697 101.799 48.2756C102.138 48.0815 102.467 47.9766 102.786 47.961C103.108 47.9351 103.41 47.9819 103.693 48.1015C103.982 48.2173 104.251 48.3974 104.499 48.6419Z" fill="#150200"/>
<path fill-rule="evenodd" clip-rule="evenodd" d="M30.454 40.6719L19.2982 40.9754L18.0739 60.3982H29.4474C29.4474 60.3982 30.9247 56.2346 30.9457 53.4661C30.955 52.233 30.7064 51.3059 30.454 50.3643C30.2248 49.5095 28.9893 46.9496 28.9437 45.8311C28.849 43.5045 30.454 40.6719 30.454 40.6719ZM27.2314 50.2794C27.4163 50.4284 27.5744 50.6011 27.7057 50.7977L28.6341 50.9187L28.9437 48.5829C28.8715 48.5345 28.7798 48.4836 28.6689 48.4301C28.5667 48.3699 28.4518 48.316 28.3244 48.2681C28.1979 48.2126 28.0666 48.1643 27.9304 48.1232C27.7942 48.082 27.6642 48.0533 27.5404 48.0372C27.2619 48.0009 26.9601 48.0513 26.6349 48.1884C26.3176 48.3266 26.0028 48.504 25.6908 48.7209C25.3787 48.9377 25.0805 49.1681 24.7964 49.412C24.5209 49.6492 24.2859 49.8488 24.0913 50.0107L24.3689 47.9166L23.3941 47.7895L20.3274 48.3029L20.2252 49.0738L21.9428 49.2976L20.8583 57.4786C20.839 57.6243 20.7729 57.7367 20.6602 57.8156C20.5551 57.8956 20.4319 57.9341 20.2907 57.9313L19.1063 57.8706L18.9874 58.7681L24.9291 59.5424L25.0512 58.6219L23.4936 58.3487C23.3477 58.3219 23.2344 58.2564 23.1537 58.1523C23.0741 58.0404 23.0439 57.9116 23.0633 57.7659L23.9418 51.1383C24.4129 50.7315 24.8625 50.4272 25.2906 50.2255C25.7197 50.0161 26.1277 49.9366 26.5146 49.987C26.8086 50.0253 27.0475 50.1228 27.2314 50.2794Z" fill="#150200"/>
<path fill-rule="evenodd" clip-rule="evenodd" d="M7.16869 36.7269L2.1468 37.6373C2.1468 37.6373 -0.206667 44.5188 0.0146904 50.134C0.184262 54.4355 1.5456 61.0057 1.5456 61.0057H17.4622L16.8495 36.7269C16.8495 36.7269 15.8099 33.8341 11.3602 34.6025C9.92557 34.8502 9.67609 35.8909 7.16869 36.7269ZM13.476 42.1509L13.8644 44.6691H15.4847V40.3159H2.14693V41.4946L3.82085 41.6017C4.01726 41.6196 4.1601 41.691 4.24938 41.8161C4.34758 41.9411 4.39668 42.0705 4.39668 42.2045V56.8311C4.39668 56.9651 4.34758 57.0946 4.24938 57.2196C4.1601 57.3446 4.01726 57.416 3.82085 57.4339L2.37459 57.541V58.7197H9.57914V57.541L7.74452 57.4339C7.54811 57.416 7.40081 57.3446 7.30261 57.2196C7.21333 57.0946 7.16869 56.9651 7.16869 56.8311V50.134H11.3602C11.4762 50.134 11.5834 50.192 11.6816 50.3081C11.7798 50.4242 11.8378 50.5313 11.8557 50.6295L12.1101 52.5449H13.476V46.3701H12.1101L11.8557 48.2989C11.8378 48.3972 11.7798 48.5043 11.6816 48.6204C11.5923 48.7365 11.4852 48.7945 11.3602 48.7945H7.16869V41.6553H13.0073C13.1323 41.6553 13.235 41.7044 13.3153 41.8027C13.3957 41.9009 13.4492 42.017 13.476 42.1509Z" fill="#150200"/>
<path fill-rule="evenodd" clip-rule="evenodd" d="M38.8745 38.5479C35.6562 38.5477 32.7956 40.3678 32.7956 40.3678C32.7956 40.3678 29.3699 58.2365 33.2664 60.4442C40.4081 64.4905 45.6212 61.6085 45.6212 61.6085V40.3678C45.6212 40.3678 42.0923 38.548 38.8745 38.5479ZM39.7135 58.4784L39.4973 59.8486L43.3359 60.4442L43.4837 59.5073L42.4318 59.2721C42.2926 59.2345 42.1752 59.1603 42.0798 59.0495C41.9922 58.94 41.9601 58.811 41.9835 58.6627L43.6119 48.3457L42.6197 48.1917L39.5191 48.6704L39.3897 49.4902L41.0905 49.7541L39.8226 57.7875C39.6698 57.8358 39.4842 57.887 39.2659 57.9411C39.0567 57.9886 38.8318 58.0337 38.5912 58.0763C38.3517 58.1112 38.1023 58.1325 37.843 58.1402C37.5836 58.148 37.3319 58.1329 37.0878 58.095C36.6626 58.0291 36.3096 57.9143 36.0289 57.7508C35.7494 57.5794 35.5336 57.362 35.3816 57.0985C35.2375 56.8362 35.1486 56.5304 35.1149 56.1813C35.0892 55.8334 35.1096 55.4486 35.1761 55.027L36.4071 47.2278L35.4386 47.0775L32.3143 47.5526L32.1849 48.3723L33.8739 48.6344L32.8481 55.1337C32.7409 55.8129 32.7233 56.4101 32.7953 56.9251C32.8764 57.4336 33.0334 57.8699 33.2663 58.2339C33.5084 58.5914 33.8224 58.8761 34.2085 59.088C34.6012 59.3089 35.0573 59.4596 35.577 59.5403C35.9314 59.5952 36.3028 59.5929 36.6914 59.5332C37.0866 59.4825 37.4664 59.4015 37.8309 59.2901C38.2044 59.1721 38.5523 59.0381 38.8744 58.8881C39.2045 58.7394 39.4842 58.6028 39.7135 58.4784Z" fill="#150200"/>
<path fill-rule="evenodd" clip-rule="evenodd" d="M50.8639 37.3892C48.604 37.4164 46.2475 38.5493 46.2911 42.0358C46.4129 51.7927 46.5336 61.5491 46.5336 61.5491L55.7923 61.4378L55.5498 41.9246C55.5064 38.438 52.5999 37.3683 50.8639 37.3892ZM51.4269 43.0967C51.4912 42.8724 51.5096 42.6445 51.482 42.4129C51.4544 42.1814 51.3835 41.9684 51.2693 41.7741C51.164 41.5787 51.026 41.4143 50.8553 41.2807C50.6846 41.1472 50.4912 41.0524 50.2751 40.9964C50.067 40.9305 49.8461 40.9112 49.6127 40.9385C49.3792 40.9659 49.16 41.0367 48.9551 41.151C48.7581 41.2553 48.5923 41.3921 48.4577 41.5614C48.3231 41.7306 48.2231 41.923 48.1577 42.1383C48.0924 42.3537 48.0735 42.5771 48.1011 42.8087C48.1287 43.0403 48.2001 43.2577 48.3154 43.4609C48.4296 43.6552 48.5721 43.8192 48.7428 43.9527C48.9135 44.0863 49.1074 44.1855 49.3246 44.2504C49.5507 44.3142 49.7805 44.3324 50.014 44.3051C50.2475 44.2778 50.4577 44.208 50.6446 44.0958C50.8405 43.9826 51.0058 43.8413 51.1404 43.6721C51.275 43.5028 51.3705 43.311 51.4269 43.0967ZM48.4001 59.6383L48.5275 60.7071L55.0065 59.9487L54.8791 58.8799L53.4552 58.9653C53.2914 58.9664 53.1448 58.9204 53.0153 58.8272C52.8948 58.7329 52.8245 58.6012 52.8043 58.432L51.4013 46.6623L50.3102 46.79L47.067 48.2262L47.1817 49.1881L49.0809 48.9658L50.2451 58.7315C50.2652 58.9008 50.2278 59.0451 50.1328 59.1646C50.0378 59.2841 49.906 59.3627 49.7375 59.4005L48.4001 59.6383Z" fill="#150200"/>
<path fill-rule="evenodd" clip-rule="evenodd" d="M66.0656 41.9354L56.8692 40.9756C56.8692 40.9756 56.3355 49.6143 56.3348 56.8131C56.3346 59.9326 58.4575 61.6124 60.7416 61.6124C63.0256 61.6124 66.0656 59.0778 66.0656 56.8131V41.9354ZM63.1807 59.5915C63.521 59.479 63.8349 59.3515 64.1223 59.209V58.2867C63.9786 58.3617 63.8236 58.4291 63.6572 58.4891C63.5135 58.5416 63.3433 58.5866 63.1467 58.6241C62.9576 58.6616 62.7496 58.6803 62.5227 58.6803C62.2126 58.6803 61.9403 58.6354 61.7059 58.5454C61.479 58.4554 61.2861 58.3129 61.1273 58.1179C60.976 57.9155 60.8588 57.6568 60.7756 57.3418C60.7 57.0194 60.6621 56.6294 60.6621 56.172V49.738H63.9408V48.5907H60.6621V45.8011H59.6411L58.5974 48.242L57.0091 48.9843V49.738H58.4953V57.3868C58.4953 58.3017 58.6919 58.9616 59.0852 59.3665C59.4785 59.7714 60.1138 59.9739 60.9911 59.9739C61.4071 59.9739 61.8042 59.9327 62.1824 59.8502C62.5605 59.7752 62.8933 59.6889 63.1807 59.5915Z" fill="#150200"/>
</svg>
