<svg width="216" height="114" viewBox="0 0 216 114" fill="none" xmlns="http://www.w3.org/2000/svg">
<path d="M5.64881 110.564C4.7251 110.564 3.89021 110.36 3.14414 109.951C2.40695 109.543 1.8252 108.979 1.39887 108.259C0.981427 107.531 0.772705 106.718 0.772705 105.821C0.772705 104.924 0.981427 104.116 1.39887 103.397C1.8252 102.668 2.4114 102.1 3.15747 101.691C3.90354 101.283 4.73842 101.078 5.66213 101.078C6.35491 101.078 6.9944 101.194 7.5806 101.425C8.16679 101.656 8.66417 101.993 9.07274 102.437L8.44657 103.064C7.71826 102.326 6.799 101.958 5.68878 101.958C4.95159 101.958 4.28101 102.126 3.67705 102.464C3.07309 102.802 2.59791 103.263 2.25152 103.85C1.91401 104.436 1.74526 105.093 1.74526 105.821C1.74526 106.55 1.91401 107.207 2.25152 107.793C2.59791 108.379 3.07309 108.841 3.67705 109.179C4.28101 109.516 4.95159 109.685 5.68878 109.685C6.80788 109.685 7.72715 109.312 8.44657 108.566L9.07274 109.192C8.66417 109.636 8.16235 109.978 7.56727 110.218C6.98108 110.449 6.34159 110.564 5.64881 110.564Z" fill="white"/>
<path d="M15.6165 104.316H12.9652V110.484H12.0193V104.316H9.36812V103.477H15.6165V104.316Z" fill="white"/>
<path d="M22.9654 103.477L19.4615 111.324C19.1773 111.981 18.8487 112.447 18.4756 112.722C18.1026 112.998 17.6541 113.135 17.13 113.135C16.7925 113.135 16.4772 113.082 16.1841 112.976C15.891 112.869 15.6379 112.709 15.4247 112.496L15.8644 111.79C16.2197 112.145 16.646 112.323 17.1434 112.323C17.4631 112.323 17.734 112.234 17.9561 112.056C18.187 111.879 18.4001 111.577 18.5955 111.15L18.902 110.471L15.7711 103.477H16.757L19.3949 109.432L22.0328 103.477H22.9654Z" fill="white"/>
<path d="M30.9614 109.658V112.176H30.0688V110.484H23.7938V112.176H22.9012V109.658H23.3008C23.7716 109.632 24.0913 109.285 24.2601 108.619C24.4288 107.953 24.5443 107.02 24.6065 105.821L24.6997 103.477H29.8689V109.658H30.9614ZM25.4724 105.875C25.428 106.869 25.3437 107.691 25.2193 108.339C25.095 108.979 24.8729 109.418 24.5532 109.658H28.923V104.316H25.5524L25.4724 105.875Z" fill="white"/>
<path d="M32.8048 103.477H33.7507V109.045L38.427 103.477H39.2663V110.484H38.3204V104.915L33.6575 110.484H32.8048V103.477Z" fill="white"/>
<path d="M47.3595 103.477V110.484H46.4935V108.166H44.0289L42.4035 110.484H41.3776L43.1229 108.033C42.5811 107.882 42.1637 107.624 41.8706 107.26C41.5775 106.896 41.4309 106.434 41.4309 105.875C41.4309 105.093 41.6974 104.498 42.2303 104.089C42.7632 103.681 43.4915 103.477 44.4152 103.477H47.3595ZM42.3902 105.901C42.3902 106.94 43.0519 107.46 44.3752 107.46H46.4935V104.316H44.4419C43.0741 104.316 42.3902 104.844 42.3902 105.901Z" fill="white"/>
<path d="M56.4744 110.551C55.7816 110.551 55.1599 110.4 54.6092 110.098C54.0675 109.796 53.6411 109.374 53.3303 108.832C53.0194 108.282 52.864 107.664 52.864 106.98C52.864 106.296 53.0194 105.684 53.3303 105.142C53.6411 104.6 54.0675 104.178 54.6092 103.876C55.1599 103.574 55.7816 103.423 56.4744 103.423C57.0784 103.423 57.6157 103.543 58.0865 103.783C58.5661 104.014 58.9436 104.356 59.2189 104.809L58.5128 105.288C58.2819 104.942 57.9888 104.684 57.6335 104.516C57.2782 104.338 56.8919 104.249 56.4744 104.249C55.9682 104.249 55.5107 104.365 55.1022 104.596C54.7025 104.818 54.3872 105.137 54.1563 105.555C53.9342 105.972 53.8232 106.447 53.8232 106.98C53.8232 107.522 53.9342 108.002 54.1563 108.419C54.3872 108.828 54.7025 109.148 55.1022 109.378C55.5107 109.601 55.9682 109.712 56.4744 109.712C56.8919 109.712 57.2782 109.627 57.6335 109.458C57.9888 109.29 58.2819 109.032 58.5128 108.686L59.2189 109.165C58.9436 109.618 58.5661 109.965 58.0865 110.204C57.6068 110.435 57.0695 110.551 56.4744 110.551Z" fill="white"/>
<path d="M64.744 105.928C65.6055 105.928 66.2627 106.123 66.7157 106.514C67.1687 106.905 67.3952 107.456 67.3952 108.166C67.3952 108.921 67.1509 109.498 66.6624 109.898C66.1739 110.289 65.4723 110.484 64.5574 110.484H61.7863V104.316H59.6014V103.477H62.7322V105.928H64.744ZM64.5441 109.752C65.1658 109.752 65.6366 109.618 65.9563 109.352C66.2761 109.085 66.4359 108.69 66.4359 108.166C66.4359 107.154 65.8053 106.647 64.5441 106.647H62.7322V109.752H64.5441Z" fill="white"/>
<path d="M75.3234 107.273H69.4614C69.5147 108.002 69.7945 108.592 70.3008 109.045C70.807 109.489 71.4465 109.712 72.2192 109.712C72.6544 109.712 73.0541 109.636 73.4183 109.485C73.7824 109.325 74.0977 109.094 74.3642 108.792L74.8971 109.405C74.5862 109.778 74.1954 110.062 73.7247 110.258C73.2628 110.453 72.7521 110.551 72.1926 110.551C71.4732 110.551 70.8337 110.4 70.2741 110.098C69.7234 109.787 69.2927 109.361 68.9818 108.819C68.671 108.277 68.5155 107.664 68.5155 106.98C68.5155 106.296 68.6621 105.684 68.9552 105.142C69.2571 104.6 69.6657 104.178 70.1809 103.876C70.7049 103.574 71.2911 103.423 71.9395 103.423C72.5878 103.423 73.1696 103.574 73.6847 103.876C74.1999 104.178 74.604 104.6 74.8971 105.142C75.1902 105.675 75.3367 106.288 75.3367 106.98L75.3234 107.273ZM71.9395 104.236C71.2644 104.236 70.696 104.454 70.2341 104.889C69.7812 105.315 69.5236 105.875 69.4614 106.567H74.4308C74.3686 105.875 74.1066 105.315 73.6448 104.889C73.1918 104.454 72.6234 104.236 71.9395 104.236Z" fill="white"/>
<path d="M84.122 109.658V112.176H83.2294V110.484H76.9544V112.176H76.0618V109.658H76.4615C76.9322 109.632 77.2519 109.285 77.4207 108.619C77.5894 107.953 77.7049 107.02 77.7671 105.821L77.8603 103.477H83.0295V109.658H84.122ZM78.6331 105.875C78.5886 106.869 78.5043 107.691 78.3799 108.339C78.2556 108.979 78.0335 109.418 77.7138 109.658H82.0836V104.316H78.713L78.6331 105.875Z" fill="white"/>
<path d="M88.8564 110.551C88.1814 110.551 87.573 110.4 87.0312 110.098C86.4894 109.787 86.0631 109.361 85.7523 108.819C85.4414 108.277 85.286 107.664 85.286 106.98C85.286 106.296 85.4414 105.684 85.7523 105.142C86.0631 104.6 86.4894 104.178 87.0312 103.876C87.573 103.574 88.1814 103.423 88.8564 103.423C89.5315 103.423 90.1399 103.574 90.6817 103.876C91.2234 104.178 91.6453 104.6 91.9473 105.142C92.2582 105.684 92.4136 106.296 92.4136 106.98C92.4136 107.664 92.2582 108.277 91.9473 108.819C91.6453 109.361 91.2234 109.787 90.6817 110.098C90.1399 110.4 89.5315 110.551 88.8564 110.551ZM88.8564 109.712C89.3538 109.712 89.7979 109.601 90.1887 109.378C90.5884 109.148 90.8993 108.823 91.1213 108.406C91.3434 107.988 91.4544 107.513 91.4544 106.98C91.4544 106.447 91.3434 105.972 91.1213 105.555C90.8993 105.137 90.5884 104.818 90.1887 104.596C89.7979 104.365 89.3538 104.249 88.8564 104.249C88.3591 104.249 87.9105 104.365 87.5109 104.596C87.1201 104.818 86.8092 105.137 86.5783 105.555C86.3562 105.972 86.2452 106.447 86.2452 106.98C86.2452 107.513 86.3562 107.988 86.5783 108.406C86.8092 108.823 87.1201 109.148 87.5109 109.378C87.9105 109.601 88.3591 109.712 88.8564 109.712Z" fill="white"/>
<path d="M97.8325 103.65C98.4809 103.65 99.0582 103.796 99.5644 104.089C100.08 104.374 100.479 104.778 100.763 105.302C101.048 105.817 101.19 106.408 101.19 107.074C101.19 107.758 101.039 108.366 100.737 108.899C100.444 109.423 100.031 109.831 99.4978 110.125C98.9649 110.418 98.3521 110.564 97.6593 110.564C96.4958 110.564 95.5943 110.156 94.9548 109.339C94.3153 108.521 93.9956 107.393 93.9956 105.955C93.9956 104.454 94.2798 103.303 94.8482 102.504C95.4255 101.705 96.3226 101.163 97.5394 100.879L100.684 100.159L100.843 101.025L97.8858 101.705C96.8821 101.927 96.145 102.322 95.6742 102.89C95.2035 103.45 94.9459 104.28 94.9015 105.382C95.1857 104.84 95.581 104.418 96.0872 104.116C96.5935 103.805 97.1752 103.65 97.8325 103.65ZM97.6859 109.778C98.1744 109.778 98.6097 109.667 98.9916 109.445C99.3824 109.214 99.6844 108.894 99.8975 108.486C100.12 108.077 100.231 107.615 100.231 107.1C100.231 106.585 100.124 106.132 99.9108 105.741C99.6977 105.351 99.3957 105.049 99.0049 104.835C98.623 104.613 98.1833 104.502 97.6859 104.502C97.1886 104.502 96.7445 104.613 96.3537 104.835C95.9718 105.049 95.6698 105.351 95.4477 105.741C95.2346 106.132 95.128 106.585 95.128 107.1C95.128 107.615 95.2346 108.077 95.4477 108.486C95.6698 108.894 95.9762 109.214 96.367 109.445C96.7578 109.667 97.1974 109.778 97.6859 109.778Z" fill="white"/>
<path d="M103.217 103.477H104.163V106.581H108.573V103.477H109.519V110.484H108.573V107.393H104.163V110.484H103.217V103.477Z" fill="white"/>
<path d="M115.098 110.551C114.423 110.551 113.815 110.4 113.273 110.098C112.731 109.787 112.305 109.361 111.994 108.819C111.683 108.277 111.528 107.664 111.528 106.98C111.528 106.296 111.683 105.684 111.994 105.142C112.305 104.6 112.731 104.178 113.273 103.876C113.815 103.574 114.423 103.423 115.098 103.423C115.773 103.423 116.382 103.574 116.924 103.876C117.465 104.178 117.887 104.6 118.189 105.142C118.5 105.684 118.656 106.296 118.656 106.98C118.656 107.664 118.5 108.277 118.189 108.819C117.887 109.361 117.465 109.787 116.924 110.098C116.382 110.4 115.773 110.551 115.098 110.551ZM115.098 109.712C115.596 109.712 116.04 109.601 116.431 109.378C116.83 109.148 117.141 108.823 117.363 108.406C117.585 107.988 117.696 107.513 117.696 106.98C117.696 106.447 117.585 105.972 117.363 105.555C117.141 105.137 116.83 104.818 116.431 104.596C116.04 104.365 115.596 104.249 115.098 104.249C114.601 104.249 114.153 104.365 113.753 104.596C113.362 104.818 113.051 105.137 112.82 105.555C112.598 105.972 112.487 106.447 112.487 106.98C112.487 107.513 112.598 107.988 112.82 108.406C113.051 108.823 113.362 109.148 113.753 109.378C114.153 109.601 114.601 109.712 115.098 109.712Z" fill="white"/>
<path d="M120.677 103.477H121.623V109.045L126.299 103.477H127.139V110.484H126.193V104.915L121.53 110.484H120.677V103.477ZM123.861 102.464C123.257 102.464 122.778 102.313 122.423 102.011C122.067 101.709 121.885 101.283 121.876 100.732H122.556C122.565 101.078 122.689 101.358 122.929 101.571C123.169 101.776 123.479 101.878 123.861 101.878C124.243 101.878 124.554 101.776 124.794 101.571C125.043 101.358 125.171 101.078 125.18 100.732H125.86C125.851 101.283 125.664 101.709 125.3 102.011C124.945 102.313 124.465 102.464 123.861 102.464Z" fill="white"/>
<path d="M141.796 106.967C141.796 108.06 141.437 108.917 140.717 109.538C139.998 110.16 138.981 110.498 137.666 110.551V113.069H136.747V110.564C135.441 110.511 134.429 110.173 133.709 109.552C132.999 108.921 132.644 108.06 132.644 106.967C132.644 105.883 132.999 105.035 133.709 104.422C134.429 103.81 135.441 103.477 136.747 103.423V100.599H137.666V103.423C138.981 103.485 139.998 103.823 140.717 104.436C141.437 105.049 141.796 105.892 141.796 106.967ZM133.576 106.967C133.576 107.802 133.843 108.455 134.376 108.926C134.917 109.396 135.708 109.663 136.747 109.725V104.263C135.717 104.316 134.931 104.578 134.389 105.049C133.847 105.51 133.576 106.15 133.576 106.967ZM137.666 109.725C138.705 109.672 139.496 109.41 140.038 108.939C140.588 108.468 140.864 107.811 140.864 106.967C140.864 106.141 140.588 105.497 140.038 105.035C139.496 104.573 138.705 104.316 137.666 104.263V109.725Z" fill="white"/>
<path d="M149.487 103.477V110.484H148.541V104.316H145.183L145.09 106.048C145.019 107.504 144.85 108.624 144.584 109.405C144.317 110.187 143.842 110.578 143.158 110.578C142.972 110.578 142.745 110.542 142.479 110.471L142.545 109.658C142.705 109.694 142.816 109.712 142.878 109.712C143.243 109.712 143.518 109.543 143.704 109.205C143.891 108.868 144.015 108.45 144.077 107.953C144.14 107.456 144.193 106.798 144.237 105.981L144.357 103.477H149.487Z" fill="white"/>
<path d="M155.067 110.551C154.392 110.551 153.783 110.4 153.241 110.098C152.7 109.787 152.273 109.361 151.962 108.819C151.651 108.277 151.496 107.664 151.496 106.98C151.496 106.296 151.651 105.684 151.962 105.142C152.273 104.6 152.7 104.178 153.241 103.876C153.783 103.574 154.392 103.423 155.067 103.423C155.742 103.423 156.35 103.574 156.892 103.876C157.434 104.178 157.855 104.6 158.157 105.142C158.468 105.684 158.624 106.296 158.624 106.98C158.624 107.664 158.468 108.277 158.157 108.819C157.855 109.361 157.434 109.787 156.892 110.098C156.35 110.4 155.742 110.551 155.067 110.551ZM155.067 109.712C155.564 109.712 156.008 109.601 156.399 109.378C156.798 109.148 157.109 108.823 157.331 108.406C157.553 107.988 157.664 107.513 157.664 106.98C157.664 106.447 157.553 105.972 157.331 105.555C157.109 105.137 156.798 104.818 156.399 104.596C156.008 104.365 155.564 104.249 155.067 104.249C154.569 104.249 154.121 104.365 153.721 104.596C153.33 104.818 153.019 105.137 152.788 105.555C152.566 105.972 152.455 106.447 152.455 106.98C152.455 107.513 152.566 107.988 152.788 108.406C153.019 108.823 153.33 109.148 153.721 109.378C154.121 109.601 154.569 109.712 155.067 109.712Z" fill="white"/>
<path d="M164.256 103.423C164.913 103.423 165.508 103.574 166.041 103.876C166.574 104.169 166.991 104.587 167.293 105.129C167.595 105.67 167.746 106.288 167.746 106.98C167.746 107.682 167.595 108.304 167.293 108.846C166.991 109.387 166.574 109.809 166.041 110.111C165.517 110.404 164.922 110.551 164.256 110.551C163.687 110.551 163.172 110.435 162.71 110.204C162.257 109.965 161.884 109.618 161.591 109.165V113.069H160.645V103.477H161.551V104.862C161.835 104.4 162.208 104.045 162.67 103.796C163.141 103.548 163.67 103.423 164.256 103.423ZM164.189 109.712C164.678 109.712 165.122 109.601 165.521 109.378C165.921 109.148 166.232 108.823 166.454 108.406C166.685 107.988 166.8 107.513 166.8 106.98C166.8 106.447 166.685 105.977 166.454 105.568C166.232 105.151 165.921 104.827 165.521 104.596C165.122 104.365 164.678 104.249 164.189 104.249C163.692 104.249 163.243 104.365 162.844 104.596C162.453 104.827 162.142 105.151 161.911 105.568C161.689 105.977 161.578 106.447 161.578 106.98C161.578 107.513 161.689 107.988 161.911 108.406C162.142 108.823 162.453 109.148 162.844 109.378C163.243 109.601 163.692 109.712 164.189 109.712Z" fill="white"/>
<path d="M169.779 103.477H170.725V109.045L175.401 103.477H176.24V110.484H175.294V104.915L170.631 110.484H169.779V103.477Z" fill="white"/>
<path d="M181.882 110.551C181.189 110.551 180.567 110.4 180.017 110.098C179.475 109.796 179.049 109.374 178.738 108.832C178.427 108.282 178.272 107.664 178.272 106.98C178.272 106.296 178.427 105.684 178.738 105.142C179.049 104.6 179.475 104.178 180.017 103.876C180.567 103.574 181.189 103.423 181.882 103.423C182.486 103.423 183.023 103.543 183.494 103.783C183.974 104.014 184.351 104.356 184.626 104.809L183.92 105.288C183.689 104.942 183.396 104.684 183.041 104.516C182.686 104.338 182.299 104.249 181.882 104.249C181.376 104.249 180.918 104.365 180.51 104.596C180.11 104.818 179.795 105.137 179.564 105.555C179.342 105.972 179.231 106.447 179.231 106.98C179.231 107.522 179.342 108.002 179.564 108.419C179.795 108.828 180.11 109.148 180.51 109.378C180.918 109.601 181.376 109.712 181.882 109.712C182.299 109.712 182.686 109.627 183.041 109.458C183.396 109.29 183.689 109.032 183.92 108.686L184.626 109.165C184.351 109.618 183.974 109.965 183.494 110.204C183.014 110.435 182.477 110.551 181.882 110.551Z" fill="white"/>
<path d="M191.257 104.316H188.606V110.484H187.66V104.316H185.009V103.477H191.257V104.316Z" fill="white"/>
<path d="M192.625 103.477H193.571V109.045L198.247 103.477H199.086V110.484H198.141V104.915L193.478 110.484H192.625V103.477Z" fill="white"/>
<path d="M204.342 107.367H202.743V110.484H201.797V103.477H202.743V106.554H204.355L206.82 103.477H207.846L205.088 106.874L208.046 110.484H206.927L204.342 107.367Z" fill="white"/>
<path d="M209.538 103.477H210.484V109.045L215.161 103.477H216V110.484H215.054V104.915L210.391 110.484H209.538V103.477Z" fill="white"/>
<path d="M95.4149 38.5912C89.8567 30.7171 96.8044 14.969 102.826 9.87407C106.813 6.50055 112.344 7.54789 115.795 8.97198L119.037 2L120.427 8.48451L125.058 5.70543V13.5795L133.396 14.0427L128.301 17.7481L134.322 20.9903L128.082 21.4535C130.36 29.0598 125.863 38.3396 117.647 40.9071C110.237 43.2229 99.8614 44.8904 95.4149 38.5912Z" fill="#E0131E"/>
<path d="M115.795 8.97198C116.513 9.26851 117.142 9.58138 117.647 9.87407C119.248 10.8004 125.705 16.0543 127.374 19.6008C127.658 20.2037 127.893 20.8229 128.082 21.4535M115.795 8.97198C112.344 7.54789 106.813 6.50055 102.826 9.87407C96.8044 14.969 89.8567 30.7171 95.4149 38.5912C99.8614 44.8904 110.237 43.2229 117.647 40.9071C125.863 38.3396 130.36 29.0598 128.082 21.4535M115.795 8.97198L119.037 2L120.427 8.48451L125.058 5.70543V13.5795L133.396 14.0427L128.301 17.7481L134.322 20.9903L128.082 21.4535M108.384 19.6008C107.303 20.064 105.698 21.2683 107.921 22.3799C110.7 23.7694 110.237 19.1376 108.384 19.6008ZM103.752 28.8644C102.98 29.3276 101.899 30.4392 103.752 31.1803C106.068 32.1066 105.605 28.4012 103.752 28.8644ZM99.1204 22.8431C98.3484 23.3062 97.0824 24.5105 98.194 25.6221C99.5836 27.0117 101.436 23.3062 99.1204 22.8431ZM121.353 27.938C120.89 29.0188 120.427 30.995 122.279 30.2539C124.595 29.3276 122.279 26.0853 121.353 27.938ZM114.405 27.4749C114.097 28.4012 113.757 30.1613 114.868 29.7908C116.258 29.3276 115.795 25.159 114.405 27.4749ZM119.963 19.1376C119.192 19.9096 118.111 21.6388 119.963 22.3799C122.279 23.3062 121.816 17.7481 119.963 19.1376ZM112.089 11.2636C111.163 12.0355 109.866 13.7648 112.089 14.5058C114.868 15.4322 113.479 10.8004 112.089 11.2636ZM103.752 13.5795C103.752 13.5795 102.733 16.7291 104.215 16.3586C108.384 15.3164 103.752 13.5795 103.752 13.5795ZM96.8045 31.1803C96.3413 32.261 95.6929 34.3299 96.8045 33.9594C98.194 33.4962 98.1941 29.7908 96.8045 31.1803ZM102.826 36.2753C102.165 36.6208 101.842 37.3844 101.899 38.128C101.943 38.6983 102.723 38.6721 103.289 38.5912C104.049 38.4826 104.679 38.128 104.679 37.2016C104.679 36.2753 103.543 35.9005 102.826 36.2753ZM111.626 35.8121C111.009 36.4297 110.237 37.7574 112.089 38.128C113.942 38.4985 113.788 37.0472 113.479 36.2753C113.325 35.8121 112.738 35.071 111.626 35.8121Z" stroke="black"/>
<path d="M108.384 19.6004C107.303 20.0635 105.698 21.2678 107.921 22.3794C110.7 23.769 110.237 19.1372 108.384 19.6004Z" fill="#9E7373"/>
<path d="M103.752 28.8639C102.98 29.3271 101.899 30.4387 103.752 31.1798C106.068 32.1062 105.605 28.4008 103.752 28.8639Z" fill="#9E7373"/>
<path d="M99.1204 22.8426C98.3484 23.3058 97.0824 24.5101 98.194 25.6217C99.5835 27.0112 101.436 23.3058 99.1204 22.8426Z" fill="#9E7373"/>
<path d="M121.353 27.9376C120.89 29.0183 120.427 30.9946 122.279 30.2535C124.595 29.3271 122.279 26.0849 121.353 27.9376Z" fill="#9E7373"/>
<path d="M114.405 27.4744C114.096 28.4008 113.757 30.1608 114.868 29.7903C116.258 29.3271 115.795 25.1585 114.405 27.4744Z" fill="#9E7373"/>
<path d="M119.963 19.1372C119.191 19.9091 118.111 21.6383 119.963 22.3794C122.279 23.3058 121.816 17.7476 119.963 19.1372Z" fill="#9E7373"/>
<path d="M112.089 11.2631C111.163 12.0351 109.866 13.7643 112.089 14.5054C114.868 15.4317 113.479 10.7999 112.089 11.2631Z" fill="#9E7373"/>
<path d="M103.752 13.579C103.752 13.579 102.733 16.7286 104.215 16.3581C108.384 15.3159 103.752 13.579 103.752 13.579Z" fill="#9E7373"/>
<path d="M96.8045 31.1798C96.3413 32.2606 95.6928 34.3295 96.8045 33.9589C98.194 33.4957 98.1941 29.7903 96.8045 31.1798Z" fill="#9E7373"/>
<path d="M101.899 38.1275C101.842 37.3839 102.165 36.6203 102.826 36.2748C103.543 35.9 104.679 36.2748 104.679 37.2012C104.679 38.1275 104.049 38.4822 103.289 38.5907C102.723 38.6716 101.943 38.6978 101.899 38.1275Z" fill="#9E7373"/>
<path d="M112.089 38.1275C110.237 37.757 111.009 36.4292 111.626 35.8116C112.738 35.0705 113.325 35.8116 113.479 36.2748C113.788 37.0468 113.942 38.4981 112.089 38.1275Z" fill="#9E7373"/>
<path d="M108.384 19.6004C107.303 20.0635 105.698 21.2678 107.921 22.3794C110.7 23.769 110.237 19.1372 108.384 19.6004Z" stroke="black"/>
<path d="M103.752 28.8639C102.98 29.3271 101.899 30.4387 103.752 31.1798C106.068 32.1062 105.605 28.4008 103.752 28.8639Z" stroke="black"/>
<path d="M99.1204 22.8426C98.3484 23.3058 97.0824 24.5101 98.194 25.6217C99.5835 27.0112 101.436 23.3058 99.1204 22.8426Z" stroke="black"/>
<path d="M121.353 27.9376C120.89 29.0183 120.427 30.9946 122.279 30.2535C124.595 29.3271 122.279 26.0849 121.353 27.9376Z" stroke="black"/>
<path d="M114.405 27.4744C114.096 28.4008 113.757 30.1608 114.868 29.7903C116.258 29.3271 115.795 25.1585 114.405 27.4744Z" stroke="black"/>
<path d="M119.963 19.1372C119.191 19.9091 118.111 21.6383 119.963 22.3794C122.279 23.3058 121.816 17.7476 119.963 19.1372Z" stroke="black"/>
<path d="M112.089 11.2631C111.163 12.0351 109.866 13.7643 112.089 14.5054C114.868 15.4317 113.479 10.7999 112.089 11.2631Z" stroke="black"/>
<path d="M103.752 13.579C103.752 13.579 102.733 16.7286 104.215 16.3581C108.384 15.3159 103.752 13.579 103.752 13.579Z" stroke="black"/>
<path d="M96.8045 31.1798C96.3413 32.2606 95.6928 34.3295 96.8045 33.9589C98.194 33.4957 98.1941 29.7903 96.8045 31.1798Z" stroke="black"/>
<path d="M101.899 38.1275C101.842 37.3839 102.165 36.6203 102.826 36.2748C103.543 35.9 104.679 36.2748 104.679 37.2012C104.679 38.1275 104.049 38.4822 103.289 38.5907C102.723 38.6716 101.943 38.6978 101.899 38.1275Z" stroke="black"/>
<path d="M112.089 38.1275C110.237 37.757 111.009 36.4292 111.626 35.8116C112.738 35.0705 113.325 35.8116 113.479 36.2748C113.788 37.0468 113.942 38.4981 112.089 38.1275Z" stroke="black"/>
<path d="M121.816 13.1163L116.258 8.94769L119.037 2L120.426 8.48451L125.058 5.70543V13.5795L133.395 14.0427L128.3 17.7481L134.322 20.9903L128.3 21.4535L127.837 20.5272L125.985 17.2849L121.816 13.1163Z" fill="#176938"/>
<mask id="mask0_1436_6896" style="mask-type:alpha" maskUnits="userSpaceOnUse" x="56" y="34" width="101" height="62">
<path d="M107.921 95.0994H104.215C105.141 83.5198 105.605 48.7927 94.0254 50.1711C74.5718 52.4869 58.3604 48.3184 57.434 43.2234C56.5077 38.1284 74.1085 34.423 87.5407 37.6653C98.2864 40.2591 104.061 52.0238 105.605 57.582C111.008 50.4799 124.78 36.0904 136.638 35.3493C151.459 34.423 156.091 55.266 156.091 55.266C156.091 55.266 143.122 52.9501 134.785 52.4869C126.448 52.0237 110.7 56.1923 107.457 59.4346C104.864 62.0284 106.685 84.2919 107.921 95.0994Z" fill="#C4C4C4"/>
<path d="M104.215 95.0994L103.717 95.0595C103.706 95.1986 103.753 95.336 103.848 95.4386C103.942 95.5411 104.076 95.5994 104.215 95.5994V95.0994ZM107.921 95.0994V95.5994C108.063 95.5994 108.199 95.5386 108.294 95.4323C108.389 95.326 108.434 95.1842 108.417 95.0426L107.921 95.0994ZM107.457 59.4346L107.811 59.7882L107.457 59.4346ZM156.091 55.266L156.003 55.7582C156.168 55.7876 156.336 55.7328 156.452 55.6121C156.568 55.4914 156.616 55.3208 156.579 55.1576L156.091 55.266ZM136.638 35.3493L136.606 34.8503L136.638 35.3493ZM105.605 57.582L105.123 57.7158C105.174 57.8988 105.324 58.0372 105.51 58.073C105.697 58.1088 105.888 58.0359 106.003 57.8847L105.605 57.582ZM87.5407 37.6653L87.4234 38.1513L87.5407 37.6653ZM57.434 43.2234L56.9421 43.3129L57.434 43.2234ZM94.0254 50.1711L94.0845 50.6676L94.0254 50.1711ZM104.215 95.5994H107.921V94.5994H104.215V95.5994ZM108.417 95.0426C107.801 89.6465 107.038 81.3918 106.753 74.1672C106.61 70.5531 106.588 67.2097 106.761 64.6149C106.847 63.3164 106.982 62.2201 107.17 61.3774C107.364 60.5067 107.596 60.0026 107.811 59.7882L107.104 59.081C106.67 59.515 106.392 60.2741 106.194 61.1596C105.99 62.0731 105.851 63.2262 105.763 64.5484C105.587 67.1953 105.61 70.5795 105.754 74.2066C106.04 81.464 106.805 89.7448 107.424 95.1562L108.417 95.0426ZM107.811 59.7882C108.545 59.0544 110.053 58.2167 112.111 57.3792C114.148 56.5501 116.659 55.7461 119.335 55.0554C124.7 53.6711 130.663 52.7587 134.757 52.9861L134.813 51.9877C130.569 51.7519 124.49 52.6923 119.086 54.0871C116.378 54.7859 113.823 55.603 111.734 56.453C109.667 57.2944 107.991 58.1936 107.104 59.081L107.811 59.7882ZM134.757 52.9861C138.902 53.2164 144.209 53.9082 148.491 54.5447C150.63 54.8626 152.508 55.1661 153.852 55.3901C154.524 55.5021 155.062 55.5942 155.432 55.6583C155.617 55.6903 155.76 55.7153 155.857 55.7323C155.905 55.7408 155.942 55.7473 155.966 55.7517C155.979 55.7539 155.988 55.7555 155.994 55.7566C155.997 55.7572 156 55.7576 156.001 55.7578C156.002 55.758 156.002 55.7581 156.003 55.7581C156.003 55.7582 156.003 55.7582 156.003 55.7582C156.003 55.7582 156.003 55.7582 156.091 55.266C156.179 54.7738 156.179 54.7738 156.179 54.7738C156.179 54.7738 156.179 54.7737 156.178 54.7737C156.178 54.7736 156.177 54.7735 156.177 54.7734C156.175 54.7731 156.173 54.7726 156.169 54.7721C156.163 54.7709 156.154 54.7693 156.141 54.767C156.116 54.7626 156.079 54.756 156.03 54.7475C155.933 54.7303 155.789 54.7051 155.603 54.6729C155.231 54.6085 154.691 54.5161 154.017 54.4037C152.668 54.179 150.784 53.8746 148.638 53.5556C144.351 52.9183 139.005 52.2206 134.813 51.9877L134.757 52.9861ZM156.091 55.266C156.579 55.1576 156.579 55.1573 156.579 55.157C156.579 55.1568 156.579 55.1564 156.579 55.156C156.579 55.1551 156.578 55.1539 156.578 55.1524C156.577 55.1495 156.577 55.1453 156.575 55.1398C156.573 55.1289 156.569 55.113 156.564 55.0924C156.555 55.0511 156.54 54.9908 156.521 54.9126C156.483 54.7563 156.424 54.5286 156.345 54.2402C156.187 53.6633 155.946 52.8425 155.609 51.8614C154.936 49.9011 153.881 47.2913 152.353 44.7059C149.308 39.5533 144.301 34.3694 136.606 34.8503L136.669 35.8484C143.796 35.4029 148.516 40.1774 151.492 45.2147C152.975 47.7242 154.004 50.2673 154.663 52.1861C154.992 53.1446 155.228 53.9449 155.381 54.5043C155.458 54.784 155.513 55.0032 155.55 55.1517C155.568 55.226 155.582 55.2826 155.591 55.3201C155.595 55.3389 155.598 55.3529 155.6 55.362C155.601 55.3666 155.602 55.3699 155.603 55.372C155.603 55.3731 155.603 55.3738 155.603 55.3742C155.603 55.3744 155.603 55.3745 155.603 55.3746C155.603 55.3746 155.603 55.3745 156.091 55.266ZM136.606 34.8503C130.514 35.2311 124.003 39.1008 118.385 43.6931C112.749 48.2995 107.928 53.7021 105.207 57.2792L106.003 57.8847C108.685 54.3597 113.452 49.0165 119.017 44.4674C124.6 39.9042 130.904 36.2087 136.669 35.8484L136.606 34.8503ZM106.086 57.4481C105.299 54.6152 103.444 50.2265 100.423 46.2114C97.4017 42.1962 93.1822 38.5126 87.658 37.1792L87.4234 38.1513C92.6449 39.4117 96.6854 42.9074 99.6238 46.8126C102.562 50.7178 104.366 54.9906 105.123 57.7158L106.086 57.4481ZM87.658 37.1792C80.863 35.5391 73.0315 35.6574 67.0076 36.827C63.9984 37.4113 61.4039 38.2648 59.6058 39.3181C57.848 40.3478 56.6489 41.7003 56.9421 43.3129L57.926 43.134C57.756 42.199 58.4096 41.1777 60.1112 40.181C61.7725 39.2079 64.2439 38.3824 67.1982 37.8087C73.1011 36.6625 80.7861 36.5492 87.4234 38.1513L87.658 37.1792ZM56.9421 43.3129C57.2161 44.8201 58.5816 46.1347 60.5662 47.2225C62.5784 48.3255 65.3512 49.265 68.679 49.9656C75.3394 51.3677 84.311 51.8311 94.0845 50.6676L93.9663 49.6746C84.2862 50.827 75.4253 50.3639 68.885 48.987C65.6125 48.2981 62.9428 47.3849 61.0469 46.3456C59.1234 45.2913 58.1151 44.1742 57.926 43.134L56.9421 43.3129ZM94.0845 50.6676C96.6561 50.3615 98.6444 52.0227 100.183 55.1992C101.717 58.3664 102.708 62.8739 103.313 67.8366C104.524 77.7486 104.178 89.2891 103.717 95.0595L104.714 95.1393C105.178 89.3302 105.527 77.7173 104.306 67.7154C103.696 62.7211 102.69 58.0816 101.083 54.7633C99.4803 51.4543 97.1843 49.2915 93.9663 49.6746L94.0845 50.6676Z" fill="black"/>
</mask>
<g mask="url(#mask0_1436_6896)">
<rect x="125.985" y="35.8125" width="4.63179" height="19.4535" fill="#E0111E"/>
<rect x="134.322" y="34.8857" width="2.77907" height="19.4535" fill="#E0111E"/>
<rect x="139.88" y="35.8125" width="3.70543" height="19.4535" fill="#E0111E"/>
<rect x="151.923" y="40.4443" width="3.70543" height="19.4535" fill="#E0111E"/>
<rect x="114.869" y="39.5176" width="6.48451" height="19.4535" fill="#E0111E"/>
<rect x="88.0042" y="35.8125" width="8.33722" height="19.4535" fill="#E0111E"/>
<rect x="69.4769" y="35.8125" width="3.70543" height="19.4535" fill="#E0111E"/>
<rect x="78.7404" y="35.8125" width="3.70543" height="19.4535" fill="#E0111E"/>
<rect x="62.9924" y="34.8857" width="0.926358" height="19.4535" fill="#E0111E"/>
<rect x="57.4342" y="35.8125" width="3.70543" height="19.4535" fill="#2D703B"/>
<rect x="82.4459" y="35.8125" width="3.70543" height="19.4535" fill="#2D703B"/>
<rect x="111.163" y="46.9287" width="3.70543" height="19.4535" fill="#2D703B"/>
<rect x="137.101" y="34.8857" width="0.926358" height="19.4535" fill="#2D703B"/>
<rect x="86.1516" y="35.8125" width="1.85272" height="19.4535" fill="#CBC22B"/>
<rect x="109.31" y="45.0752" width="1.85272" height="19.4535" fill="#CBC22B"/>
<rect x="137.101" y="34.8857" width="2.77907" height="19.4535" fill="#CBC22B"/>
<rect x="148.217" y="38.5908" width="2.77907" height="19.4535" fill="#CBC22B"/>
<rect x="143.586" y="35.8125" width="4.63179" height="19.4535" fill="#45A742"/>
<rect x="122.279" y="35.8125" width="3.70543" height="19.4535" fill="#CBC22B"/>
<rect x="64.8451" y="35.8125" width="3.70543" height="19.4535" fill="#CBC22B"/>
<rect x="61.1396" y="35.8125" width="1.85272" height="19.4535" fill="#CBC22B"/>
<rect x="73.1823" y="35.8125" width="5.55815" height="19.4535" fill="#ED7C1D"/>
<rect x="96.3413" y="38.5908" width="3.70543" height="19.4535" fill="#ED7C1D"/>
<rect x="108.384" y="45.0752" width="0.926358" height="19.4535" fill="#ED7C1D"/>
<rect x="121.353" y="37.666" width="0.926358" height="19.4535" fill="#ED7C1D"/>
<rect x="129.69" y="34.8857" width="4.63179" height="19.4535" fill="#ED7C1D"/>
<rect x="150.996" y="38.5908" width="0.926358" height="19.4535" fill="#ED7C1D"/>
<rect x="99.1205" y="40.4443" width="3.70543" height="19.4535" fill="#F8BE05"/>
<rect x="102.826" y="50.6338" width="5.55815" height="45.3916" fill="#40702D"/>
<rect x="67.6241" y="35.8125" width="1.85272" height="19.4535" fill="#ED7C1D"/>
<rect x="63.9187" y="35.8125" width="0.926358" height="19.4535" fill="#ED7C1D"/>
</g>
<path d="M104.215 95.0994L103.717 95.0595C103.706 95.1986 103.753 95.336 103.848 95.4386C103.942 95.5411 104.076 95.5994 104.215 95.5994V95.0994ZM107.921 95.0994V95.5994C108.063 95.5994 108.199 95.5386 108.294 95.4323C108.389 95.326 108.434 95.1842 108.417 95.0426L107.921 95.0994ZM156.091 55.266L156.003 55.7582C156.168 55.7876 156.336 55.7328 156.452 55.6121C156.568 55.4914 156.616 55.3208 156.579 55.1576L156.091 55.266ZM105.605 57.582L105.123 57.7158C105.174 57.8988 105.324 58.0372 105.51 58.073C105.697 58.1088 105.888 58.0359 106.003 57.8847L105.605 57.582ZM87.5407 37.6653L87.4234 38.1513L87.5407 37.6653ZM94.0254 50.1711L94.0845 50.6676L94.0254 50.1711ZM104.215 95.5994H107.921V94.5994H104.215V95.5994ZM108.417 95.0426C107.801 89.6465 107.038 81.3918 106.753 74.1672C106.61 70.5531 106.588 67.2097 106.761 64.6149C106.847 63.3164 106.982 62.2201 107.17 61.3774C107.364 60.5067 107.596 60.0026 107.811 59.7882L107.104 59.081C106.67 59.515 106.392 60.2741 106.194 61.1596C105.99 62.0731 105.851 63.2262 105.763 64.5484C105.587 67.1953 105.61 70.5795 105.753 74.2066C106.04 81.464 106.805 89.7448 107.424 95.1562L108.417 95.0426ZM107.811 59.7882C108.545 59.0544 110.053 58.2167 112.111 57.3792C114.148 56.5501 116.659 55.7461 119.335 55.0554C124.7 53.6711 130.663 52.7587 134.757 52.9861L134.813 51.9877C130.569 51.7519 124.49 52.6923 119.086 54.0871C116.378 54.7859 113.823 55.603 111.734 56.453C109.667 57.2944 107.991 58.1936 107.104 59.081L107.811 59.7882ZM134.757 52.9861C138.902 53.2164 144.209 53.9082 148.491 54.5447C150.63 54.8626 152.508 55.1661 153.852 55.3901C154.524 55.5021 155.062 55.5942 155.432 55.6583C155.617 55.6903 155.76 55.7153 155.857 55.7323C155.905 55.7408 155.942 55.7473 155.966 55.7517C155.979 55.7539 155.988 55.7555 155.994 55.7566C155.997 55.7572 156 55.7576 156.001 55.7578C156.002 55.758 156.002 55.7581 156.003 55.7581C156.003 55.7582 156.003 55.7582 156.003 55.7582C156.003 55.7582 156.003 55.7582 156.091 55.266C156.179 54.7738 156.179 54.7738 156.179 54.7738C156.179 54.7738 156.179 54.7737 156.178 54.7737C156.178 54.7736 156.177 54.7735 156.177 54.7734C156.175 54.7731 156.173 54.7726 156.169 54.7721C156.163 54.7709 156.154 54.7693 156.141 54.767C156.116 54.7626 156.079 54.756 156.03 54.7475C155.933 54.7303 155.789 54.7051 155.603 54.6729C155.231 54.6085 154.691 54.5161 154.017 54.4037C152.668 54.179 150.784 53.8746 148.638 53.5556C144.351 52.9183 139.005 52.2206 134.813 51.9877L134.757 52.9861ZM156.091 55.266C156.579 55.1576 156.579 55.1573 156.579 55.157C156.579 55.1568 156.579 55.1564 156.579 55.156C156.579 55.1551 156.578 55.1539 156.578 55.1524C156.577 55.1495 156.577 55.1453 156.575 55.1398C156.573 55.1289 156.569 55.113 156.564 55.0924C156.555 55.0511 156.54 54.9908 156.521 54.9126C156.483 54.7563 156.424 54.5286 156.345 54.2402C156.187 53.6633 155.946 52.8425 155.609 51.8614C154.936 49.9011 153.881 47.2913 152.353 44.7059C149.308 39.5533 144.301 34.3694 136.606 34.8503L136.669 35.8484C143.796 35.4029 148.516 40.1774 151.492 45.2147C152.975 47.7242 154.004 50.2673 154.663 52.1861C154.992 53.1446 155.228 53.9449 155.381 54.5043C155.458 54.784 155.513 55.0032 155.55 55.1517C155.568 55.226 155.582 55.2826 155.591 55.3201C155.595 55.3389 155.598 55.3529 155.6 55.362C155.601 55.3666 155.602 55.3699 155.603 55.372C155.603 55.3731 155.603 55.3738 155.603 55.3742C155.603 55.3744 155.603 55.3745 155.603 55.3746C155.603 55.3746 155.603 55.3745 156.091 55.266ZM136.606 34.8503C130.514 35.2311 124.003 39.1008 118.385 43.6931C112.749 48.2995 107.928 53.7021 105.207 57.2792L106.003 57.8847C108.685 54.3597 113.452 49.0165 119.017 44.4674C124.6 39.9042 130.904 36.2087 136.669 35.8484L136.606 34.8503ZM106.086 57.4481C105.299 54.6152 103.444 50.2265 100.423 46.2114C97.4017 42.1962 93.1822 38.5126 87.658 37.1792L87.4234 38.1513C92.6449 39.4117 96.6854 42.9074 99.6238 46.8126C102.562 50.7178 104.366 54.9906 105.123 57.7158L106.086 57.4481ZM87.658 37.1792C80.863 35.5391 73.0315 35.6574 67.0076 36.827C63.9984 37.4113 61.4039 38.2648 59.6058 39.3181C57.848 40.3478 56.6489 41.7003 56.9421 43.3129L57.926 43.134C57.756 42.199 58.4096 41.1777 60.1112 40.181C61.7725 39.2079 64.2439 38.3824 67.1982 37.8087C73.1011 36.6625 80.7861 36.5492 87.4234 38.1513L87.658 37.1792ZM56.9421 43.3129C57.2161 44.8201 58.5816 46.1347 60.5662 47.2225C62.5784 48.3255 65.3512 49.265 68.679 49.9656C75.3394 51.3677 84.311 51.8311 94.0845 50.6676L93.9663 49.6746C84.2862 50.8269 75.4253 50.3639 68.885 48.987C65.6125 48.2981 62.9428 47.3849 61.0469 46.3456C59.1234 45.2913 58.1151 44.1742 57.926 43.134L56.9421 43.3129ZM94.0845 50.6676C96.6561 50.3615 98.6444 52.0227 100.183 55.1992C101.717 58.3664 102.708 62.8739 103.313 67.8366C104.524 77.7486 104.178 89.2891 103.717 95.0595L104.714 95.1393C105.178 89.3302 105.527 77.7173 104.306 67.7154C103.696 62.7211 102.69 58.0816 101.083 54.7633C99.4803 51.4543 97.1843 49.2915 93.9663 49.6746L94.0845 50.6676Z" fill="black"/>
<path fill-rule="evenodd" clip-rule="evenodd" d="M178.976 57.1182C174.106 57.1179 169.777 59.8958 169.777 59.8958C169.777 59.8958 164.594 87.1672 170.49 90.5366C181.297 96.7122 189.185 92.3137 189.185 92.3137V59.8958C189.185 59.8958 183.845 57.1185 178.976 57.1182ZM180.246 87.5365L179.918 89.6276L185.727 90.5366L185.951 89.1068L184.359 88.7478C184.148 88.6904 183.971 88.5772 183.826 88.4081C183.694 88.2409 183.645 88.0441 183.681 87.8177L186.145 72.0717L184.643 71.8368L179.951 72.5674L179.756 73.8185L182.329 74.2212L180.411 86.482C180.179 86.5557 179.899 86.6338 179.568 86.7164C179.252 86.7889 178.912 86.8577 178.547 86.9228C178.185 86.976 177.808 87.0085 177.415 87.0203C177.023 87.0321 176.642 87.0091 176.272 86.9513C175.629 86.8506 175.095 86.6755 174.67 86.4259C174.247 86.1644 173.921 85.8326 173.691 85.4304C173.472 85.03 173.338 84.5634 173.287 84.0306C173.248 83.4996 173.279 82.9123 173.38 82.2689L175.242 70.3656L173.777 70.1363L169.049 70.8613L168.853 72.1124L171.409 72.5123L169.857 82.4318C169.695 83.4684 169.668 84.3797 169.777 85.1658C169.9 85.9419 170.137 86.6077 170.49 87.1633C170.856 87.7089 171.331 88.1434 171.915 88.4668C172.51 88.8039 173.2 89.034 173.986 89.1571C174.522 89.241 175.085 89.2374 175.673 89.1463C176.271 89.069 176.845 88.9453 177.397 88.7752C177.962 88.5951 178.489 88.3907 178.976 88.1618C179.475 87.9347 179.899 87.7263 180.246 87.5365Z" fill="white"/>
<path fill-rule="evenodd" clip-rule="evenodd" d="M209.564 62.6768L192.682 63.1399L190.83 92.7834H208.04C208.04 92.7834 210.276 86.4288 210.308 82.2034C210.322 80.3216 209.946 78.9066 209.564 77.4695C209.217 76.1648 207.347 72.2578 207.278 70.5508C207.135 66.9999 209.564 62.6768 209.564 62.6768ZM204.687 77.3399C204.967 77.5673 205.206 77.8309 205.405 78.131L206.81 78.3156L207.278 74.7507C207.169 74.6768 207.03 74.5991 206.862 74.5174C206.708 74.4256 206.534 74.3433 206.341 74.2703C206.15 74.1856 205.951 74.1118 205.745 74.049C205.539 73.9862 205.342 73.9425 205.155 73.9178C204.733 73.8625 204.277 73.9394 203.785 74.1486C203.304 74.3594 202.828 74.6303 202.356 74.9613C201.884 75.2922 201.432 75.6438 201.002 76.016C200.586 76.3781 200.23 76.6827 199.935 76.9298L200.356 73.7337L198.88 73.5398L194.24 74.3233L194.085 75.4999L196.684 75.8415L195.043 88.3274C195.014 88.5498 194.914 88.7213 194.743 88.8417C194.584 88.9638 194.398 89.0226 194.184 89.0184L192.392 88.9257L192.212 90.2955L201.203 91.4772L201.388 90.0724L199.031 89.6554C198.81 89.6145 198.639 89.5145 198.517 89.3556C198.396 89.1849 198.351 88.9883 198.38 88.7659L199.709 78.6508C200.422 78.0299 201.102 77.5655 201.75 77.2576C202.4 76.9381 203.017 76.8167 203.602 76.8937C204.047 76.9521 204.409 77.1009 204.687 77.3399Z" fill="white"/>
<path fill-rule="evenodd" clip-rule="evenodd" d="M129.69 63.645C129.69 58.045 121.69 58.0449 121.69 58.0449L112.89 70.0455L112.089 93.2469H128.09C128.09 93.2469 127.911 84.7183 128.89 74.8457C129.012 73.6224 129.121 72.6306 129.217 71.7591C129.519 69.0188 129.69 67.4674 129.69 63.645ZM128.39 65.0328C128.553 64.7703 128.634 64.4453 128.634 64.0577C128.634 63.7452 128.565 63.4515 128.428 63.1764C128.29 62.9014 128.078 62.6577 127.79 62.4451C127.515 62.2326 127.172 62.0639 126.759 61.9389C126.346 61.8139 125.871 61.7514 125.334 61.7514C124.709 61.7514 124.084 61.8389 123.459 62.0139C122.846 62.1889 122.253 62.4514 121.677 62.8014C121.115 63.1514 120.584 63.5952 120.084 64.1327C119.596 64.6578 119.165 65.2828 118.79 66.0078C118.552 66.4704 118.352 66.9141 118.19 67.3392C118.027 67.7517 117.89 68.1829 117.777 68.633C117.677 69.0705 117.602 69.5455 117.552 70.058C117.515 70.5581 117.496 71.1268 117.496 71.7644L115.04 72.4582V73.8082H117.496V87.5902C117.496 87.8277 117.415 88.0215 117.252 88.1715C117.102 88.3215 116.915 88.409 116.69 88.434L114.796 88.5465V90.0466H124.134V88.5465L121.865 88.434C121.64 88.4215 121.446 88.3402 121.284 88.1902C121.134 88.0277 121.059 87.8277 121.059 87.5902V73.8082H125.821V71.8394H121.059V69.383C121.059 68.483 121.121 67.7079 121.246 67.0579C121.384 66.3954 121.559 65.8328 121.771 65.3703C121.996 64.9078 122.24 64.539 122.503 64.264C122.778 63.989 123.053 63.7765 123.328 63.6265C123.34 63.639 123.434 63.7077 123.609 63.8327C123.784 63.9452 123.996 64.0952 124.246 64.2827C124.496 64.4578 124.765 64.6453 125.053 64.8453C125.353 65.0453 125.628 65.239 125.878 65.4266C126.14 65.6016 126.359 65.7578 126.534 65.8953C126.721 66.0203 126.828 66.0953 126.853 66.1203C126.928 66.1078 127.059 66.0641 127.247 65.9891C127.447 65.9141 127.647 65.8016 127.847 65.6516C128.059 65.4891 128.24 65.2828 128.39 65.0328Z" fill="white"/>
<path fill-rule="evenodd" clip-rule="evenodd" d="M143.244 62.5214C140.494 58.395 131.543 62.5216 131.543 62.5216V92.9451H146.365C146.365 92.9451 144.805 64.8619 143.244 62.5214ZM134.109 89.9223V91.385H143.214V89.9223L141.185 89.8126C141.014 89.8126 140.837 89.7273 140.654 89.5567C140.484 89.3738 140.398 89.1971 140.398 89.0264V63.7954H138.863L134.072 65.2398V66.483H136.925V89.0264C136.925 89.1971 136.827 89.3738 136.632 89.5567C136.449 89.7273 136.272 89.8126 136.102 89.8126L134.109 89.9223Z" fill="white"/>
<path fill-rule="evenodd" clip-rule="evenodd" d="M162.907 63.6025C156.958 63.6025 147.291 68.0644 147.291 68.0644V89.6299C147.291 89.6299 163.014 91.8608 165.882 89.6299C168.75 87.399 168.856 63.6025 162.907 63.6025ZM166.27 82.8561C166.609 82.3516 166.917 81.8386 167.193 81.3171L166.103 79.4303C165.885 79.8651 165.651 80.3086 165.402 80.7608C165.148 81.2029 164.861 81.6366 164.543 82.0617C164.235 82.481 163.9 82.876 163.537 83.2465C163.168 83.607 162.762 83.9151 162.32 84.1707C161.323 84.7459 160.383 85.034 159.498 85.0351C158.607 85.0261 157.786 84.8229 157.033 84.4256C156.28 84.0283 155.592 83.4866 154.968 82.8005C154.353 82.1085 153.82 81.3701 153.367 80.5852L163.389 74.7988C163.328 74.6463 163.251 74.4896 163.158 74.3286L162.922 73.921C162.394 73.0053 161.785 72.2298 161.096 71.5944C160.402 70.949 159.653 70.4889 158.85 70.2144C158.042 69.9297 157.186 69.8406 156.281 69.9469C155.371 70.0432 154.437 70.3673 153.481 70.9192C152.425 71.5293 151.564 72.2811 150.899 73.1747C150.229 74.0583 149.775 75.0382 149.538 76.1144C149.294 77.1805 149.276 78.3112 149.484 79.5065C149.685 80.6917 150.134 81.8881 150.831 83.0956C151.575 84.3836 152.422 85.3973 153.372 86.1368C154.326 86.8603 155.314 87.3503 156.334 87.6066C157.364 87.8571 158.405 87.8935 159.456 87.7159C160.501 87.5282 161.492 87.1642 162.428 86.6239C162.951 86.3218 163.44 85.9723 163.895 85.5754C164.35 85.1785 164.775 84.7521 165.169 84.2964C165.574 83.8349 165.941 83.3547 166.27 82.8561ZM158.131 73.1857C158.501 73.5487 158.835 73.9868 159.131 74.5L159.523 75.1792L152.731 79.1007C152.388 78.4134 152.166 77.75 152.065 77.1105C151.968 76.4552 151.979 75.8455 152.096 75.2815C152.223 74.7116 152.453 74.2033 152.785 73.7565C153.112 73.2996 153.531 72.923 154.045 72.6267C154.558 72.3304 155.056 72.1704 155.538 72.1466C156.025 72.107 156.483 72.1785 156.91 72.361C157.347 72.5378 157.754 72.8127 158.131 73.1857Z" fill="white"/>
<path fill-rule="evenodd" clip-rule="evenodd" d="M46.0837 61.0225L29.2026 61.4856L27.3499 91.1291H44.5606C44.5606 91.1291 46.7961 84.7745 46.8278 80.5491C46.8419 78.6673 46.4657 77.2523 46.0837 75.8152C45.7369 74.5105 43.8674 70.6036 43.7984 68.8965C43.655 65.3456 46.0837 61.0225 46.0837 61.0225ZM41.2072 75.6856C41.487 75.913 41.7262 76.1766 41.925 76.4767L43.3299 76.6613L43.7984 73.0965C43.689 73.0225 43.5504 72.9448 43.3825 72.8631C43.2278 72.7714 43.054 72.689 42.8612 72.616C42.6698 72.5313 42.4711 72.4575 42.265 72.3947C42.0589 72.3319 41.8622 72.2882 41.6748 72.2635C41.2534 72.2082 40.7967 72.2851 40.3047 72.4943C39.8244 72.7051 39.3482 72.976 38.8759 73.307C38.4037 73.6379 37.9525 73.9895 37.5225 74.3617C37.1057 74.7238 36.7501 75.0284 36.4556 75.2755L36.8757 72.0794L35.4005 71.8855L30.76 72.669L30.6054 73.8456L33.2044 74.1872L31.5634 86.6731C31.5341 86.8955 31.4342 87.067 31.2635 87.1875C31.1046 87.3095 30.9182 87.3683 30.7044 87.3641L28.9122 87.2714L28.7322 88.6412L37.7234 89.8229L37.9081 88.4181L35.5512 88.0011C35.3303 87.9602 35.1588 87.8602 35.0368 87.7013C34.9163 87.5306 34.8707 87.334 34.8999 87.1116L36.2294 76.9965C36.9422 76.3756 37.6225 75.9112 38.2704 75.6033C38.9198 75.2838 39.5372 75.1624 40.1225 75.2394C40.5674 75.2979 40.929 75.4466 41.2072 75.6856Z" fill="white"/>
<path fill-rule="evenodd" clip-rule="evenodd" d="M10.8478 55.0011L3.24858 56.3905C3.24858 56.3905 -0.312734 66.893 0.0222298 75.463C0.278829 82.0281 2.33883 92.0557 2.33883 92.0557H26.4242L25.497 55.001C25.497 55.001 23.9239 50.586 17.1905 51.7587C15.0196 52.1368 14.6421 53.7251 10.8478 55.0011ZM20.3922 63.2792L20.9799 67.1224H23.4318V60.4786H3.24879V62.2775L5.7818 62.4411C6.07901 62.4683 6.29515 62.5773 6.43025 62.7681C6.57885 62.9589 6.65315 63.1566 6.65315 63.361V85.6844C6.65315 85.8888 6.57885 86.0864 6.43025 86.2772C6.29515 86.468 6.07901 86.577 5.7818 86.6043L3.59328 86.7678V88.5668H14.4954V86.7678L11.7192 86.6043C11.422 86.577 11.1991 86.468 11.0505 86.2772C10.9154 86.0864 10.8478 85.8888 10.8478 85.6844V75.463H17.1905C17.3661 75.463 17.5282 75.5516 17.6768 75.7288C17.8254 75.906 17.9132 76.0695 17.9403 76.2194L18.3253 79.1427H20.3922V69.7186H18.3253L17.9403 72.6624C17.9132 72.8123 17.8254 72.9758 17.6768 73.153C17.5417 73.3302 17.3796 73.4188 17.1905 73.4188H10.8478V62.5228H19.683C19.8721 62.5228 20.0275 62.5978 20.149 62.7477C20.2706 62.8976 20.3517 63.0748 20.3922 63.2792Z" fill="white"/>
<path fill-rule="evenodd" clip-rule="evenodd" d="M58.8257 57.7803C53.9557 57.78 49.627 60.5579 49.627 60.5579C49.627 60.5579 44.4432 87.8293 50.3394 91.1987C61.1464 97.3743 69.0349 92.9758 69.0349 92.9758V60.5579C69.0349 60.5579 63.6949 57.7806 58.8257 57.7803ZM60.0953 88.1986L59.7681 90.2897L65.5768 91.1987L65.8005 89.7689L64.2087 89.4099C63.998 89.3525 63.8204 89.2393 63.676 89.0702C63.5434 88.903 63.4949 88.7062 63.5303 88.4798L65.9944 72.7338L64.4931 72.4989L59.8011 73.2295L59.6053 74.4806L62.179 74.8834L60.2603 87.1441C60.0291 87.2178 59.7483 87.2959 59.418 87.3785C59.1015 87.451 58.7611 87.5198 58.3969 87.5849C58.0346 87.6381 57.6572 87.6706 57.2647 87.6824C56.8723 87.6942 56.4913 87.6712 56.122 87.6134C55.4785 87.5127 54.9444 87.3376 54.5196 87.088C54.0967 86.8265 53.7702 86.4947 53.5402 86.0925C53.322 85.6921 53.1875 85.2255 53.1367 84.6927C53.0977 84.1617 53.1285 83.5745 53.2292 82.931L55.092 71.0277L53.6264 70.7984L48.8987 71.5234L48.7029 72.7745L51.2587 73.1745L49.7064 83.0939C49.5442 84.1305 49.5176 85.0418 49.6265 85.8279C49.7492 86.604 49.9868 87.2698 50.3393 87.8255C50.7056 88.3711 51.1808 88.8055 51.765 89.1289C52.3592 89.466 53.0495 89.6961 53.8359 89.8192C54.3721 89.9031 54.9341 89.8995 55.5221 89.8084C56.1202 89.7311 56.6949 89.6074 57.2465 89.4374C57.8117 89.2573 58.3381 89.0528 58.8256 88.8239C59.325 88.5968 59.7482 88.3884 60.0953 88.1986Z" fill="white"/>
<path fill-rule="evenodd" clip-rule="evenodd" d="M76.9701 56.013C73.5495 56.0548 69.9825 57.7842 70.0478 63.1052C70.2306 77.9957 70.4118 92.8854 70.4118 92.8854L84.426 92.7141L84.062 62.934C83.997 57.6129 79.5978 55.9808 76.9701 56.013ZM77.8214 64.7234C77.9188 64.3812 77.9466 64.0333 77.9048 63.6799C77.8631 63.3265 77.7558 63.0016 77.5829 62.705C77.4237 62.4068 77.2149 62.1558 76.9565 61.9521C76.6981 61.7483 76.4054 61.6037 76.0784 61.5183C75.7633 61.4177 75.429 61.3883 75.0756 61.43C74.7222 61.4718 74.3904 61.5799 74.0803 61.7543C73.7821 61.9136 73.5311 62.1224 73.3274 62.3808C73.1236 62.6391 72.9722 62.9326 72.8732 63.2613C72.7742 63.59 72.7456 63.931 72.7874 64.2844C72.8291 64.6378 72.9372 64.9696 73.1117 65.2798C73.2845 65.5763 73.5001 65.8265 73.7585 66.0303C74.0168 66.2341 74.3104 66.3854 74.639 66.4844C74.9813 66.5818 75.3291 66.6096 75.6825 66.5679C76.0359 66.5262 76.3541 66.4197 76.6371 66.2484C76.9337 66.0756 77.1838 65.86 77.3876 65.6016C77.5914 65.3432 77.736 65.0505 77.8214 64.7234ZM73.2373 89.969L73.4299 91.6001L83.2367 90.4417L83.0441 88.8106L80.8888 88.9411C80.641 88.9429 80.4191 88.8726 80.2231 88.7304C80.0407 88.5865 79.9343 88.3855 79.9038 88.1272L77.782 70.1651L76.1305 70.3601L71.2213 72.5525L71.3947 74.0205L74.2694 73.6809L76.03 88.5848C76.0605 88.8431 76.0038 89.0634 75.86 89.2458C75.7161 89.4281 75.5167 89.5482 75.2617 89.6059L73.2373 89.969Z" fill="white"/>
<path fill-rule="evenodd" clip-rule="evenodd" d="M99.972 62.9513L86.0558 61.4863C86.0558 61.4863 85.2482 74.6708 85.2472 85.6578C85.2468 90.4188 88.4592 92.9825 91.9155 92.9825C95.3719 92.9825 99.972 89.1141 99.972 85.6578V62.9513ZM95.6065 89.8981C96.1215 89.7265 96.5965 89.5319 97.0314 89.3144V87.9067C96.8139 88.0212 96.5793 88.1242 96.3275 88.2157C96.1101 88.2959 95.8526 88.3645 95.555 88.4217C95.2689 88.479 94.9541 88.5076 94.6108 88.5076C94.1416 88.5076 93.7295 88.4389 93.3748 88.3016C93.0314 88.1642 92.7396 87.9468 92.4992 87.6492C92.2703 87.3402 92.0929 86.9454 91.967 86.4647C91.8526 85.9726 91.7954 85.3774 91.7954 84.6793V74.8596H96.7567V73.1086H91.7954V68.8511H90.2503L88.6709 72.5764L86.2675 73.7094V74.8596H88.5164V86.5333C88.5164 87.9296 88.814 88.9368 89.4091 89.5548C90.0042 90.1728 90.9656 90.4818 92.2932 90.4818C92.9227 90.4818 93.5235 90.4189 94.0958 90.293C94.668 90.1785 95.1716 90.0469 95.6065 89.8981Z" fill="white"/>
</svg>
