<svg width="48" height="56" fill="none" xmlns="http://www.w3.org/2000/svg"><path d="M25.64 1.75a1 1 0 10-2 0h2zm14.094 15.917l-.714.701.714-.7zm-2.55 26.58l-.825-.566.825.566zm-13.411 10l-.025 1 .025-1zm-11.881-9.54l-.821.57.82-.57zm-2.958-27.04l-.728-.685-.057.06-.046.07.831.555zm8.72-3.469v1-1zM14.237 2.311l.098-.995a1 1 0 00-1.044.673l.946.322zm-.482 5.204l.986-.163-.986.163zm-8.238 0l-.35-.937a1 1 0 00-.614.673l.964.264zM35.348 2.31l.958-.286a1 1 0 00-1.073-.707l.115.993zm9.077 5.204h1v-.6l-.528-.282-.472.882zm-20.3 23.11l-.63.777.63.51.63-.51-.63-.777zM1.375 33.25l.768-.64a1 1 0 00-1.743.862l.975-.222zm22.75 4.375l.6-.8-.725-.544-.612.668.737.676zm22.75-3.938l.932.363a1 1 0 00-1.851-.756l.919.394zM25.64 14.198V1.75h-2v12.448h2zm10.72 29.483c-1.773 2.583-3.503 5.019-5.529 6.8-1.995 1.756-4.23 2.835-7.033 2.766l-.05 2c3.428.084 6.134-1.266 8.405-3.264 2.24-1.971 4.1-4.613 5.855-7.17l-1.649-1.132zm-12.562 9.566c-2.732-.068-4.606-1.082-6.237-2.679-1.695-1.659-3.073-3.88-4.849-6.433l-1.641 1.143c1.68 2.413 3.22 4.887 5.09 6.719 1.934 1.894 4.273 3.167 7.587 3.25l.05-2zm-6.144-38.049h6.986v-2h-6.986v2zM14.139 3.306c2.68.265 4.567 1.089 5.91 2.127 1.344 1.04 2.194 2.338 2.73 3.627.54 1.294.757 2.566.838 3.523a11.63 11.63 0 01.032 1.44l-.004.072-.001.014.996.09.996.088v-.002a.16.16 0 000-.003l.001-.01a23.986 23.986 0 01.01-.14c.004-.092.01-.222.012-.384.005-.325-.002-.783-.049-1.334-.093-1.096-.344-2.585-.984-4.123-.643-1.543-1.683-3.147-3.354-4.44-1.675-1.296-3.93-2.238-6.936-2.535l-.197 1.99zm3.515 10.892l.61-.793v.001l-.001-.001a10.912 10.912 0 01-1.507-1.577c-.82-1.056-1.701-2.575-2.015-4.476l-1.973.326c.383 2.324 1.452 4.147 2.408 5.377.48.617.936 1.092 1.277 1.417a9.813 9.813 0 00.574.505l.011.01a.16.16 0 00.006.004l.61-.793zM14.74 7.352c-.224-1.358-.163-2.937.443-4.719l-1.893-.644c-.715 2.1-.8 4.012-.523 5.689l1.973-.326zm-.986.163l.366-.93-.002-.001a.179.179 0 00-.005-.002l-.014-.006a4.345 4.345 0 00-.203-.072 10.689 10.689 0 00-.565-.175c-.48-.134-1.16-.293-1.98-.399-1.636-.211-3.87-.217-6.185.648l.7 1.874c1.919-.717 3.803-.723 5.228-.538.71.091 1.295.229 1.698.342a8.677 8.677 0 01.596.19h-.001l.367-.931zM9.662 18.352a8.44 8.44 0 011.916-1.503l-1.005-1.728a10.438 10.438 0 00-2.367 1.861l1.456 1.37zm1.916-1.503c1.4-.814 2.922-1.232 4.113-1.443a14.476 14.476 0 011.44-.183 10.02 10.02 0 01.52-.025h.004l-.001-1v-1h-.057a9.1 9.1 0 00-.613.03c-.405.03-.973.09-1.642.209-1.33.236-3.098.711-4.77 1.684l1.006 1.728zM4.553 7.251c-.374 1.365-.102 2.679.433 3.82.53 1.132 1.343 2.148 2.153 2.983.816.84 1.664 1.53 2.303 2.01a19.934 19.934 0 001.079.754l.018.011.006.003a.028.028 0 00.002.002l.529-.849.528-.849-.002-.001-.01-.007-.049-.03a17.923 17.923 0 01-.901-.633 17.88 17.88 0 01-2.068-1.805c-.726-.747-1.376-1.58-1.777-2.438-.398-.85-.528-1.665-.315-2.443l-1.93-.528zm20.087 6.947c.989-.15.989-.149.989-.148v.001l-.002-.014a6.601 6.601 0 01-.033-.358 9.826 9.826 0 01-.01-1.094c.04-.923.212-2.155.727-3.417a8.377 8.377 0 012.778-3.596c1.416-1.058 3.447-1.927 6.375-2.268l-.231-1.986c-3.217.374-5.597 1.348-7.341 2.652a10.377 10.377 0 00-3.432 4.442c-.626 1.532-.827 3.004-.874 4.086-.024.543-.01.994.012 1.314a8.654 8.654 0 00.046.487l.005.032a2.949 2.949 0 01.002.014v.001c0 .001 0 .002.989-.148zm0 1h7.445v-2H24.64v2zm9.75-12.6c.41 1.372.27 3.003-.175 4.657l1.931.52c.49-1.823.722-3.872.16-5.75l-1.916.572zm-.175 4.657c-.452 1.677-1.189 3.274-1.824 4.464a25.983 25.983 0 01-1.05 1.791l-.063.097-.015.022-.004.005.826.564.826.564v-.001l.002-.003.006-.009.021-.031a20.53 20.53 0 00.344-.539c.225-.364.533-.884.872-1.519.674-1.263 1.485-3.008 1.99-4.885l-1.931-.52zm.965.26l.435.9-.001.001.005-.002.03-.014c.029-.013.075-.034.137-.06.124-.052.312-.127.553-.211.482-.169 1.17-.372 1.983-.508 1.638-.272 3.702-.257 5.631.776l.944-1.764c-2.456-1.314-5.014-1.299-6.903-.985-.95.158-1.75.395-2.316.593a11.605 11.605 0 00-.929.372h-.002v.001l.434.9zm-3.256 7.67c1.691.276 3.444.906 4.896 1.682l.943-1.764c-1.626-.868-3.587-1.577-5.517-1.892l-.322 1.974zm4.896 1.682c.95.507 1.71 1.002 2.2 1.501l1.427-1.401c-.71-.724-1.692-1.334-2.684-1.864l-.943 1.764zm6.605-9.352c0 2.541-1.51 4.4-3.176 5.68a13.64 13.64 0 01-3.231 1.825 6.127 6.127 0 01-.048.018l-.01.003.331.944.332.944h.001l.002-.002a12.14 12.14 0 01.028-.01l.072-.026a14.558 14.558 0 001.12-.492 15.64 15.64 0 002.622-1.618c1.9-1.462 3.957-3.838 3.957-7.266h-2zm-19.3 23.11l.629-.777-.001-.002a.666.666 0 00-.012-.01l-.033-.025a16.73 16.73 0 00-.544-.408c-.36-.259-.867-.605-1.459-.953-1.133-.666-2.756-1.45-4.267-1.45v2c.934 0 2.155.529 3.254 1.174a17.218 17.218 0 011.776 1.206l.023.018.005.004.629-.777zM7.99 35.502c-1.102-2.741-1.704-5.474-1.52-8.294.184-2.813 1.154-5.78 3.296-8.985l-1.663-1.111c-2.313 3.46-3.42 6.76-3.628 9.966-.21 3.199.48 6.236 1.66 9.17l1.855-.746zM18.437 27c-3.132 0-5.381 2.35-7.09 4.273-.911 1.024-1.672 1.94-2.438 2.628-.77.693-1.353.974-1.847.974v2c1.257 0 2.315-.704 3.185-1.487.875-.788 1.755-1.841 2.594-2.786 1.79-2.014 3.48-3.602 5.597-3.602v-2zM1.375 33.25l-.768.64v.002l.002.001.003.004a1.002 1.002 0 00.037.042l.094.104c.08.086.194.204.34.343.294.277.72.643 1.269 1.009 1.092.728 2.705 1.48 4.71 1.48v-2c-1.494 0-2.725-.56-3.601-1.145a7.595 7.595 0 01-1.002-.796 5.616 5.616 0 01-.307-.314l-.01-.012-.001-.001.001.002-.767.641zm11.337 10.885c-.242-.348-.479-.657-.693-.942-.218-.289-.42-.56-.62-.866l-1.672 1.096c.238.364.473.68.695.974.226.3.434.572.649.88l1.641-1.142zM1.375 33.25l-.975.222v.004l.003.008a7.149 7.149 0 00.028.118 19.28 19.28 0 00.45 1.48c.33.945.848 2.213 1.602 3.49 1.489 2.518 4.05 5.303 8.08 5.303v-2c-2.97 0-5.003-2.028-6.358-4.321a17.69 17.69 0 01-1.434-3.13 17.304 17.304 0 01-.4-1.31 5.862 5.862 0 01-.021-.087l-.975.223zm9.188 10.625c4.582 0 8.142-1.376 10.558-2.757a19 19 0 002.757-1.906 13.712 13.712 0 00.908-.831l.052-.055.016-.016a.753.753 0 00.005-.006l.002-.002c0-.001.001-.001-.736-.677l-.737-.676.001-.001-.005.006a5.77 5.77 0 01-.178.177c-.133.129-.337.318-.612.548-.549.46-1.375 1.08-2.465 1.703-2.177 1.244-5.398 2.493-9.566 2.493v2zm26.732-1.557c-.335.5-.583.85-.936 1.363l1.65 1.132c.334-.488.606-.872.947-1.381l-1.661-1.114zm-13.17-4.693a145.84 145.84 0 00-.599.8l.002.002a.172.172 0 01.005.004l.018.014a11.097 11.097 0 00.315.225c.215.15.526.363.922.616a35.277 35.277 0 003.265 1.858c2.682 1.341 6.346 2.731 10.072 2.731v-2c-3.273 0-6.61-1.235-9.178-2.52a33.307 33.307 0 01-3.078-1.75 26.342 26.342 0 01-1.13-.77l-.012-.008-.002-.002-.6.8zm14 6.25c1.527 0 2.895-.726 4.033-1.664 1.146-.943 2.15-2.174 2.97-3.362a30.282 30.282 0 001.945-3.267 30.183 30.183 0 00.67-1.384l.037-.084.01-.023.003-.006v-.003l-.918-.395c-.92-.393-.92-.393-.919-.394l-.002.004-.007.016a28.127 28.127 0 01-.651 1.351 28.283 28.283 0 01-1.814 3.05c-.766 1.108-1.648 2.174-2.595 2.953-.953.785-1.882 1.208-2.762 1.208v2zm.895-25.507c2.841 2.892 4.06 5.73 4.278 8.507.22 2.802-.57 5.655-1.953 8.572l1.808.856c1.463-3.086 2.397-6.302 2.139-9.585-.26-3.31-1.723-6.574-4.845-9.752l-1.427 1.402zm7.855 15.32a64.902 64.902 0 01-.931-.364v-.002l.001-.002.002-.005.002-.006a.054.054 0 01.003-.005l-.01.021a1.416 1.416 0 01-.087.144c-.09.132-.247.328-.502.53-.493.395-1.425.876-3.104.876v2c2.096 0 3.477-.613 4.353-1.312.43-.344.721-.695.91-.973a3.379 3.379 0 00.283-.511.554.554 0 00.01-.023v-.003l.001-.002-.931-.364zm-4.626 1.187c-.984 0-1.862-.376-2.745-1.033-.904-.672-1.743-1.58-2.67-2.583-.897-.971-1.878-2.031-2.988-2.838-1.13-.82-2.449-1.421-4.033-1.421v2c1.04 0 1.955.384 2.858 1.04.922.67 1.772 1.578 2.695 2.576.893.967 1.862 2.026 2.945 2.831 1.103.82 2.39 1.428 3.938 1.428v-2zM29.812 27c-1.511 0-3.134.784-4.268 1.45a19.184 19.184 0 00-2.002 1.36l-.032.027a.666.666 0 00-.014.01l.629.778.63.777h-.001l.005-.004.023-.018.096-.075a17.218 17.218 0 011.68-1.13c1.099-.646 2.32-1.175 3.255-1.175v-2z" fill="#8C0F28"/></svg>