<svg width="41" height="41" viewBox="0 0 41 41" fill="none" xmlns="http://www.w3.org/2000/svg">
<circle cx="20.5" cy="20.5" r="20.5" fill="#8C0F28"/>
<g clip-path="url(#clip0_1914_5776)">
<path d="M29.3136 12.8421C29.0607 12.6302 28.7555 12.4914 28.4304 12.4404C28.1054 12.3893 27.7727 12.4279 27.4677 12.5521L11.5502 19.0228C11.2098 19.1638 10.92 19.4057 10.7194 19.7164C10.5187 20.0271 10.4166 20.3919 10.4267 20.7624C10.4368 21.1329 10.5585 21.4915 10.7757 21.7907C10.993 22.0899 11.2955 22.3155 11.643 22.4376L14.8628 23.5651L16.6574 29.5405C16.6818 29.6203 16.7172 29.6963 16.7626 29.7662C16.7694 29.7769 16.7792 29.7849 16.7865 29.7954C16.8389 29.869 16.9022 29.9341 16.9743 29.9883C16.9948 30.004 17.0144 30.0188 17.0363 30.0327C17.1206 30.0891 17.214 30.1303 17.3123 30.1545L17.3228 30.1554L17.3288 30.1579C17.3878 30.17 17.448 30.1762 17.5083 30.1763C17.5141 30.1763 17.5193 30.1735 17.525 30.1734C17.616 30.1718 17.7062 30.156 17.7924 30.1266C17.8125 30.1197 17.8297 30.1082 17.8491 30.0999C17.9134 30.0731 17.9743 30.0387 18.0306 29.9975C18.0756 29.9592 18.1207 29.921 18.1658 29.8828L20.5659 27.2148L24.1456 30.0068C24.4608 30.2539 24.8487 30.3882 25.2481 30.3885C25.6666 30.388 26.0722 30.2426 26.3969 29.9767C26.7216 29.7108 26.9456 29.3407 27.0314 28.9282L29.9294 14.6045C29.9951 14.2821 29.9725 13.9478 29.864 13.6374C29.7555 13.3269 29.5653 13.052 29.3136 12.8421ZM17.8605 23.8498C17.7373 23.9733 17.6532 24.1307 17.6185 24.3022L17.3436 25.6472L16.6472 23.3282L20.258 21.435L17.8605 23.8498ZM25.2342 28.5929L21.0039 25.2934C20.8269 25.1557 20.6049 25.0902 20.3821 25.1099C20.1593 25.1297 19.9521 25.2332 19.8017 25.3999L19.0331 26.2542L19.3047 24.9248L25.5959 18.5904C25.7461 18.4394 25.8376 18.2393 25.8538 18.0262C25.87 17.8132 25.81 17.6013 25.6845 17.429C25.5589 17.2567 25.3763 17.1354 25.1696 17.087C24.9629 17.0385 24.7458 17.0663 24.5576 17.1651L15.5287 21.8984L12.2207 20.6795L28.1894 14.2473L25.2342 28.5929Z" fill="white"/>
</g>
<defs>
<clipPath id="clip0_1914_5776">
<rect width="23" height="22" fill="white" transform="translate(9 10)"/>
</clipPath>
</defs>
</svg>
