<svg width="41" height="41" viewBox="0 0 41 41" fill="none" xmlns="http://www.w3.org/2000/svg">
<circle cx="20.5" cy="20.5" r="20.5" fill="#8C0F28"/>
<path d="M21 16C20.0111 16 19.0444 16.2932 18.2221 16.8427C17.3999 17.3921 16.759 18.173 16.3806 19.0866C16.0022 20.0002 15.9031 21.0055 16.0961 21.9755C16.289 22.9454 16.7652 23.8363 17.4645 24.5355C18.1637 25.2348 19.0546 25.711 20.0245 25.9039C20.9945 26.0969 21.9998 25.9978 22.9134 25.6194C23.827 25.241 24.6079 24.6001 25.1573 23.7779C25.7068 22.9556 26 21.9889 26 21C26 19.6739 25.4732 18.4021 24.5355 17.4645C23.5979 16.5268 22.3261 16 21 16ZM21 24C20.4067 24 19.8266 23.8241 19.3333 23.4944C18.8399 23.1648 18.4554 22.6962 18.2284 22.1481C18.0013 21.5999 17.9419 20.9967 18.0576 20.4147C18.1734 19.8328 18.4591 19.2982 18.8787 18.8787C19.2982 18.4591 19.8328 18.1734 20.4147 18.0576C20.9967 17.9419 21.5999 18.0013 22.1481 18.2284C22.6962 18.4554 23.1648 18.8399 23.4944 19.3333C23.8241 19.8266 24 20.4067 24 21C24 21.7956 23.6839 22.5587 23.1213 23.1213C22.5587 23.6839 21.7956 24 21 24ZM26 15C25.8022 15 25.6089 15.0586 25.4444 15.1685C25.28 15.2784 25.1518 15.4346 25.0761 15.6173C25.0004 15.8 24.9806 16.0011 25.0192 16.1951C25.0578 16.3891 25.153 16.5673 25.2929 16.7071C25.4327 16.847 25.6109 16.9422 25.8049 16.9808C25.9989 17.0194 26.2 16.9996 26.3827 16.9239C26.5654 16.8482 26.7216 16.72 26.8315 16.5556C26.9414 16.3911 27 16.1978 27 16C27 15.7348 26.8946 15.4804 26.7071 15.2929C26.5196 15.1054 26.2652 15 26 15ZM30.94 17.24C30.9234 16.3854 30.7611 15.5399 30.46 14.74C30.1808 14.0121 29.7516 13.351 29.2003 12.7997C28.649 12.2484 27.9879 11.8192 27.26 11.54C26.4601 11.2389 25.6146 11.0766 24.76 11.06C23.79 11 23.47 11 21 11C18.53 11 18.21 11 17.24 11.06C16.3854 11.0766 15.5399 11.2389 14.74 11.54C14.0121 11.8192 13.351 12.2484 12.7997 12.7997C12.2484 13.351 11.8192 14.0121 11.54 14.74C11.2389 15.5399 11.0766 16.3854 11.06 17.24C11 18.22 11 18.54 11 21C11 23.46 11 23.78 11.06 24.76C11.0766 25.6146 11.2389 26.4601 11.54 27.26C11.8192 27.9879 12.2484 28.649 12.7997 29.2003C13.351 29.7516 14.0121 30.1808 14.74 30.46C15.5399 30.7611 16.3854 30.9234 17.24 30.94C18.24 30.94 18.53 31 21 31C23.47 31 23.79 31 24.76 30.94C25.6146 30.9234 26.4601 30.7611 27.26 30.46C27.9879 30.1808 28.649 29.7516 29.2003 29.2003C29.7516 28.649 30.1808 27.9879 30.46 27.26C30.7611 26.4601 30.9234 25.6146 30.94 24.76C30.94 23.76 31 23.46 31 21C31 18.54 31 18.22 30.94 17.24ZM28.94 24.67C28.9225 25.3046 28.8043 25.9324 28.59 26.53C28.4128 27.0023 28.1327 27.4293 27.77 27.78C27.4214 28.1428 26.9936 28.4201 26.52 28.59C25.921 28.8131 25.289 28.9348 24.65 28.95C23.71 28.95 23.42 29 20.99 29C18.56 29 18.28 29 17.34 29C16.702 28.9835 16.0708 28.8654 15.47 28.65C14.9977 28.4728 14.5707 28.1927 14.22 27.83C13.8572 27.4814 13.5799 27.0536 13.41 26.58C13.1878 25.9842 13.0661 25.3557 13.05 24.72C13.05 23.72 13.05 23.47 13.05 21.05C13.05 18.63 13.05 18.34 13.05 17.38C13.0672 16.7412 13.1888 16.1095 13.41 15.51C13.5826 15.0406 13.8595 14.6166 14.22 14.27C14.5686 13.9072 14.9964 13.6299 15.47 13.46C16.069 13.2369 16.701 13.1152 17.34 13.1C18.28 13 18.57 13 21 13C23.43 13 23.72 13 24.66 13C25.3021 13.0163 25.9373 13.1379 26.54 13.36C27.0094 13.5326 27.4334 13.8095 27.78 14.17C28.1428 14.5186 28.4201 14.9464 28.59 15.42C28.8348 16.0286 28.9735 16.6746 29 17.33C29 18.33 29.05 18.58 29.05 21C29.05 23.42 29 23.71 29 24.67H28.94Z" fill="white"/>
</svg>
