<svg width="41" height="41" viewBox="0 0 41 41" fill="none" xmlns="http://www.w3.org/2000/svg">
<circle cx="20.5" cy="20.5" r="20.5" fill="#8C0F28"/>
<g clip-path="url(#clip0_1914_5772)">
<path d="M7.61914 16.4871C7.61914 15.6884 8.19444 15.373 8.9025 15.331L12.1994 15.352C12.3985 15.352 12.5756 15.4781 12.6419 15.6673C13.3942 17.9796 14.3236 19.409 15.4299 21.0276C15.4963 21.1537 15.6069 21.2167 15.7176 21.2167C15.8061 21.2167 15.8946 21.1747 15.961 21.0696L16.0273 20.8384L16.0495 17.2018C16.0495 16.6763 15.7839 16.5922 15.1644 16.5082C14.921 16.4661 14.7661 16.2559 14.7661 16.0457C14.7661 16.0037 14.7661 15.9616 14.7882 15.9196C15.098 15.0157 16.0716 14.5532 17.4435 14.5532L18.6826 14.5322C19.7004 14.5322 20.6297 14.9526 20.6297 16.1928V20.9645C20.7182 21.0276 20.8067 21.0696 20.9174 21.0696C21.0944 21.0696 21.3157 20.9645 21.4927 20.6912C22.6433 19.1567 23.9488 17.328 24.1258 16.361C24.1258 16.319 24.1479 16.2979 24.17 16.2559C24.4134 15.7935 25.033 15.4781 25.2985 15.3941C25.3427 15.373 25.4091 15.352 25.4976 15.352H28.9273L29.1486 15.373C29.4805 15.373 29.7239 15.5833 29.8345 15.7724C30.0336 16.0667 29.9894 16.382 30.0115 16.5082V16.6553C29.6796 18.5682 27.3784 20.7123 26.4048 22.0996C26.2721 22.2678 26.2057 22.4149 26.2057 22.5621C26.2057 22.6882 26.2721 22.8143 26.3827 22.9404L29.6132 26.8082C29.7902 27.0394 29.8787 27.3127 29.8787 27.5439C29.8787 28.2376 29.1928 28.637 28.529 28.7L28.1529 28.7211H24.7896C24.7232 28.7211 24.6789 28.7421 24.6126 28.7421C24.2364 28.7421 23.9266 28.5529 23.7054 28.3427C22.9973 27.5229 22.3114 26.6821 21.6254 25.8623C21.4927 25.6941 21.4484 25.6731 21.3157 25.589C21.1608 26.1986 21.028 26.8292 20.8731 27.4598L20.8067 27.8172C20.6961 28.1956 20.4085 28.5949 19.8774 28.7L19.5676 28.7211H17.3992C13.5713 28.7211 10.1416 23.55 7.72977 17.0967C7.66339 16.9286 7.61914 16.6973 7.61914 16.4871ZM20.9174 21.9314C20.3421 21.9314 19.7004 21.6161 19.7004 21.0276V16.1928C19.7004 15.6253 19.4349 15.4151 18.7047 15.4151L17.4435 15.4571C16.7354 15.4571 16.3371 15.5622 16.0052 15.7724C16.5141 16.0037 16.9788 16.319 16.9788 17.2018V20.9014C16.9124 21.6372 16.2707 22.1206 15.6512 22.1206C15.2308 22.1206 14.8546 21.8894 14.6334 21.511C13.6376 20.0816 12.7968 18.7363 12.0666 16.8024L11.8675 16.2559L8.92462 16.2349C8.52634 16.2349 8.5706 16.2559 8.5706 16.4451C8.5706 16.5712 8.59272 16.7394 8.61485 16.8445L9.07951 18.0216C11.4913 23.9494 14.5227 27.8382 17.3992 27.8382H19.6119C19.9217 27.8382 19.8995 27.4809 19.9659 27.2707L20.3863 25.4209C20.4748 25.2317 20.5412 25.0635 20.6961 24.9164C20.8731 24.7482 21.0723 24.6851 21.2714 24.6851C21.6918 24.6851 22.0901 25.0004 22.3556 25.2947L24.2364 27.5649C24.3913 27.7962 24.5241 27.8382 24.6126 27.8382H28.2635C28.6175 27.8382 28.9273 27.7331 28.9273 27.5229C28.9273 27.4598 28.9052 27.3758 28.8609 27.3127L25.6525 23.508C25.387 23.1927 25.2764 22.8774 25.2764 22.5621C25.2764 22.2257 25.4091 21.8894 25.6304 21.5951C26.5597 20.2708 28.5511 18.379 29.0158 16.8235L29.0822 16.5502C29.0601 16.4451 29.0601 16.361 29.0379 16.2559H25.564C25.3427 16.34 25.1657 16.4661 25.033 16.6343L24.9002 17.0337C24.3913 18.379 22.9973 20.2288 22.0016 21.511C21.6697 21.8053 21.2935 21.9314 20.9174 21.9314Z" fill="white"/>
</g>
<defs>
<clipPath id="clip0_1914_5772">
<rect width="22.6579" height="21.525" fill="white" transform="translate(7.55273 11.2744)"/>
</clipPath>
</defs>
</svg>
