<svg width="42" height="56" fill="none" xmlns="http://www.w3.org/2000/svg"><path d="M21.702 1.75a1 1 0 10-2 0h2zm14.094 15.917l-.713.701.713-.7zm-2.55 26.58l-.824-.566.825.566zm-13.41 10l-.025 1 .024-1zm-11.882-9.54l-.82.57.82-.57zm-2.957-27.04l-.729-.685-.057.06-.046.07.832.555zm8.72-3.469v1-1zM10.3 2.311l.098-.995a1 1 0 00-1.045.673l.947.322zm-.483 5.204l.987-.163-.987.163zm-8.237 0l-.35-.937a1 1 0 00-.615.673l.965.264zM31.41 2.31l.959-.286a1 1 0 00-1.074-.707l.116.993zm9.077 5.204h1v-.6l-.528-.282-.472.882zM9.25 21.875l-.048-.999a1 1 0 00-.95.95l.998.049zm4.375 4.375l.048.999a1 1 0 00.95-.95l-.998-.049zm17.5 10.5l.999-.048a1 1 0 00-.95-.95l-.05.998zm-.875 3.5l.707.707-.707-.707zm-3.5.875l-.999.048a1 1 0 00.95.95l.049-.998zm.875-3.5l-.707-.707.707.707zm-2.457-11.207a1 1 0 001.414 1.414l-1.414-1.414zm8.414-5.586a1 1 0 00-1.414-1.414l1.414 1.414zM31.125 28l-.88-.474.88.474zm-8.75 2.625l-.997.075a1 1 0 00.924.922l.073-.997zM25 21.875l-.467-.884.467.884zm2.5 6.132a1 1 0 102-.014l-2 .014zM25.007 23.5a1 1 0 10-.014 2l.014-2zM10.799 35.168a1 1 0 00-1.414 1.414l1.414-1.414zm1.043 8.582l-.88.474.88-.474zm8.75 2.625l.073.997a1 1 0 00.924-.922l-.997-.075zm-2.625-8.75l.467-.884-.467.884zm-1.582 5.957a1 1 0 001.414-1.414l-1.414 1.414zm-2.918.161a1 1 0 102 .014l-2-.014zm4.507-2.493a1 1 0 00-.014-2l.014 2zm3.728-27.052V1.75h-2v12.448h2zm13.38 4.17c2.096 2.132 3.302 4.23 3.882 6.284.58 2.052.549 4.12.08 6.216-.95 4.241-3.664 8.504-6.622 12.813l1.649 1.132c2.933-4.274 5.879-8.837 6.924-13.508.529-2.36.579-4.77-.106-7.197-.685-2.427-2.089-4.81-4.38-7.142l-1.426 1.402zm-2.66 25.313c-1.773 2.583-3.503 5.019-5.528 6.8-1.995 1.756-4.23 2.835-7.034 2.766l-.05 2c3.428.084 6.134-1.266 8.405-3.264 2.24-1.971 4.1-4.613 5.856-7.17l-1.649-1.132zM19.86 53.247c-2.732-.068-4.606-1.082-6.237-2.679-1.694-1.659-3.072-3.88-4.848-6.433l-1.642 1.143c1.68 2.413 3.22 4.887 5.09 6.719 1.935 1.894 4.274 3.167 7.588 3.25l.05-2zM8.775 44.135C5.8 39.861 3.47 35.784 2.672 31.585c-.787-4.14-.1-8.488 3.156-13.362l-1.663-1.111C.639 22.39-.185 27.266.707 31.959c.881 4.634 3.421 9 6.426 13.319l1.642-1.143zm4.941-28.937h6.986v-2h-6.986v2zM10.202 3.306c2.68.265 4.567 1.089 5.909 2.127 1.345 1.04 2.195 2.338 2.731 3.627.539 1.294.757 2.566.838 3.523a11.599 11.599 0 01.032 1.44 3.59 3.59 0 01-.005.072v.014l.995.09.996.088v-.002a.16.16 0 000-.003l.002-.01a23.986 23.986 0 01.009-.14c.005-.092.01-.222.013-.384.004-.325-.003-.783-.05-1.334-.092-1.096-.343-2.585-.983-4.123-.643-1.543-1.683-3.147-3.355-4.44-1.674-1.296-3.93-2.238-6.936-2.535l-.196 1.99zm3.514 10.892l.61-.793v.001h.001l-.002-.001a10.912 10.912 0 01-1.507-1.577c-.82-1.056-1.7-2.575-2.014-4.476l-1.974.326c.384 2.324 1.453 4.147 2.408 5.377.48.617.937 1.092 1.277 1.417a9.813 9.813 0 00.574.505l.012.01a.16.16 0 00.005.003c.001.001.001.001.61-.792zm-2.912-6.846c-.224-1.358-.164-2.937.443-4.719L9.353 1.99c-.714 2.1-.8 4.012-.523 5.689l1.974-.326zm-.987.163l.367-.93h-.001l-.002-.001-.005-.002-.014-.006a4.345 4.345 0 00-.203-.072 10.678 10.678 0 00-.564-.175c-.48-.134-1.16-.293-1.981-.399-1.636-.211-3.87-.217-6.184.648l.7 1.874c1.918-.717 3.803-.723 5.228-.538.71.091 1.294.229 1.698.342a8.682 8.682 0 01.593.189h.002l.366-.93zM5.725 18.352A8.438 8.438 0 017.64 16.85l-1.006-1.728a10.437 10.437 0 00-2.367 1.861l1.457 1.37zM7.64 16.85c1.4-.814 2.921-1.232 4.113-1.443a14.476 14.476 0 011.44-.183 10.02 10.02 0 01.52-.025h.003v-1l-.001-1h-.056a9.1 9.1 0 00-.613.03c-.405.03-.973.09-1.642.209-1.33.236-3.098.711-4.77 1.684L7.64 16.85zM.615 7.251c-.373 1.365-.101 2.679.433 3.82.53 1.132 1.343 2.148 2.154 2.983.815.84 1.663 1.53 2.303 2.01a19.93 19.93 0 001.079.754l.018.011.005.003a.028.028 0 00.003.002l.528-.849.528-.849-.001-.001-.01-.007-.05-.03-.194-.13c-.17-.115-.415-.285-.706-.504a17.875 17.875 0 01-2.068-1.804c-.726-.747-1.376-1.58-1.778-2.438-.398-.85-.527-1.665-.315-2.443L.615 7.25zm20.087 6.947c.99-.15.99-.149.99-.148v.001l-.002-.014a6.601 6.601 0 01-.033-.358 9.826 9.826 0 01-.01-1.094c.04-.923.212-2.155.727-3.417a8.377 8.377 0 012.778-3.596c1.415-1.058 3.446-1.927 6.374-2.268l-.23-1.986c-3.217.374-5.597 1.348-7.342 2.652a10.377 10.377 0 00-3.432 4.442c-.625 1.532-.826 3.004-.874 4.086-.023.543-.009.994.013 1.314a8.654 8.654 0 00.046.487l.004.032.002.01v.005c0 .001 0 .002.99-.148zm0 1h7.445v-2h-7.445v2zm9.75-12.6c.41 1.372.27 3.003-.175 4.657l1.932.52c.49-1.823.721-3.872.16-5.75l-1.916.572zm-.175 4.657c-.451 1.677-1.188 3.274-1.823 4.464a25.983 25.983 0 01-1.05 1.791l-.064.097-.015.022-.003.005.825.564.826.564v-.001l.003-.003.006-.009.02-.031a20.53 20.53 0 00.344-.539c.226-.364.534-.884.873-1.519.673-1.263 1.484-3.008 1.99-4.885l-1.932-.52zm.966.26l.434.9v.001c-.001 0-.001 0 0 0l.004-.002.03-.014.138-.06c.124-.052.311-.127.552-.211a12.09 12.09 0 011.984-.508c1.637-.272 3.702-.257 5.63.776l.944-1.764c-2.456-1.314-5.014-1.299-6.902-.985-.95.158-1.75.395-2.317.593a11.605 11.605 0 00-.907.362l-.016.007-.005.003h-.002l-.001.001.434.9zm-3.257 7.67c1.692.276 3.444.906 4.897 1.682l.942-1.764c-1.626-.868-3.586-1.577-5.517-1.892l-.322 1.974zm4.897 1.682c.949.507 1.709 1.002 2.2 1.501l1.427-1.401c-.711-.724-1.692-1.334-2.685-1.864l-.942 1.764zm6.604-9.352c0 2.541-1.51 4.4-3.176 5.68a13.64 13.64 0 01-3.23 1.825 5.134 5.134 0 01-.049.018l-.01.003.332.944c.33.944.331.944.332.944l.003-.002a12.14 12.14 0 01.028-.01l.071-.026a14.558 14.558 0 001.12-.492 15.64 15.64 0 002.622-1.618c1.901-1.462 3.957-3.838 3.957-7.266h-2zM9.25 21.875a182.17 182.17 0 00-.999-.048v.013a4.798 4.798 0 00-.004.125 10.137 10.137 0 00.075 1.41c.052.418.142.897.3 1.358.156.453.399.952.796 1.35l1.414-1.415c-.101-.101-.216-.288-.318-.585a4.88 4.88 0 01-.208-.956 8.155 8.155 0 01-.058-1.189v-.016.001l-.998-.048zm.168 4.207c.397.397.896.64 1.35.796.46.158.94.248 1.356.3a10.12 10.12 0 001.507.072h.038l.002-.001h.001l-.047-.999-.048-.999h-.015l-.066.002a8.155 8.155 0 01-1.123-.06 4.88 4.88 0 01-.956-.207c-.297-.102-.484-.217-.585-.318l-1.414 1.414zm4.207.168l.999.048v-.013l.002-.029a6.565 6.565 0 00.002-.43 10.12 10.12 0 00-.075-1.077 6.861 6.861 0 00-.3-1.357c-.156-.453-.399-.952-.796-1.35l-1.414 1.415c.101.101.216.288.318.585.1.289.166.623.208.956a8.155 8.155 0 01.058 1.189v.015l.998.048zm-.168-4.207c-.397-.397-.896-.64-1.35-.796a6.861 6.861 0 00-1.356-.3 10.12 10.12 0 00-1.544-.071h-.004l.047.999.048.999h-.001.016l.066-.002a8.155 8.155 0 011.123.06c.333.041.667.108.956.207.297.102.484.217.585.318l1.414-1.414zM31.125 36.75l-.999.048v-.001.016l.002.066a8.133 8.133 0 01-.06 1.123 4.887 4.887 0 01-.207.956c-.102.297-.217.484-.318.585l1.414 1.414c.397-.397.64-.897.796-1.35a6.86 6.86 0 00.3-1.356 10.145 10.145 0 00.071-1.535v-.014l-1 .048zm-1.582 2.793c-.101.101-.288.216-.585.318-.289.1-.623.166-.956.208a8.133 8.133 0 01-1.123.06l-.066-.002h-.014l-.002-.001-.047.999-.048.999h.014a3.092 3.092 0 00.125.004 10.122 10.122 0 001.41-.075 6.86 6.86 0 001.358-.3c.453-.156.952-.399 1.35-.796l-1.415-1.414zm-2.793 1.582l.999-.048v-.001a4.92 4.92 0 00-.002-.08 8.133 8.133 0 01.06-1.123c.041-.334.108-.667.207-.956.102-.297.217-.484.318-.585l-1.414-1.414c-.397.397-.64.896-.796 1.35a6.86 6.86 0 00-.3 1.356 10.145 10.145 0 00-.072 1.535v.01l.001.002v.001l.999-.047zm1.582-2.793c.101-.101.288-.216.585-.318.289-.1.622-.166.956-.208a8.133 8.133 0 011.203-.057h.001l.048-1 .048-.998h-.014a3.092 3.092 0 00-.124-.004 10.145 10.145 0 00-1.41.075 6.86 6.86 0 00-1.358.3c-.453.156-.952.399-1.35.796l1.415 1.414zm3.5-15.75l1.75-1.75-1.414-1.414-1.75 1.75 1.414 1.414zm-.707-.707l-.962.271.001.006.008.028a9.684 9.684 0 01.135.567c.084.386.183.92.25 1.512.14 1.25.097 2.506-.313 3.267l1.761.948c.725-1.345.683-3.151.54-4.437a17.32 17.32 0 00-.456-2.428v-.003l-.001-.002-.963.271zm-.88 5.65c-.278.516-.814.95-1.601 1.294-.782.342-1.722.555-2.66.68a19.284 19.284 0 01-3.523.13l-.012-.001h-.002l-.072.997-.072.997h.002l.006.001a14.131 14.131 0 00.33.017 21.276 21.276 0 003.607-.159c1.038-.138 2.18-.385 3.197-.83 1.012-.442 1.992-1.121 2.56-2.177l-1.76-.948zm-7.87 3.1l.997-.074v-.013a11.095 11.095 0 01-.014-.263 19.253 19.253 0 01.138-3.269c.124-.94.337-1.88.679-2.66.344-.784.778-1.315 1.292-1.587l-.934-1.768c-1.063.561-1.746 1.54-2.19 2.553-.446 1.017-.692 2.16-.83 3.2a21.231 21.231 0 00-.141 3.86l.004.068.001.019v.008l.998-.074zm9.41-7.995l.047-.048-1.414-1.414-.048.048 1.414 1.414zm-6.318.13c.756-.4 2-.432 3.24-.284a15.17 15.17 0 012.091.407l.28-.96a241.373 241.373 0 00.276-.961l-.004-.001a17.183 17.183 0 00-2.406-.47c-1.275-.154-3.069-.21-4.411.5l.934 1.768zm1.115 5.072l2.601-2.601-1.414-1.414-2.601 2.6 1.414 1.415zm2.601-2.601l2.601-2.601-1.414-1.414-2.601 2.6 1.414 1.415zm-1.707-.7l.024 3.476 2-.014-.024-3.476-2 .014zm1.007-1.007l-3.476-.024-.014 2 3.476.024.014-2zM12.549 36.918l-1.75-1.75-1.414 1.414 1.75 1.75 1.414-1.414zm-.707.707a171.34 171.34 0 00-.963-.271v.002l-.001.003a.746.746 0 01-.015.053 11.865 11.865 0 00-.158.663 17.32 17.32 0 00-.282 1.712c-.144 1.286-.186 3.092.538 4.437l1.761-.948c-.41-.761-.451-2.017-.312-3.267a15.347 15.347 0 01.385-2.08l.008-.027.001-.005v-.001l-.962-.271zm-.88 6.6c.568 1.055 1.548 1.734 2.56 2.177 1.017.444 2.16.691 3.197.83a21.276 21.276 0 003.937.141h.008l-.072-.998-.073-.997h-.013a11.21 11.21 0 01-.262.014 19.282 19.282 0 01-3.261-.143c-.938-.125-1.878-.338-2.66-.68-.787-.344-1.324-.778-1.6-1.293l-1.762.948zm9.63 2.15l.997.074v-.008l.002-.02a6.89 6.89 0 00.016-.311 21.232 21.232 0 00-.154-3.616c-.137-1.04-.384-2.183-.83-3.2-.443-1.012-1.126-1.992-2.19-2.553l-.933 1.768c.514.272.948.803 1.292 1.588.342.78.554 1.72.679 2.66a19.253 19.253 0 01.124 3.53v.014l.997.074zm-7.995-9.41l-.048-.047-1.414 1.414.047.048 1.415-1.414zm5.837-.224c-1.343-.71-3.137-.654-4.412-.5a17.217 17.217 0 00-2.406.47l-.003.001h-.002l.278.96.28.961h-.001l.006-.001.027-.008.116-.031a15.179 15.179 0 011.943-.367c1.239-.148 2.484-.116 3.24.283l.934-1.768zm-.635 5.427l-2.601-2.601-1.415 1.414 2.602 2.601 1.414-1.414zm-2.601-2.601l-2.601-2.601-1.415 1.414 2.601 2.601 1.415-1.414zm-1.707.7l-.024 3.476 2 .014.024-3.476-2-.014zm1.007 1.007l3.476-.024-.014-2-3.476.024.014 2z" fill="#8C0F28"/></svg>