<svg width="40" height="40" viewBox="0 0 40 40" fill="none" xmlns="http://www.w3.org/2000/svg">
<circle cx="20" cy="20" r="20" fill="#A33A4F"/>
<path d="M25.0126 14.5332C25.4876 14.5332 25.8459 14.9499 25.6542 15.7249L23.3292 26.6832C23.1667 27.4624 22.6959 27.6499 22.0459 27.2874L16.5001 23.1915C16.4786 23.1761 16.461 23.1558 16.449 23.1322C16.4369 23.1087 16.4306 23.0826 16.4306 23.0561C16.4306 23.0297 16.4369 23.0036 16.449 22.98C16.461 22.9565 16.4786 22.9361 16.5001 22.9207L22.9042 17.1374C23.1959 16.879 22.8417 16.754 22.4584 16.9874L14.4209 22.0582C14.3965 22.0741 14.3689 22.0842 14.34 22.0878C14.3111 22.0915 14.2818 22.0884 14.2542 22.079L10.8417 20.9999C10.0834 20.779 10.0834 20.2582 11.0126 19.8874L24.6667 14.6207C24.775 14.5688 24.8926 14.539 25.0126 14.5332V14.5332Z" stroke="white" stroke-linecap="round" stroke-linejoin="round"/>
</svg>
