<svg width="40" height="40" viewBox="0 0 40 40" fill="none" xmlns="http://www.w3.org/2000/svg">
<circle cx="20" cy="20" r="20" fill="#A33A4F"/>
<path d="M8.06152 16.0859C8.06152 15.3066 8.59473 14.999 9.25098 14.958L12.3066 14.9785C12.4912 14.9785 12.6553 15.1016 12.7168 15.2861C13.4141 17.542 14.2754 18.9365 15.3008 20.5156C15.3623 20.6387 15.4648 20.7002 15.5674 20.7002C15.6494 20.7002 15.7314 20.6592 15.793 20.5566L15.8545 20.3311L15.875 16.7832C15.875 16.2705 15.6289 16.1885 15.0547 16.1064C14.8291 16.0654 14.6855 15.8604 14.6855 15.6553C14.6855 15.6143 14.6855 15.5732 14.7061 15.5322C14.9932 14.6504 15.8955 14.1992 17.167 14.1992L18.3154 14.1787C19.2588 14.1787 20.1201 14.5889 20.1201 15.7988V20.4541C20.2021 20.5156 20.2842 20.5566 20.3867 20.5566C20.5508 20.5566 20.7559 20.4541 20.9199 20.1875C21.9863 18.6904 23.1963 16.9062 23.3604 15.9629C23.3604 15.9219 23.3809 15.9014 23.4014 15.8604C23.627 15.4092 24.2012 15.1016 24.4473 15.0195C24.4883 14.999 24.5498 14.9785 24.6318 14.9785H27.8105L28.0156 14.999C28.3232 14.999 28.5488 15.2041 28.6514 15.3887C28.8359 15.6758 28.7949 15.9834 28.8154 16.1064V16.25C28.5078 18.1162 26.375 20.208 25.4727 21.5615C25.3496 21.7256 25.2881 21.8691 25.2881 22.0127C25.2881 22.1357 25.3496 22.2588 25.4521 22.3818L28.4463 26.1553C28.6104 26.3809 28.6924 26.6475 28.6924 26.873C28.6924 27.5498 28.0566 27.9395 27.4414 28.001L27.0928 28.0215H23.9756C23.9141 28.0215 23.873 28.042 23.8115 28.042C23.4629 28.042 23.1758 27.8574 22.9707 27.6523C22.3145 26.8525 21.6787 26.0322 21.043 25.2324C20.9199 25.0684 20.8789 25.0479 20.7559 24.9658C20.6123 25.5605 20.4893 26.1758 20.3457 26.791L20.2842 27.1396C20.1816 27.5088 19.915 27.8984 19.4229 28.001L19.1357 28.0215H17.126C13.5781 28.0215 10.3994 22.9766 8.16406 16.6807C8.10254 16.5166 8.06152 16.291 8.06152 16.0859ZM20.3867 21.3975C19.8535 21.3975 19.2588 21.0898 19.2588 20.5156V15.7988C19.2588 15.2451 19.0127 15.04 18.3359 15.04L17.167 15.0811C16.5107 15.0811 16.1416 15.1836 15.834 15.3887C16.3057 15.6143 16.7363 15.9219 16.7363 16.7832V20.3926C16.6748 21.1104 16.0801 21.582 15.5059 21.582C15.1162 21.582 14.7676 21.3564 14.5625 20.9873C13.6396 19.5928 12.8604 18.2803 12.1836 16.3936L11.999 15.8604L9.27148 15.8398C8.90234 15.8398 8.94336 15.8604 8.94336 16.0449C8.94336 16.168 8.96387 16.332 8.98438 16.4346L9.41504 17.583C11.6504 23.3662 14.46 27.1602 17.126 27.1602H19.1768C19.4639 27.1602 19.4434 26.8115 19.5049 26.6064L19.8945 24.8018C19.9766 24.6172 20.0381 24.4531 20.1816 24.3096C20.3457 24.1455 20.5303 24.084 20.7148 24.084C21.1045 24.084 21.4736 24.3916 21.7197 24.6787L23.4629 26.8936C23.6064 27.1191 23.7295 27.1602 23.8115 27.1602H27.1953C27.5234 27.1602 27.8105 27.0576 27.8105 26.8525C27.8105 26.791 27.79 26.709 27.749 26.6475L24.7754 22.9355C24.5293 22.6279 24.4268 22.3203 24.4268 22.0127C24.4268 21.6846 24.5498 21.3564 24.7549 21.0693C25.6162 19.7773 27.4619 17.9316 27.8926 16.4141L27.9541 16.1475C27.9336 16.0449 27.9336 15.9629 27.9131 15.8604H24.6934C24.4883 15.9424 24.3242 16.0654 24.2012 16.2295L24.0781 16.6191C23.6064 17.9316 22.3145 19.7363 21.3916 20.9873C21.084 21.2744 20.7354 21.3975 20.3867 21.3975Z" fill="white"/>
</svg>
