<svg width="979" height="742" fill="none" xmlns="http://www.w3.org/2000/svg"><path d="M614 55.998l-.385-.923.385.923zm-225 252l.217-.976-.217.976zM29.907 549.932l-.797.604.797-.604zM475 723.998l.553-.834-.553.834zM216.149 52.058a1 1 0 10.761-1.849l-.761 1.85zm20.184 5.584a1 1 0 10-.672 1.883l.672-1.883zm19.17 8.526a1 1 0 00.599-1.908l-.599 1.908zm20.611 3.971a1 1 0 00-.529 1.929l.529-1.929zm19.773 7.117a1 1 0 00.461-1.946l-.461 1.946zm20.846 2.512a1 1 0 10-.393 1.961l.393-1.961zm20.181 5.713a.999.999 0 10.324-1.974l-.324 1.974zm20.957 1.041a1 1 0 00-.253 1.984l.253-1.984zm20.596 4.267a1 1 0 10.181-1.991l-.181 1.991zm20.937-.488a1 1 0 00-.107 1.997l.107-1.997zm20.801 2.72a1 1 0 10.031-2l-.031 2zm20.894-2.087a1 1 0 00.048 2l-.048-2zm20.98 1.076a1 1 0 10-.129-1.995l.129 1.995zm20.64-3.765a1 1 0 10.211 1.989l-.211-1.99zm20.957-.66a1.001 1.001 0 00-.295-1.977l.295 1.978zm20.24-5.5a1 1 0 00.381 1.964l-.381-1.964zm20.832-2.474a1 1 0 00-.467-1.945l.467 1.945zm19.681-7.267a1 1 0 10.554 1.922l-.554-1.922zm20.529-4.331a1 1 0 00-.641-1.895l.641 1.895zm18.942-9.02a1 1 0 10.727 1.863l-.727-1.863zm20.091-6.02a1 1 0 00-.751-1.853l.751 1.854zm18.099-9.272a1 1 0 10.713 1.868l-.713-1.868zm18.993-4.894a1 1 0 10-.674-1.883l.674 1.883zm18.481-8.485a1 1 0 10.629 1.899l-.629-1.899zm19.657-4.137a1 1 0 00-.58-1.914l.58 1.914zm18.261-7.341a1 1 0 00.526 1.93l-.526-1.93zm20.232-3.118a1 1 0 00-.464-1.945l.464 1.945zm18.505-6.145a1 1 0 10.399 1.96l-.399-1.96zm20.497-1.716a1 1 0 00-.319-1.974l.319 1.974zm18.992-4.679a1 1 0 00.233 1.987l-.233-1.987zm20.505.129a1.001 1.001 0 00-.129-1.996l.129 1.996zM835.712.61a1 1 0 00.012 2l-.012-2zm20.121 2.573a1 1 0 00.13-1.995l-.13 1.995zm20.079.128a1 1 0 10-.298 1.978l.298-1.978zm18.919 5.845a1 1 0 00.496-1.938l-.496 1.938zm19.575 4.21a1 1 0 00-.737 1.86l.737-1.86zm17.134 10.55a1 1 0 101.017-1.722l-1.017 1.722zm17.313 10.061a1 1 0 00-1.325 1.499l1.325-1.499zm11.911 16.033a1 1 0 001.621-1.172l-1.621 1.172zm11.419 16.398a1 1 0 00-1.85.762l1.85-.762zm3.49 19.713a1 1 0 001.974-.323l-1.974.323zm3.14 19.79a1 1 0 10-1.998-.082l1.998.082zm-4.562 19.512a1 1 0 001.955.424l-1.955-.424zm-3.744 19.641a1 1 0 10-1.872-.702l1.872.702zm-9.951 17.329a1 1 0 101.773.924l-1.773-.924zm-8.417 18.141a1 1 0 10-1.667-1.105l1.667 1.105zm-13.427 14.935a1 1 0 001.558 1.254l-1.558-1.254zm-11.755 16.449a1.001 1.001 0 00-1.45-1.378l1.45 1.378zm-15.553 12.409a1 1 0 001.346 1.48l-1.346-1.48zm-13.87 14.417a1 1 0 00-1.245-1.565l1.245 1.565zm-17.368 10.451a.998.998 0 101.145 1.639l-1.145-1.639zm-15.395 12.511a1 1 0 10-1.051-1.701l1.051 1.701zm-18.303 8.337a1 1 0 10.96 1.754l-.96-1.754zm-16.829 10.916a1 1 0 10-.872-1.8l.872 1.8zm-18.924 6.425a1 1 0 00.787 1.839l-.787-1.839zm-17.88 9.339a.999.999 0 10-.705-1.871l.705 1.871zm-19.347 4.704a.999.999 0 10.626 1.899l-.626-1.899zm-18.621 7.816a1 1 0 10-.55-1.923l.55 1.923zm-19.659 3.149a1 1 0 00.477 1.942l-.477-1.942zm-19.107 6.373a1 1 0 00-.406-1.959l.406 1.959zm-19.921 1.736a1 1 0 00.338 1.971l-.338-1.971zm-19.382 5.021a1 1 0 10-.274-1.981l.274 1.981zm-20.187.441a1 1 0 00.21 1.989l-.21-1.989zm-19.483 3.769a1.002 1.002 0 00-.151-1.995l.151 1.995zm-20.343-.774a1 1 0 10.091 1.998l-.091-1.998zm-19.592 2.625a1 1 0 10-.036-2l.036 2zm-20.004-1.906a.999.999 0 10-.017 2l.017-2zm-20.149 1.562a1 1 0 00.069-1.999l-.069 1.999zm-19.574-2.922a1 1 0 10-.118 1.996l.118-1.996zm-20.237.56a1 1 0 00.166-1.993l-.166 1.993zm-19.636-3.875a1 1 0 10-.212 1.989l.212-1.989zm-19.871-.326a1 1 0 00.256-1.984l-.256 1.984zm-19.732-4.78a.999.999 0 10-.299 1.977l.299-1.977zm-19.918-1.19a1 1 0 10.339-1.971l-.339 1.971zm-19.095-5.51a1 1 0 00-.378 1.964l.378-1.964zm-20.175-2.043a1 1 0 00.416-1.957l-.416 1.957zm-19.146-6.117a1 1 0 10-.379 1.964l.379-1.964zm-19.585-1.204a1 1 0 10.273-1.981l-.273 1.981zm-19.177-4.154a1 1 0 00-.173 1.993l.173-1.993zm-19.609.786a1 1 0 00.077-1.999l-.077 1.999zm-19.488-2.298a1 1 0 10.014 2l-.014-2zm-19.455 2.574a1 1 0 00-.103-1.997l.103 1.997zm-19.617-.573a1 1 0 00.188 1.991l-.188-1.991zm-19.163 4.23a1 1 0 10-.272-1.981l.272 1.981zm-19.595 1.079a1.001 1.001 0 00.354 1.969l-.354-1.969zm-18.743 5.817a1 1 0 00-.436-1.951l.436 1.951zm-19.436 2.722a1.001 1.001 0 00.52 1.932l-.52-1.932zm-18.176 7.4a1 1 0 10-.604-1.906l.604 1.906zm-19.12 4.429a1 1 0 10.691 1.876l-.691-1.876zm-17.415 9.05a1 1 0 00-.782-1.841l.782 1.841zm-18.59 6.288a1 1 0 10.879 1.796l-.879-1.796zM96.141 352.03a1 1 0 10-.983-1.742l.983 1.742zm-17.713 8.415a1 1 0 101.095 1.674l-1.094-1.674zm-14.75 12.88a1 1 0 10-1.217-1.587l1.216 1.587zM47.405 384.33a1 1 0 001.35 1.475l-1.35-1.475zm-12.3 15.309a1 1 0 10-1.497-1.326l1.497 1.326zm-13.586 14.11a1 1 0 001.651 1.129l-1.65-1.129zm-8.074 17.854a1 1 0 00-1.802-.868l1.802.868zM4.67 449.128a1 1 0 001.927.537l-1.927-.537zm-1.424 19.518a1 1 0 10-1.995-.151l1.995.151zM1.73 488.144a1 1 0 101.985-.246l-1.985.246zm6.163 18.669a1 1 0 00-1.906.605l1.906-.605zm5.496 18.709a1 1 0 101.788-.895l-1.788.895zm11.567 15.775a1 1 0 00-1.659 1.117l1.66-1.117zm10.605 17.208a1 1 0 001.511-1.311l-1.51 1.311zm15.85 12.778a1 1 0 00-1.27 1.544l1.27-1.544zm15.742 12.909a1 1 0 00.935-1.768l-.935 1.768zm19.496 5.86a1.001 1.001 0 00-.592 1.911l.592-1.911zm19.257 6.612a1.001 1.001 0 00.35-1.97l-.35 1.97zm20.384.847a1 1 0 00-.226 1.987l.226-1.987zm19.971 4.036a1 1 0 00.19-1.991l-.19 1.991zm20.389.002a1.001 1.001 0 00-.21 1.989l.21-1.989zm19.995 4.371a1 1 0 00.262-1.983l-.262 1.983zm20.283 1.009a1 1 0 00-.331 1.972l.331-1.972zm19.629 5.715a1 1 0 00.407-1.958l-.407 1.958zm20.232 2.576a1 1 0 00-.485 1.94l.485-1.94zm19.018 7.217a1 1 0 00.56-1.92l-.56 1.92zm19.951 4.13a1 1 0 10-.63 1.898l.63-1.898zm18.472 8.626a1 1 0 00.697-1.875l-.697 1.875zm19.628 5.524a1 1 0 10-.759 1.851l.759-1.851zm17.878 9.823a1.001 1.001 0 00.814-1.827l-.814 1.827zm19.288 6.723a1 1 0 00-.866 1.804l.866-1.804zm17.371 10.853a1 1 0 10.912-1.78l-.912 1.78zm18.849 7.687a1 1 0 00-.955 1.758l.955-1.758zm16.665 11.583a1 1 0 00.993-1.736l-.993 1.736zm18.533 8.54a1 1 0 10-1.028 1.716l1.028-1.716zm16.417 12.409a1 1 0 101.061-1.696l-1.061 1.696zm18.026 9.136a1 1 0 00-1.091 1.676l1.091-1.676zm16.432 12.563a1 1 0 10.916-1.778l-.916 1.778zm19.623 5.495a1 1 0 00-.535 1.927l.535-1.927zm19.608 5.616a1 1 0 00.195-1.991l-.195 1.991zm20.364-1.457a1 1 0 00.079 1.999l-.079-1.999zm20.405.061a.999.999 0 10-.292-1.978l.292 1.978zm19.595-5.811a.998.998 0 00-.744 1.202.998.998 0 001.202.744l-.458-1.946zm20.136-3.421a1 1 0 00-.59-1.911l.59 1.911zm18.603-8.438a1 1 0 10.695 1.875l-.695-1.875zm19.64-5.664a1 1 0 10-.781-1.841l.781 1.841zm17.734-10.147a1 1 0 10.854 1.808l-.854-1.808zm19.116-7.21a1 1 0 10-.916-1.778l.916 1.778zm16.989-11.352a1 1 0 10.969 1.749l-.969-1.749zm18.657-8.375a1 1 0 10-1.017-1.722l1.017 1.722zm16.317-12.253a1 1 0 101.059 1.696l-1.059-1.696zm18.224-9.308a1 1 0 10-1.098-1.671l1.098 1.671zm15.772-13.04a1 1 0 101.136 1.646l-1.136-1.646zm17.768-10.115a1 1 0 00-1.174-1.62l1.174 1.62zm15.141-13.756a1 1 0 001.216 1.588l-1.216-1.588zM207 46.999l-.429.903h.001l.002.001.008.004.03.014.119.056.466.216c.412.19 1.024.468 1.831.827 1.613.717 4.004 1.754 7.121 3.038l.761-1.849a284.092 284.092 0 01-7.07-3.017 152.25 152.25 0 01-2.262-1.027l-.113-.053a1.716 1.716 0 00-.027-.013l-.007-.003h-.002l-.429.902zm28.661 12.526a536.944 536.944 0 0019.842 6.643l.599-1.908a535.926 535.926 0 01-19.769-6.618l-.672 1.883zm39.924 12.543a597.467 597.467 0 0020.302 5.188l.461-1.946a595.384 595.384 0 01-20.234-5.17l-.529 1.928zm40.755 9.661a597.076 597.076 0 0020.574 3.752l.324-1.974a594.912 594.912 0 01-20.505-3.739l-.393 1.961zm41.278 6.777a575.338 575.338 0 0020.849 2.283l.181-1.991a573.898 573.898 0 01-20.777-2.276l-.253 1.984zm41.679 3.792c6.856.368 13.829.614 20.908.723l.031-2c-7.053-.108-14-.354-20.832-.72l-.107 1.997zm41.85.636a518.348 518.348 0 0020.932-.924l-.129-1.995c-7.028.453-13.982.755-20.851.92l.048 1.999zm41.783-2.7a492.78 492.78 0 0020.746-2.648l-.295-1.978a490.89 490.89 0 01-20.662 2.637l.211 1.989zm41.367-6.185a473.241 473.241 0 0020.451-4.438l-.467-1.945a471.657 471.657 0 01-20.365 4.42l.381 1.963zm40.686-9.783a461.268 461.268 0 0019.975-6.254l-.641-1.894a459.043 459.043 0 01-19.888 6.226l.554 1.922zm39.644-13.41a460.064 460.064 0 009.758-3.934l-.77-1.847a455.482 455.482 0 01-9.715 3.918l.727 1.863zm9.758-3.934c3.224-1.344 6.426-2.66 9.606-3.948l-.751-1.854c-3.186 1.291-6.394 2.61-9.625 3.955l.77 1.847zm28.418-11.353a922.674 922.674 0 0118.28-6.762l-.674-1.883A924.31 924.31 0 00642.09 43.7l.713 1.868zm37.39-13.348a775.036 775.036 0 0119.028-6.036l-.58-1.914a778.605 778.605 0 00-19.077 6.051l.629 1.899zm37.815-11.448a638.44 638.44 0 0119.706-5.047l-.464-1.945a639.397 639.397 0 00-19.768 5.063l.526 1.93zm38.61-9.232a507.755 507.755 0 0120.098-3.676l-.319-1.974a510.11 510.11 0 00-20.178 3.69l.399 1.96zm39.323-6.368a388.832 388.832 0 0120.272-1.858l-.129-1.996a390.833 390.833 0 00-20.376 1.867l.233 1.987zm39.783-2.562a282.85 282.85 0 0120.109.573l.13-1.995A284.829 284.829 0 00835.712.61l.012 2zm39.89 2.679c6.751 1.017 13.155 2.313 19.217 3.867l.496-1.938c-6.13-1.571-12.601-2.88-19.415-3.907l-.298 1.978zm38.055 9.937c6.462 2.558 12.417 5.467 17.871 8.69l1.017-1.722c-5.548-3.28-11.598-6.233-18.151-8.828l-.737 1.86zm33.859 20.25c5.078 4.489 9.488 9.352 13.236 14.534l1.621-1.172c-3.838-5.305-8.347-10.277-13.532-14.86l-1.325 1.498zm22.805 31.694c2.488 6.045 4.266 12.382 5.34 18.95l1.974-.322c-1.098-6.714-2.917-13.199-5.464-19.39l-1.85.762zm6.482 38.659c-.264 6.399-1.12 12.947-2.564 19.594l1.955.424c1.467-6.753 2.338-13.414 2.607-19.936l-1.998-.082zm-8.18 38.533c-2.241 5.98-4.935 12.001-8.079 18.031l1.773.924c3.181-6.098 5.908-12.194 8.178-18.253l-1.872-.702zm-18.163 35.067a216.062 216.062 0 01-11.76 16.04l1.558 1.254a218.324 218.324 0 0011.869-16.189l-1.667-1.105zm-24.965 31.111a271.316 271.316 0 01-14.103 13.787l1.346 1.48a273.709 273.709 0 0014.207-13.889l-1.45-1.378zm-29.218 26.639a325.968 325.968 0 01-16.123 12.016l1.145 1.639a327.011 327.011 0 0016.223-12.09l-1.245-1.565zm-32.569 22.826a376.61 376.61 0 01-17.252 10.038l.96 1.754a376.75 376.75 0 0017.343-10.091l-1.051-1.701zm-34.953 19.154a424.56 424.56 0 01-18.052 8.225l.787 1.839a427.31 427.31 0 0018.137-8.264l-.872-1.8zm-36.637 15.693a478.045 478.045 0 01-18.642 6.575l.626 1.899a477.152 477.152 0 0018.721-6.603l-.705-1.871zm-37.813 12.468a526.284 526.284 0 01-19.109 5.072l.477 1.942a528.253 528.253 0 0019.182-5.091l-.55-1.923zm-38.622 9.486a574.918 574.918 0 01-19.515 3.695l.338 1.971a578.942 578.942 0 0019.583-3.707l-.406-1.959zm-39.171 6.735a631.606 631.606 0 01-19.913 2.422l.21 1.989a630.137 630.137 0 0019.977-2.43l-.274-1.981zm-39.547 4.196c-6.638.5-13.369.909-20.192 1.221l.091 1.998a690.156 690.156 0 0020.252-1.224l-.151-1.995zm-39.82 1.846c-6.574.12-13.23.152-19.968.094l-.017 2c6.755.058 13.429.026 20.021-.094l-.036-2zm-40.048-.343a800.112 800.112 0 01-19.643-.923l-.118 1.996c6.635.393 13.199.701 19.692.926l.069-1.999zm-39.714-2.356a863.863 863.863 0 01-19.802-1.882l-.212 1.989c6.682.712 13.298 1.34 19.848 1.886l.166-1.993zm-39.417-4.192a933.969 933.969 0 01-19.988-2.796l-.299 1.977a932.585 932.585 0 0020.031 2.803l.256-1.984zm-39.567-5.957a999.05 999.05 0 01-19.434-3.539l-.378 1.964c6.545 1.258 13.036 2.44 19.473 3.546l.339-1.971zm-39.193-7.539c-3.32-.705-6.654-1.43-10.001-2.175l-.434 1.953c3.353.746 6.693 1.472 10.019 2.179l.416-1.957zm-10.001-2.175a345.142 345.142 0 00-9.561-1.985l-.379 1.964c3.185.615 6.355 1.272 9.506 1.974l.434-1.953zm-28.873-5.17a387.996 387.996 0 00-19.45-2.173l-.173 1.993c6.49.561 12.945 1.28 19.35 2.161l.273-1.981zm-38.982-3.386a427.79 427.79 0 00-19.565-.299l.014 2c6.504-.048 13 .049 19.474.298l.077-1.999zm-39.123.278c-6.515.335-13.024.811-19.514 1.424l.188 1.991a456.702 456.702 0 0119.429-1.418l-.103-1.997zm-38.949 3.673a468.89 468.89 0 00-19.323 3.06l.354 1.969a466.617 466.617 0 0119.241-3.048l-.272-1.981zm-38.502 6.926a458.43 458.43 0 00-19 4.673l.52 1.932a455.591 455.591 0 0118.916-4.654l-.436-1.951zm-37.78 10.167a423.695 423.695 0 00-18.516 6.335l.691 1.876a421.917 421.917 0 0118.429-6.305l-.604-1.906zm-36.713 13.544a369.278 369.278 0 00-17.808 8.129l.879 1.796a366.749 366.749 0 0117.711-8.084l-.782-1.841zm-35.137 17.235a299.28 299.28 0 00-16.73 10.157l1.095 1.674a297.542 297.542 0 0116.618-10.089l-.983-1.742zm-32.697 21.45a224.068 224.068 0 00-15.056 12.592l1.35 1.475a222.241 222.241 0 0114.922-12.48l-1.216-1.587zm-28.853 26.575c-4.437 5.008-8.479 10.157-12.089 15.436l1.651 1.129c3.56-5.205 7.55-10.289 11.935-15.239l-1.497-1.326zm-21.965 32.422c-2.89 5.997-5.23 12.133-6.974 18.392l1.927.537c1.71-6.139 4.008-12.164 6.85-18.061l-1.803-.868zM1.25 468.495a98.755 98.755 0 00.48 19.649l1.986-.246a96.754 96.754 0 01-.471-19.252l-1.995-.151zm4.738 38.923c1.9 5.985 4.359 12.023 7.402 18.104l1.788-.895c-2.998-5.992-5.416-11.934-7.284-17.814l-1.906.605zm17.31 34.996a178.94 178.94 0 005.813 8.122l1.593-1.209a176.346 176.346 0 01-5.747-8.03l-1.659 1.117zm5.813 8.122a156.036 156.036 0 006.451 7.969l1.511-1.311a153.535 153.535 0 01-6.369-7.867l-1.594 1.209zm21.03 22.291c5.513 4.539 11.163 8.27 17.013 11.365l.935-1.768c-5.73-3.032-11.268-6.688-16.677-11.141l-1.27 1.544zm35.917 19.136c6.339 1.967 12.936 3.474 19.849 4.701l.35-1.97c-6.853-1.215-13.366-2.705-19.607-4.642l-.592 1.911zm40.007 7.535c6.442.731 13.163 1.377 20.197 2.049l.19-1.991c-7.036-.672-13.74-1.317-20.161-2.045l-.226 1.987zm40.376 4.04c6.473.684 13.2 1.456 20.205 2.382l.262-1.983a774.529 774.529 0 00-20.257-2.388l-.21 1.989zm40.157 5.363a525.946 525.946 0 0119.96 3.743l.407-1.958a525.13 525.13 0 00-20.036-3.757l-.331 1.972zm39.707 8.259a521.11 521.11 0 0119.503 5.277l.56-1.92a523.697 523.697 0 00-19.578-5.297l-.485 1.94zm38.824 11.305a574.437 574.437 0 0119.102 6.728l.697-1.875a575.352 575.352 0 00-19.169-6.751l-.63 1.898zm37.971 14.103a663.01 663.01 0 0118.637 7.972l.814-1.827a666.968 666.968 0 00-18.692-7.996l-.759 1.851zm37.059 16.499a777.29 777.29 0 0118.237 9.049l.912-1.78a785.295 785.295 0 00-18.283-9.073l-.866 1.804zm36.131 18.494a911.046 911.046 0 0117.62 9.825l.993-1.736a920.483 920.483 0 00-17.658-9.847l-.955 1.758zm35.125 20.081a1062.421 1062.421 0 0117.445 10.693l1.061-1.696a1064.85 1064.85 0 00-17.478-10.713l-1.028 1.716zm34.38 21.505c2.863 1.864 5.747 3.758 8.652 5.684l1.106-1.667c-2.91-1.929-5.799-3.826-8.667-5.693l-1.091 1.676zm8.652 5.684a93.743 93.743 0 008.871 5.203l.916-1.778a91.364 91.364 0 01-8.681-5.092l-1.106 1.667zm27.959 12.625c6.497 1.802 13.228 3.01 20.143 3.689l.195-1.991c-6.811-.668-13.427-1.857-19.803-3.625l-.535 1.927zm40.586 4.231c6.669-.262 13.457-.924 20.326-1.938l-.292-1.978c-6.806 1.004-13.522 1.658-20.113 1.917l.079 1.999zm40.379-5.803a300.445 300.445 0 0019.678-5.367l-.59-1.911a298.425 298.425 0 01-19.546 5.332l.458 1.946zm38.976-11.93a436.843 436.843 0 0018.945-7.539l-.781-1.841a435.427 435.427 0 01-18.859 7.505l.695 1.875zm37.533-15.878a590.965 590.965 0 0018.262-9.018l-.916-1.778a590.321 590.321 0 01-18.2 8.988l.854 1.808zm36.22-18.621a744.456 744.456 0 0017.688-10.124l-1.017-1.722a744.396 744.396 0 01-17.64 10.097l.969 1.749zm35.064-20.681a869.445 869.445 0 0017.165-11.004l-1.098-1.671a877.388 877.388 0 01-17.126 10.979l1.059 1.696zm34.073-22.398a892.46 892.46 0 0016.632-11.761l-1.174-1.62a890.1 890.1 0 01-16.594 11.735l1.136 1.646zm32.989-23.929a523.964 523.964 0 005.864-4.549c.668-.527 1.177-.932 1.519-1.206.172-.136.301-.24.388-.31l.098-.079.025-.02.007-.006.001-.001h.001l-.629-.778-.629-.777-.002.001a.038.038 0 01-.006.005l-.023.019-.096.077-.383.307c-.339.271-.845.673-1.51 1.197a517.779 517.779 0 01-5.841 4.532l1.216 1.588z" fill="#C6AFB4"/></svg>